<svg width="14" height="14" viewBox="0 0 14 14" fill="none" xmlns="http://www.w3.org/2000/svg">
<path d="M1.73038 14C1.25142 14 0.843282 13.8313 0.505969 13.494C0.168656 13.1567 0 12.7486 0 12.2696V1.73038C0 1.25142 0.168656 0.843282 0.505969 0.50597C0.843282 0.168657 1.25142 0 1.73038 0H6.27578V1.73038H1.73038V12.2696H12.2696V7.72422H14V12.2696C14 12.7486 13.8313 13.1567 13.494 13.494C13.1567 13.8313 12.7486 14 12.2696 14H1.73038ZM10.0788 6.20302V3.92123H7.79698V2.2818H10.0788V0H11.7182V2.2818H14V3.92123H11.7182V6.20302H10.0788Z" fill="white"/>
</svg>
