<svg width="36" height="22" viewBox="0 0 36 22" fill="none" xmlns="http://www.w3.org/2000/svg">
<path d="M34 2L21.9289 14.222C21.7636 14.3907 21.567 14.5246 21.3504 14.616C21.1337 14.7074 20.9014 14.7544 20.6667 14.7544C20.432 14.7544 20.1996 14.7074 19.983 14.616C19.7663 14.5246 19.5697 14.3907 19.4044 14.222L14.8178 9.578C14.6525 9.40929 14.4559 9.27538 14.2392 9.184C14.0226 9.09261 13.7902 9.04556 13.5556 9.04556C13.3209 9.04556 13.0885 9.09261 12.8719 9.184C12.6552 9.27538 12.4586 9.40929 12.2933 9.578L2 20" stroke="white" stroke-width="3" stroke-linecap="round" stroke-linejoin="round"/>
<path d="M34 9V2H27" stroke="white" stroke-width="3" stroke-linecap="round" stroke-linejoin="round"/>
</svg>
