<svg width="16" height="17" viewBox="0 0 16 17" fill="none" xmlns="http://www.w3.org/2000/svg">
<path d="M7.94388 16.5C5.90587 16.5 4.1297 15.8291 2.61537 14.4873C1.10105 13.1455 0.229256 11.4635 0 9.44118H1.44069C1.6784 11.0665 2.40992 12.414 3.63526 13.4837C4.86061 14.5534 6.29682 15.0883 7.94388 15.0883C9.77918 15.0883 11.336 14.449 12.6145 13.1706C13.8929 11.8922 14.5321 10.3353 14.5321 8.5C14.5321 6.6647 13.8929 5.10783 12.6145 3.8294C11.336 2.55096 9.77918 1.91175 7.94388 1.91175C6.91583 1.91175 5.95233 2.1401 5.05338 2.59681C4.15444 3.05351 3.38039 3.68187 2.73121 4.48187H5.19274V5.89362H0.414519V1.11537H1.82624V3.34526C2.59004 2.4439 3.50467 1.74436 4.57013 1.24661C5.63559 0.748872 6.76018 0.5 7.94388 0.5C9.05399 0.5 10.0941 0.709962 11.0642 1.12988C12.0344 1.54979 12.8802 2.12052 13.6018 2.84208C14.3233 3.56365 14.8941 4.4095 15.314 5.37964C15.7339 6.34977 15.9439 7.38989 15.9439 8.5C15.9439 9.61011 15.7339 10.6502 15.314 11.6204C14.8941 12.5905 14.3233 13.4364 13.6018 14.1579C12.8802 14.8795 12.0344 15.4502 11.0642 15.8701C10.0941 16.29 9.05399 16.5 7.94388 16.5ZM10.7692 12.29L7.26515 8.78598V3.7941H8.6769V8.21402L11.7611 11.2982L10.7692 12.29Z" fill="white"/>
</svg>
