<svg width="32" height="32" viewBox="0 0 32 32" fill="none" xmlns="http://www.w3.org/2000/svg">
<path d="M31.9292 20.4882C31.8911 20.2206 31.8373 19.9585 31.7712 19.7024L31.817 19.6965C31.817 19.6965 29.1748 12.6915 28.6247 10.218C28.1641 8.34611 26.8185 6.87773 25.1085 6.20454C25.0649 6.04861 25.0288 5.90804 25.0019 5.78804C24.6292 4.27086 23.1598 3.25342 21.5799 3.47711C20.0001 3.70086 18.8708 5.08648 18.9339 6.64754C18.9465 6.84936 18.963 7.10892 18.9817 7.40392C17.804 8.52648 17.1105 10.1264 17.1797 11.8389C17.1827 11.8867 17.1857 11.9355 17.1887 11.9864H14.811C14.814 11.9355 14.817 11.8867 14.8203 11.8389C14.8893 10.1264 14.1962 8.52648 13.018 7.40392C13.0367 7.10898 13.0532 6.84936 13.0659 6.64754C13.1289 5.08648 11.9999 3.70086 10.4199 3.47711C8.8401 3.25336 7.37054 4.27086 6.99785 5.78804C6.97098 5.90811 6.93485 6.04861 6.89123 6.20454C5.18123 6.87767 3.83566 8.34611 3.37497 10.218C2.82491 12.6915 0.182662 19.6965 0.182662 19.6965L0.228475 19.7024C0.162475 19.9585 0.108662 20.2206 0.0707871 20.4882C-0.477026 24.3552 2.21429 27.9346 6.08129 28.4822C9.94829 29.0298 13.5275 26.3387 14.0751 22.4717C14.113 22.2037 14.1339 21.9376 14.1416 21.673L14.1874 21.68C14.1874 21.68 14.1996 21.4907 14.221 21.1634H17.7787C17.8001 21.4907 17.8123 21.68 17.8123 21.68L17.8582 21.673C17.8659 21.9376 17.8868 22.2037 17.9247 22.4717C18.4723 26.3387 22.0515 29.0298 25.9185 28.4822C29.786 27.9347 32.4768 24.3552 31.9292 20.4882ZM11.7413 22.1414C11.3758 24.7189 8.98991 26.5136 6.41166 26.1484C3.83366 25.7832 2.03966 23.3965 2.40491 20.819C2.76991 18.241 5.15604 16.4468 7.73404 16.812C10.3122 17.1773 12.1062 19.5629 11.7413 22.1414ZM25.5881 26.1484C23.0099 26.5136 20.624 24.7189 20.2585 22.1414C19.8935 19.5629 21.6875 17.1773 24.2657 16.812C26.844 16.4468 29.2299 18.241 29.5949 20.819C29.9601 23.3965 28.1661 25.7832 25.5881 26.1484Z" fill="#007C32"/>
</svg>
