<svg width="55" height="55" viewBox="0 0 55 55" fill="none" xmlns="http://www.w3.org/2000/svg">
<g id="box-product-shipping 1">
<g id="35 box">
<path id="Vector" d="M51.6056 12.8564C51.4428 12.6643 51.24 12.5102 51.0114 12.4047C50.7828 12.2993 50.5339 12.2452 50.2821 12.2462H21.5188C21.1213 12.2412 20.7347 12.3762 20.4267 12.6276C20.1188 12.879 19.9091 13.2307 19.8345 13.6212L15.0391 40.8119C14.9984 41.0468 15.0096 41.2878 15.072 41.5179C15.1343 41.748 15.2463 41.9617 15.4001 42.1439C15.5628 42.336 15.7656 42.4901 15.9942 42.5955C16.2229 42.7009 16.4718 42.755 16.7235 42.754H45.4868C45.8843 42.7591 46.2709 42.6241 46.5789 42.3727C46.8869 42.1213 47.0965 41.7695 47.1712 41.379L51.9665 14.1884C52.0095 13.9535 51.9994 13.712 51.9369 13.4815C51.8745 13.251 51.7612 13.0374 51.6056 12.8564ZM34.1946 13.965H37.5204L35.5438 23.3322C34.4009 22.129 34.3923 22.129 34.0141 22.129C33.7735 22.129 33.7649 22.129 31.986 23.1861C32.2954 21.8454 32.622 20.522 32.9485 19.2244C33.3696 17.5142 33.8079 15.7439 34.1946 13.965ZM45.4954 41.0353H45.4868L16.7321 41.1126L21.5188 13.965L32.4329 13.9392C32.072 15.5806 31.6681 17.222 31.2813 18.8119C30.8001 20.7454 30.3102 22.7392 29.8806 24.7587C29.8551 24.8836 29.8577 25.0126 29.8882 25.1363C29.9187 25.2601 29.9763 25.3755 30.057 25.4742C30.1376 25.5729 30.2391 25.6524 30.3543 25.7071C30.4694 25.7617 30.5953 25.79 30.7227 25.79C30.972 25.79 30.972 25.79 32.7938 24.7072C33.1806 24.4751 33.5673 24.2431 33.8681 24.0712C34.0313 24.2345 34.2204 24.4322 34.4095 24.6384C35.6556 25.9619 35.6556 25.9619 36.0423 25.9619C36.2392 25.9623 36.4303 25.8951 36.5836 25.7715C36.7369 25.648 36.8431 25.4755 36.8845 25.2829L39.2907 13.9134L50.2735 13.8876L45.4954 41.0353Z" fill="black"/>
<path id="Vector_2" d="M10.6406 19.8906H16.5703C16.7982 19.8906 17.0168 19.8001 17.178 19.6389C17.3391 19.4778 17.4297 19.2592 17.4297 19.0312C17.4297 18.8033 17.3391 18.5847 17.178 18.4236C17.0168 18.2624 16.7982 18.1719 16.5703 18.1719H10.6406C10.4127 18.1719 10.1941 18.2624 10.033 18.4236C9.87179 18.5847 9.78125 18.8033 9.78125 19.0312C9.78125 19.2592 9.87179 19.4778 10.033 19.6389C10.1941 19.8001 10.4127 19.8906 10.6406 19.8906Z" fill="black"/>
<path id="Vector_3" d="M14.0284 26.6406H7.25391C7.02599 26.6406 6.8074 26.7312 6.64624 26.8923C6.48507 27.0535 6.39453 27.2721 6.39453 27.5C6.39453 27.7279 6.48507 27.9465 6.64624 28.1077C6.8074 28.2688 7.02599 28.3594 7.25391 28.3594H14.0284C14.2563 28.3594 14.4749 28.2688 14.636 28.1077C14.7972 27.9465 14.8877 27.7279 14.8877 27.5C14.8877 27.2721 14.7972 27.0535 14.636 26.8923C14.4749 26.7312 14.2563 26.6406 14.0284 26.6406Z" fill="black"/>
<path id="Vector_4" d="M12.3346 35.1094H3.86719C3.63927 35.1094 3.42068 35.1999 3.25952 35.3611C3.09835 35.5222 3.00781 35.7408 3.00781 35.9688C3.00781 36.1967 3.09835 36.4153 3.25952 36.5764C3.42068 36.7376 3.63927 36.8281 3.86719 36.8281H12.3346C12.5625 36.8281 12.7811 36.7376 12.9423 36.5764C13.1034 36.4153 13.194 36.1967 13.194 35.9688C13.194 35.7408 13.1034 35.5222 12.9423 35.3611C12.7811 35.1999 12.5625 35.1094 12.3346 35.1094Z" fill="black"/>
<path id="Vector_5" d="M44.3439 34.5902C44.2629 34.4878 44.1597 34.4052 44.0421 34.3486C43.9245 34.292 43.7955 34.263 43.665 34.2637H36.8931C36.7012 34.2638 36.5148 34.3282 36.3637 34.4466C36.2127 34.565 36.1056 34.7305 36.0595 34.9168L35.2087 38.3027C35.1774 38.4293 35.1753 38.5613 35.2026 38.6888C35.2299 38.8162 35.2858 38.9358 35.3661 39.0385C35.4464 39.1412 35.549 39.2242 35.6662 39.2814C35.7833 39.3385 35.912 39.3683 36.0423 39.3684H42.8142C43.0061 39.3682 43.1925 39.3038 43.3435 39.1855C43.4946 39.0671 43.6017 38.9016 43.6478 38.7152L44.4986 35.3293C44.5294 35.2024 44.5314 35.0702 44.5047 34.9423C44.4779 34.8145 44.423 34.6942 44.3439 34.5902ZM42.1439 37.6496H37.1423L37.5634 35.9824H42.565L42.1439 37.6496Z" fill="#FE9D00"/>
</g>
</g>
</svg>
