<svg width="51" height="51" viewBox="0 0 51 51" fill="none" xmlns="http://www.w3.org/2000/svg">
<g id="management 1" clip-path="url(#clip0_798_1055)">
<g id="Group">
<g id="Group_2">
<g id="Group_3">
<path id="Vector" d="M43.5317 7.46827C38.7158 2.65221 32.3119 0 25.5 0C18.6881 0 12.2842 2.65221 7.46827 7.46827C2.65231 12.2842 0 18.6881 0 25.5C0 32.3119 2.65231 38.7158 7.46827 43.5317C12.2842 48.3478 18.6881 51 25.5 51C32.3119 51 38.7157 48.3477 43.5317 43.5317C48.3478 38.7158 51 32.3119 51 25.5C51 18.6881 48.3477 12.2843 43.5317 7.46827ZM42.0598 42.0598C37.637 46.4826 31.7558 48.9184 25.5 48.9184C19.2441 48.9184 13.363 46.4826 8.9402 42.0598C4.51735 37.637 2.08163 31.7558 2.08163 25.5C2.08163 19.2442 4.51735 13.363 8.9402 8.9402C13.363 4.51735 19.2441 2.08163 25.5 2.08163C31.7558 2.08163 37.637 4.51735 42.0598 8.9402C46.4826 13.363 48.9184 19.2442 48.9184 25.5C48.9184 31.7558 46.4826 37.637 42.0598 42.0598Z" fill="black"/>
<path id="Vector_2" d="M25.4998 4.16309C22.4826 4.16309 19.5669 4.77946 16.8336 5.99503C14.1919 7.1699 11.8506 8.84343 9.87519 10.9686C6.19174 14.9248 4.16309 20.0855 4.16309 25.4998C4.16309 31.0622 6.28916 36.3206 10.1471 40.3036C12.1125 42.3467 14.4231 43.9536 17.0148 45.0798C19.6976 46.2455 22.5523 46.8366 25.4998 46.8366C31.2009 46.8366 36.5596 44.6177 40.5887 40.5887C44.6177 36.5596 46.8366 31.2009 46.8366 25.4998C46.8366 13.7347 37.2649 4.16309 25.4998 4.16309ZM39.8327 38.3608L36.1235 34.6516L34.6515 36.1236L38.3607 39.8328C35.0804 42.783 30.9488 44.4937 26.5406 44.7267V39.5508H24.459V44.727C19.9184 44.4881 15.6926 42.688 12.3742 39.5774L15.8277 36.1234L14.3557 34.6516L10.9304 38.0774C8.12797 34.8501 6.50076 30.8196 6.27324 26.5406H11.4488V24.459H6.27355C6.49503 20.315 8.03586 16.3835 10.6859 13.1987L14.3556 16.8684L15.8276 15.3964L12.1008 11.6696C13.7287 10.0881 15.601 8.82116 17.6794 7.89691C19.8292 6.94082 22.1052 6.39595 24.4589 6.2722V11.4488H26.5405V6.27313C31.1974 6.52241 35.4193 8.43449 38.6238 11.4242L34.6515 15.3965L36.1235 16.8685L40.0686 12.9234C42.775 16.0543 44.4912 20.0632 44.7265 24.4591H39.5508V26.5407H44.7267C44.4937 30.9489 42.783 35.0805 39.8327 38.3608Z" fill="black"/>
<path id="Vector_3" d="M35.9079 22.3772H33.2201C33.2028 22.3341 33.1854 22.2914 33.1676 22.2491L35.072 20.3447C35.2672 20.1495 35.3769 19.8848 35.3769 19.6087C35.3769 19.3327 35.2672 19.068 35.072 18.8728L32.1264 15.9272C31.9312 15.732 31.6665 15.6223 31.3905 15.6223C31.1144 15.6223 30.8497 15.732 30.6545 15.9272L28.7501 17.8317C28.7078 17.8139 28.6651 17.7964 28.622 17.7791V15.0916C28.622 14.5169 28.1559 14.0508 27.5812 14.0508H23.4179C22.8431 14.0508 22.3771 14.5169 22.3771 15.0916V17.7791C22.3341 17.7963 22.2913 17.8139 22.249 17.8317L20.3446 15.9272C20.1494 15.732 19.8847 15.6223 19.6086 15.6223C19.3326 15.6223 19.0678 15.732 18.8727 15.9272L15.9272 18.8728C15.5207 19.2793 15.5207 19.9384 15.9272 20.3448L17.8317 22.2492C17.8139 22.2917 17.7964 22.3343 17.7791 22.3773H15.0916C14.5168 22.3773 14.0508 22.8434 14.0508 23.4181V27.5814C14.0508 28.1561 14.5168 28.6222 15.0916 28.6222H17.7793C17.7965 28.6652 17.8141 28.7079 17.8319 28.7503L15.9274 30.6547C15.7319 30.8502 15.6223 31.1153 15.6225 31.3916C15.6227 31.668 15.7328 31.9328 15.9286 32.128L18.8741 35.0631C19.2801 35.4677 19.9369 35.4678 20.3431 35.0633L22.2493 33.1655C22.292 33.1837 22.3347 33.2015 22.3773 33.2189V35.9079C22.3773 36.4827 22.8433 36.9487 23.4181 36.9487H27.5814C28.1561 36.9487 28.6222 36.4827 28.6223 35.9079V33.2202C28.6654 33.2029 28.7081 33.1855 28.7504 33.1677L30.6548 35.0721C30.8501 35.2673 31.1148 35.377 31.3908 35.377C31.3911 35.377 31.3914 35.377 31.3917 35.377C31.6681 35.3768 31.9329 35.2667 32.1281 35.0709L35.0632 32.1253C35.4678 31.7193 35.468 31.0624 35.0634 30.6563L33.1671 28.7518C33.1853 28.7089 33.2029 28.6657 33.2204 28.6221H35.9079C36.4827 28.6221 36.9487 28.156 36.9487 27.5813V23.418C36.9487 22.8433 36.4827 22.3772 35.9079 22.3772ZM34.8671 26.5408H32.4835C32.0255 26.5408 31.6211 26.8403 31.4878 27.2786C31.3546 27.7167 31.1899 28.1162 30.9983 28.4658C30.7766 28.8706 30.8479 29.3731 31.1737 29.7002L32.8569 31.3906L31.3894 32.8631L29.7016 31.1752C29.3746 30.8483 28.8712 30.7763 28.4656 30.9984C28.116 31.19 27.7165 31.3547 27.2784 31.4879C26.8401 31.6212 26.5406 32.0256 26.5406 32.4836V34.8671H24.4591V32.4836C24.4591 32.0232 24.1566 31.6175 23.7153 31.4861C23.3258 31.3702 22.9338 31.2077 22.517 30.9892C22.1145 30.7783 21.6216 30.853 21.2997 31.1737L19.6092 32.8569L18.1366 31.3894L19.8244 29.7016C20.1512 29.3746 20.2233 28.8713 20.0013 28.4658C19.8096 28.1159 19.645 27.7164 19.5116 27.2783C19.3782 26.8401 18.9739 26.5406 18.5159 26.5406H16.1324V24.4589H18.5158C18.9738 24.4589 19.3781 24.1594 19.5115 23.7212C19.6449 23.2831 19.8096 22.8837 20.0012 22.5337C20.2232 22.1282 20.1512 21.6249 19.8243 21.2979L18.1352 19.6087L19.6087 18.1352L21.2979 19.8243C21.6249 20.1512 22.1285 20.2232 22.534 20.0011C22.8836 19.8095 23.283 19.6449 23.7211 19.5116C24.1594 19.3783 24.4589 18.9739 24.4589 18.5159V16.1324H26.5406V18.5159C26.5406 18.9739 26.8401 19.3783 27.2784 19.5116C27.7165 19.6449 28.116 19.8095 28.4656 20.0011C28.8712 20.2232 29.3746 20.1513 29.7016 19.8243L31.3908 18.1352L32.8644 19.6089L31.1752 21.2981C30.8483 21.6251 30.7762 22.1287 30.9984 22.5342C31.19 22.8838 31.3547 23.2832 31.4879 23.7213C31.6212 24.1596 32.0256 24.4592 32.4836 24.4592H34.8671V26.5408Z" fill="black"/>
<path id="Vector_4" d="M25.4998 21.8574C23.4911 21.8574 21.8569 23.4916 21.8569 25.5003C21.8569 27.509 23.4911 29.1431 25.4998 29.1431C27.5085 29.1431 29.1426 27.509 29.1426 25.5003C29.1426 23.4916 27.5085 21.8574 25.4998 21.8574ZM25.4998 27.0615C24.6389 27.0615 23.9386 26.3611 23.9386 25.5003C23.9386 24.6394 24.6389 23.9391 25.4998 23.9391C26.3607 23.9391 27.061 24.6394 27.061 25.5003C27.061 26.3611 26.3607 27.0615 25.4998 27.0615Z" fill="black"/>
</g>
</g>
</g>
</g>
<defs>
<clipPath id="clip0_798_1055">
<rect width="51" height="51" fill="white"/>
</clipPath>
</defs>
</svg>
