<svg width="53" height="53" viewBox="0 0 53 53" fill="none" xmlns="http://www.w3.org/2000/svg">
<g id="infrastructure 1" clip-path="url(#clip0_798_1037)">
<g id="Layer 2">
<g id="icons Q2">
<path id="Vector" d="M26.4998 28.7087C27.7195 28.7087 28.7082 27.72 28.7082 26.5003C28.7082 25.2807 27.7195 24.292 26.4998 24.292C25.2802 24.292 24.2915 25.2807 24.2915 26.5003C24.2915 27.72 25.2802 28.7087 26.4998 28.7087Z" fill="black"/>
<path id="Vector_2" d="M26.4998 19.8747C27.7195 19.8747 28.7082 18.886 28.7082 17.6663C28.7082 16.4467 27.7195 15.458 26.4998 15.458C25.2802 15.458 24.2915 16.4467 24.2915 17.6663C24.2915 18.886 25.2802 19.8747 26.4998 19.8747Z" fill="black"/>
<path id="Vector_3" d="M26.4998 11.0417C27.7195 11.0417 28.7082 10.053 28.7082 8.83333C28.7082 7.6137 27.7195 6.625 26.4998 6.625C25.2802 6.625 24.2915 7.6137 24.2915 8.83333C24.2915 10.053 25.2802 11.0417 26.4998 11.0417Z" fill="black"/>
<path id="Vector_4" d="M26.4998 46.3747C27.7195 46.3747 28.7082 45.386 28.7082 44.1663C28.7082 42.9467 27.7195 41.958 26.4998 41.958C25.2802 41.958 24.2915 42.9467 24.2915 44.1663C24.2915 45.386 25.2802 46.3747 26.4998 46.3747Z" fill="black"/>
<path id="Vector_5" d="M26.4998 37.5417C27.7195 37.5417 28.7082 36.553 28.7082 35.3333C28.7082 34.1137 27.7195 33.125 26.4998 33.125C25.2802 33.125 24.2915 34.1137 24.2915 35.3333C24.2915 36.553 25.2802 37.5417 26.4998 37.5417Z" fill="black"/>
<path id="Vector_6" d="M35.3333 28.7087C36.553 28.7087 37.5417 27.72 37.5417 26.5003C37.5417 25.2807 36.553 24.292 35.3333 24.292C34.1137 24.292 33.125 25.2807 33.125 26.5003C33.125 27.72 34.1137 28.7087 35.3333 28.7087Z" fill="black"/>
<path id="Vector_7" d="M44.1663 28.7087C45.386 28.7087 46.3747 27.72 46.3747 26.5003C46.3747 25.2807 45.386 24.292 44.1663 24.292C42.9467 24.292 41.958 25.2807 41.958 26.5003C41.958 27.72 42.9467 28.7087 44.1663 28.7087Z" fill="black"/>
<path id="Vector_8" d="M8.83333 28.7087C10.053 28.7087 11.0417 27.72 11.0417 26.5003C11.0417 25.2807 10.053 24.292 8.83333 24.292C7.6137 24.292 6.625 25.2807 6.625 26.5003C6.625 27.72 7.6137 28.7087 8.83333 28.7087Z" fill="black"/>
<path id="Vector_9" d="M17.6663 28.7087C18.886 28.7087 19.8747 27.72 19.8747 26.5003C19.8747 25.2807 18.886 24.292 17.6663 24.292C16.4467 24.292 15.458 25.2807 15.458 26.5003C15.458 27.72 16.4467 28.7087 17.6663 28.7087Z" fill="black"/>
<path id="Vector_10" d="M46.3748 13.2501C45.5928 13.2431 44.823 13.4438 44.144 13.8318C43.465 14.2198 42.9012 14.7811 42.5103 15.4584H37.5415V10.4897C38.3835 10.0035 39.0416 9.25315 39.4136 8.3549C39.7857 7.45665 39.851 6.46073 39.5993 5.5216C39.3477 4.58247 38.7932 3.75261 38.0219 3.16074C37.2505 2.56886 36.3054 2.24805 35.3332 2.24805C34.3609 2.24805 33.4158 2.56886 32.6445 3.16074C31.8731 3.75261 31.3186 4.58247 31.067 5.5216C30.8154 6.46073 30.8806 7.45665 31.2527 8.3549C31.6248 9.25315 32.2828 10.0035 33.1248 10.4897V19.8751H42.5103C42.8971 20.545 43.4531 21.1016 44.1226 21.4891C44.7922 21.8766 45.5517 22.0815 46.3253 22.0832C47.0989 22.0849 47.8594 21.8834 48.5306 21.4989C49.2019 21.1143 49.7603 20.5602 50.1501 19.892C50.5399 19.2238 50.7474 18.4649 50.7517 17.6913C50.756 16.9177 50.5571 16.1566 50.1748 15.484C49.7926 14.8115 49.2403 14.2512 48.5735 13.8591C47.9066 13.4671 47.1484 13.257 46.3748 13.2501ZM35.3332 8.83341C34.8964 8.83341 34.4694 8.70389 34.1063 8.46124C33.7431 8.21858 33.4601 7.87369 33.2929 7.47017C33.1258 7.06665 33.0821 6.62263 33.1673 6.19425C33.2525 5.76588 33.4628 5.37239 33.7716 5.06355C34.0805 4.75471 34.474 4.54438 34.9023 4.45917C35.3307 4.37397 35.7747 4.4177 36.1783 4.58484C36.5818 4.75198 36.9267 5.03503 37.1693 5.39819C37.412 5.76135 37.5415 6.18831 37.5415 6.62508C37.5415 7.21076 37.3088 7.77246 36.8947 8.1866C36.4806 8.60075 35.9189 8.83341 35.3332 8.83341ZM46.3748 19.8751C45.9381 19.8751 45.5111 19.7456 45.148 19.5029C44.7848 19.2602 44.5017 18.9154 44.3346 18.5118C44.1675 18.1083 44.1237 17.6643 44.2089 17.2359C44.2941 16.8075 44.5045 16.4141 44.8133 16.1052C45.1221 15.7964 45.5156 15.5861 45.944 15.5008C46.3724 15.4156 46.8164 15.4594 47.2199 15.6265C47.6234 15.7937 47.9683 16.0767 48.211 16.4399C48.4537 16.803 48.5832 17.23 48.5832 17.6667C48.5832 18.2524 48.3505 18.8141 47.9364 19.2283C47.5222 19.6424 46.9605 19.8751 46.3748 19.8751Z" fill="black"/>
<path id="Vector_11" d="M2.20809 17.6667C2.19222 18.652 2.50626 19.6142 3.10026 20.4004C3.69425 21.1866 4.53409 21.7515 5.48618 22.0054C6.43826 22.2593 7.4479 22.1875 8.35449 21.8015C9.26108 21.4155 10.0125 20.7374 10.4893 19.8751H19.8748V10.4897C20.7168 10.0035 21.3748 9.25315 21.7469 8.3549C22.119 7.45665 22.1842 6.46073 21.9326 5.5216C21.681 4.58247 21.1265 3.75261 20.3551 3.16074C19.5838 2.56886 18.6387 2.24805 17.6664 2.24805C16.6942 2.24805 15.7491 2.56886 14.9777 3.16074C14.2064 3.75261 13.6519 4.58247 13.4003 5.5216C13.1486 6.46073 13.2139 7.45665 13.586 8.3549C13.958 9.25315 14.6161 10.0035 15.4581 10.4897V15.4584H10.4893C10.0125 14.5961 9.26108 13.918 8.35449 13.532C7.4479 13.1459 6.43826 13.0742 5.48618 13.328C4.53409 13.5819 3.69425 14.1469 3.10026 14.9331C2.50626 15.7193 2.19222 16.6815 2.20809 17.6667ZM15.4581 6.62507C15.4581 6.18831 15.5876 5.76135 15.8303 5.39819C16.0729 5.03503 16.4178 4.75198 16.8213 4.58484C17.2249 4.4177 17.6689 4.37397 18.0973 4.45917C18.5256 4.54438 18.9191 4.75471 19.228 5.06355C19.5368 5.37239 19.7471 5.76588 19.8323 6.19425C19.9175 6.62263 19.8738 7.06665 19.7067 7.47017C19.5395 7.87369 19.2565 8.21858 18.8933 8.46124C18.5302 8.70389 18.1032 8.83341 17.6664 8.83341C17.0807 8.83341 16.519 8.60074 16.1049 8.1866C15.6908 7.77246 15.4581 7.21076 15.4581 6.62507ZM4.41643 17.6667C4.41643 17.23 4.54594 16.803 4.7886 16.4399C5.03125 16.0767 5.37615 15.7936 5.77967 15.6265C6.18319 15.4594 6.62721 15.4156 7.05558 15.5008C7.48396 15.586 7.87745 15.7964 8.18629 16.1052C8.49513 16.4141 8.70545 16.8075 8.79066 17.2359C8.87587 17.6643 8.83214 18.1083 8.66499 18.5118C8.49785 18.9154 8.2148 19.2602 7.85164 19.5029C7.48849 19.7456 7.06153 19.8751 6.62476 19.8751C6.03907 19.8751 5.47738 19.6424 5.06323 19.2283C4.64909 18.8141 4.41643 18.2524 4.41643 17.6667Z" fill="black"/>
<path id="Vector_12" d="M46.3748 30.9172C45.5928 30.9102 44.823 31.1109 44.144 31.4989C43.465 31.8869 42.9012 32.4482 42.5103 33.1255H33.1248V42.5109C32.2828 42.997 31.6248 43.7474 31.2527 44.6457C30.8806 45.5439 30.8154 46.5399 31.067 47.479C31.3186 48.4181 31.8731 49.248 32.6445 49.8398C33.4158 50.4317 34.3609 50.7525 35.3332 50.7525C36.3054 50.7525 37.2505 50.4317 38.0219 49.8398C38.7932 49.248 39.3477 48.4181 39.5993 47.479C39.851 46.5399 39.7857 45.5439 39.4136 44.6457C39.0416 43.7474 38.3835 42.997 37.5415 42.5109V37.5422H42.5103C42.8971 38.2121 43.4531 38.7687 44.1226 39.1562C44.7922 39.5437 45.5517 39.7486 46.3253 39.7503C47.0989 39.752 47.8594 39.5505 48.5306 39.166C49.2019 38.7814 49.7603 38.2273 50.1501 37.5591C50.5399 36.8909 50.7474 36.132 50.7517 35.3584C50.756 34.5848 50.5571 33.8237 50.1748 33.1511C49.7926 32.4786 49.2403 31.9183 48.5735 31.5262C47.9066 31.1341 47.1484 30.9241 46.3748 30.9172ZM35.3332 48.5838C34.8964 48.5838 34.4694 48.4543 34.1063 48.2117C33.7431 47.969 33.4601 47.6241 33.2929 47.2206C33.1258 46.8171 33.0821 46.373 33.1673 45.9447C33.2525 45.5163 33.4628 45.1228 33.7716 44.814C34.0805 44.5051 34.474 44.2948 34.9023 44.2096C35.3307 44.1244 35.7747 44.1681 36.1783 44.3353C36.5818 44.5024 36.9267 44.7855 37.1693 45.1486C37.412 45.5118 37.5415 45.9387 37.5415 46.3755C37.5415 46.9612 37.3088 47.5229 36.8947 47.937C36.4806 48.3512 35.9189 48.5838 35.3332 48.5838ZM46.3748 37.5422C45.9381 37.5422 45.5111 37.4127 45.148 37.17C44.7848 36.9273 44.5017 36.5824 44.3346 36.1789C44.1675 35.7754 44.1237 35.3314 44.2089 34.903C44.2941 34.4746 44.5045 34.0811 44.8133 33.7723C45.1221 33.4635 45.5156 33.2531 45.944 33.1679C46.3724 33.0827 46.8164 33.1265 47.2199 33.2936C47.6234 33.4607 47.9683 33.7438 48.211 34.107C48.4537 34.4701 48.5832 34.8971 48.5832 35.3338C48.5832 35.9195 48.3505 36.4812 47.9364 36.8954C47.5222 37.3095 46.9605 37.5422 46.3748 37.5422Z" fill="black"/>
<path id="Vector_13" d="M19.8746 42.5107V33.1253H10.4892C10.003 32.2833 9.25266 31.6253 8.35441 31.2532C7.45616 30.8811 6.46024 30.8158 5.52111 31.0675C4.58198 31.3191 3.75212 31.8736 3.16025 32.645C2.56837 33.4163 2.24756 34.3614 2.24756 35.3337C2.24756 36.3059 2.56837 37.251 3.16025 38.0224C3.75212 38.7937 4.58198 39.3482 5.52111 39.5998C6.46024 39.8515 7.45616 39.7862 8.35441 39.4141C9.25266 39.0421 10.003 38.384 10.4892 37.542H15.4579V42.5107C14.6159 42.9969 13.9579 43.7473 13.5858 44.6455C13.2137 45.5438 13.1484 46.5397 13.4001 47.4788C13.6517 48.4179 14.2062 49.2478 14.9776 49.8397C15.7489 50.4315 16.694 50.7524 17.6663 50.7524C18.6385 50.7524 19.5836 50.4315 20.3549 49.8397C21.1263 49.2478 21.6808 48.4179 21.9324 47.4788C22.1841 46.5397 22.1188 45.5438 21.7467 44.6455C21.3747 43.7473 20.7166 42.9969 19.8746 42.5107ZM6.62459 37.542C6.18782 37.542 5.76086 37.4125 5.3977 37.1698C5.03454 36.9272 4.7515 36.5823 4.58435 36.1788C4.41721 35.7752 4.37348 35.3312 4.45869 34.9028C4.5439 34.4745 4.75422 34.081 5.06306 33.7721C5.3719 33.4633 5.76539 33.253 6.19376 33.1678C6.62214 33.0826 7.06616 33.1263 7.46968 33.2934C7.8732 33.4606 8.21809 33.7436 8.46075 34.1068C8.7034 34.4699 8.83292 34.8969 8.83292 35.3337C8.83292 35.9193 8.60026 36.481 8.18611 36.8952C7.77197 37.3093 7.21027 37.542 6.62459 37.542ZM17.6663 48.5837C17.2295 48.5837 16.8025 48.4541 16.4394 48.2115C16.0762 47.9688 15.7932 47.6239 15.626 47.2204C15.4589 46.8169 15.4151 46.3729 15.5004 45.9445C15.5856 45.5161 15.7959 45.1226 16.1047 44.8138C16.4136 44.505 16.8071 44.2946 17.2354 44.2094C17.6638 44.1242 18.1078 44.1679 18.5113 44.3351C18.9149 44.5022 19.2598 44.7853 19.5024 45.1484C19.7451 45.5116 19.8746 45.9386 19.8746 46.3753C19.8746 46.961 19.6419 47.5227 19.2278 47.9369C18.8136 48.351 18.2519 48.5837 17.6663 48.5837Z" fill="black"/>
</g>
</g>
</g>
<defs>
<clipPath id="clip0_798_1037">
<rect width="53" height="53" fill="white"/>
</clipPath>
</defs>
</svg>
