<svg width="53" height="53" viewBox="0 0 53 53" fill="none" xmlns="http://www.w3.org/2000/svg">
<g id="call-center-person-3 1">
<g id="Group">
<path id="Vector" d="M47.0663 44.8062L46.6899 42.6282C46.3666 40.7532 45.0622 39.1234 43.2009 38.269L35.2772 34.6283C34.3043 34.1823 34.0262 32.7718 33.9981 32.6955C33.9123 32.5686 33.7671 32.4922 33.544 32.4922C33.5374 32.4922 33.5306 32.4922 33.5239 32.4922C33.3341 32.5163 33.1786 32.6449 33.1273 32.8208L32.2129 36.03L26.4999 46.3975L20.8011 36.0645L19.8715 32.8208C19.822 32.6457 19.6661 32.5163 19.4051 32.4873C19.2407 32.4873 19.0897 32.5652 18.9757 32.7574C18.9731 32.7719 18.6979 34.1807 17.7224 34.6283L9.79743 38.269C7.93684 39.1241 6.63285 40.7531 6.30936 42.6282L5.93298 44.8062C5.78516 45.6597 5.9955 46.8524 6.80665 47.4551C6.90209 47.5267 7.02186 47.6328 7.17351 47.7678C8.63205 49.0617 13.0705 52.9998 26.4999 52.9998C39.9267 52.9998 44.3663 49.0617 45.8252 47.7678C45.9771 47.6336 46.0973 47.5267 46.1929 47.4551C47.0044 46.8515 47.2145 45.6588 47.0663 44.8062Z" fill="black"/>
<path id="Vector_2" d="M30.276 12.9736C32.1962 16.5773 34.8259 21.5144 35.9737 22.2312L36.1915 22.367L36.9898 16.1336C37.2087 13.3954 36.3284 10.8036 34.5114 8.83536C32.5254 6.68389 29.6053 5.4502 26.5001 5.4502C23.3946 5.4502 20.4744 6.68389 18.4884 8.83536C16.6713 10.8028 15.7907 13.3954 16.01 16.14L16.7363 22.3108L16.9792 22.0456C17.4803 21.4999 18.3833 20.9301 19.5263 20.2084C22.1699 18.54 26.1432 16.0325 29.264 11.0858C29.553 11.6162 29.8972 12.2624 30.276 12.9736Z" fill="black"/>
<path id="Vector_3" d="M10.5697 25.1217C10.7035 25.6786 11.1966 26.0676 11.7686 26.0676C11.8653 26.0676 11.9621 26.0555 12.0569 26.033L14.1351 25.5339C14.5315 25.4391 14.8524 25.1521 14.9964 24.7704L15.082 24.7759L15.0431 24.6201C15.0899 24.424 15.0911 24.2319 15.0469 24.047L13.9635 19.5632C13.7037 18 13.5719 16.6635 13.5719 15.5889C13.5719 8.46023 19.3715 2.66087 26.5 2.66087C33.6283 2.66087 39.4278 8.46023 39.4278 15.5889C39.4278 16.6627 39.296 18 39.0172 19.613L37.9528 24.047C37.9371 24.1129 37.9275 24.1796 37.9238 24.2496L37.8813 24.3444C37.8673 24.3758 36.4345 27.474 31.9841 28.3475C31.753 27.9209 31.3074 27.6515 30.8147 27.6515H28.1333C27.3998 27.6515 26.803 28.2487 26.803 28.9824V30.0312C26.803 30.7649 27.3998 31.3621 28.1333 31.3621H30.8147C31.3725 31.3621 31.8704 31.0069 32.0602 30.4854C34.7239 30.0288 36.5054 28.9078 37.5348 28.0413C38.6013 27.1445 39.2388 26.2258 39.5517 25.6994L40.943 26.0329C41.0376 26.0554 41.1345 26.0675 41.2312 26.0675C41.8032 26.0675 42.2961 25.6785 42.4299 25.1216L43.4945 20.6876C43.653 20.0261 43.2441 19.3591 42.5829 19.2L41.8144 19.0159C41.9968 17.7188 42.0894 16.5663 42.0894 15.5889C42.0891 6.99372 35.0958 0 26.5 0C17.9042 0 10.9109 6.99372 10.9109 15.5891C10.9109 16.5664 11.0033 17.7189 11.1857 19.0153L10.4166 19.2002C9.75532 19.3593 9.34664 20.0263 9.50543 20.6878L10.5697 25.1217Z" fill="black"/>
</g>
</g>
</svg>
