<svg width="15" height="12" viewBox="0 0 15 12" fill="none" xmlns="http://www.w3.org/2000/svg">
<path d="M12.4098 11.7138L11.348 10.6478L12.1136 9.88209H7.07102C6.91793 10.3191 6.65254 10.6715 6.27484 10.9392C5.89715 11.2069 5.4768 11.3408 5.01381 11.3408C4.55082 11.3408 4.1327 11.2062 3.75945 10.9372C3.3862 10.6681 3.11863 10.3164 2.95672 9.88209H2.21716C1.60128 9.88209 1.07778 9.66694 0.646671 9.23664C0.215557 8.80633 0 8.28381 0 7.66909V3.51773H4.18881V1.51695H0V0H9.01128C9.44958 0 9.82308 0.154339 10.1318 0.463017C10.4405 0.771706 10.5948 1.14521 10.5948 1.58353V8.36514H12.083L11.348 7.62597L12.4098 6.53346L15 9.12362L12.4098 11.7138ZM5.70992 3.51773H9.07369V1.51695H5.70992V3.51773ZM5.01386 9.81968C5.21108 9.81968 5.37639 9.75297 5.5098 9.61956C5.64321 9.48615 5.70992 9.32084 5.70992 9.12362C5.70992 8.9264 5.64321 8.76109 5.5098 8.62768C5.37639 8.49427 5.21108 8.42756 5.01386 8.42756C4.81665 8.42756 4.65133 8.49427 4.51792 8.62768C4.38451 8.76109 4.31781 8.9264 4.31781 9.12362C4.31781 9.32084 4.38451 9.48615 4.51792 9.61956C4.65133 9.75297 4.81665 9.81968 5.01386 9.81968ZM2.9484 8.36514C3.11031 7.92532 3.37843 7.57224 3.75277 7.30592C4.12711 7.03961 4.54747 6.90646 5.01386 6.90646C5.48245 6.90646 5.90557 7.03892 6.28322 7.30385C6.66088 7.56878 6.92487 7.92255 7.07518 8.36514H9.07369V5.03468H1.52111V7.66909C1.52111 7.8663 1.58781 8.03162 1.72122 8.16503C1.85463 8.29844 2.01995 8.36514 2.21716 8.36514H2.9484ZM2.9484 5.03468H1.52111H9.07369H2.9484Z" fill="white"/>
</svg>
