<svg width="19" height="19" viewBox="0 0 19 19" fill="none" xmlns="http://www.w3.org/2000/svg">
<g clip-path="url(#clip0_1584_8)">
<path d="M9.5 0C6.66069 0 4.11231 1.24331 2.375 3.21694V0H0V7.125H7.125V4.75H4.1895C4.275 4.65025 4.37119 4.55762 4.46025 4.46025C5.80806 3.11719 7.59644 2.375 9.5 2.375C11.4036 2.375 13.1919 3.11719 14.5398 4.46025C15.8828 5.80806 16.625 7.59644 16.625 9.5C16.625 11.4036 15.8828 13.1919 14.5398 14.5398C13.1919 15.8828 11.4036 16.625 9.5 16.625C7.59644 16.625 5.80331 15.8899 4.46025 14.5398C3.11719 13.1896 2.375 11.4036 2.375 9.5H0C0 14.7476 4.25244 19 9.5 19C14.7476 19 19 14.7476 19 9.5C19 4.25244 14.7476 0 9.5 0ZM8.3125 4.75V9.994L12.2206 13.9021L13.9021 12.2206L10.6875 9.006V4.75H8.3125Z" fill="white"/>
</g>
<defs>
<clipPath id="clip0_1584_8">
<rect width="19" height="19" fill="white"/>
</clipPath>
</defs>
</svg>
