<svg width="19" height="19" viewBox="0 0 19 19" fill="none" xmlns="http://www.w3.org/2000/svg">
<g clip-path="url(#clip0_1581_243)">
<path fill-rule="evenodd" clip-rule="evenodd" d="M1 9.49974C1.00029 5.44485 3.86489 1.95485 7.84191 1.16404C11.819 0.373249 15.8008 2.5019 17.3523 6.24821C18.9038 9.99454 17.593 14.3151 14.2213 16.5677C10.8497 18.8203 6.35627 18.3775 3.48916 15.5101C1.89522 13.916 0.999842 11.7541 1 9.49974Z" stroke="white" stroke-width="1.5" stroke-linecap="round" stroke-linejoin="round"/>
<path d="M6.22791 11.6721C5.92411 11.9759 5.92402 12.4683 6.2277 12.7721C6.53139 13.0759 7.02387 13.076 7.32761 12.7723L6.22791 11.6721ZM10.0498 10.0511C10.3537 9.74739 10.3538 9.25501 10.05 8.95116C9.74639 8.64741 9.25391 8.64731 8.95016 8.95095L10.0498 10.0511ZM8.95016 8.95095C8.64651 9.2548 8.64641 9.7476 8.95026 10.0512C9.25411 10.3549 9.74629 10.355 10.0498 10.0511L8.95016 8.95095ZM12.7713 7.32754C13.075 7.02369 13.0748 6.53123 12.7709 6.22759C12.4671 5.92397 11.9746 5.92416 11.671 6.22802L12.7713 7.32754ZM10.05 8.95116C9.74639 8.64741 9.25391 8.64731 8.95016 8.95095C8.64651 9.2548 8.64641 9.7476 8.95026 10.0512L10.05 8.95116ZM11.6724 12.7723C11.9761 13.076 12.4686 13.0759 12.7723 12.7721C13.076 12.4683 13.0759 11.9759 12.772 11.6721L11.6724 12.7723ZM8.95026 10.0512C9.25411 10.3549 9.74629 10.355 10.0498 10.0511C10.3537 9.74739 10.3538 9.25501 10.05 8.95116L8.95026 10.0512ZM7.32782 6.22792C7.02418 5.92412 6.53171 5.92402 6.22791 6.2277C5.92411 6.53138 5.92402 7.02385 6.2277 7.32764L7.32782 6.22792ZM7.32761 12.7723L10.0498 10.0511L8.95016 8.95095L6.22791 11.6721L7.32761 12.7723ZM10.0498 10.0511L12.7713 7.32754L11.671 6.22802L8.95016 8.95095L10.0498 10.0511ZM8.95026 10.0512L11.6724 12.7723L12.772 11.6721L10.05 8.95116L8.95026 10.0512ZM10.05 8.95116L7.32782 6.22792L6.2277 7.32764L8.95026 10.0512L10.05 8.95116Z" fill="white"/>
</g>
<defs>
<clipPath id="clip0_1581_243">
<rect width="19" height="19" fill="white"/>
</clipPath>
</defs>
</svg>
