<svg width="50" height="50" viewBox="0 0 50 50" fill="none" xmlns="http://www.w3.org/2000/svg">
<path d="M45.663 5.84463C47.7673 5.88467 49.6697 7.68154 49.7117 9.89326C49.7265 12.2464 49.7226 14.5995 49.7117 16.9528C49.6892 18.5778 48.632 19.9956 47.1552 20.7204C44.2423 22.1864 43.7179 27.3151 46.9546 29.1712C47.4189 29.4374 47.9173 29.6507 48.3197 30.0046C49.183 30.7644 49.6957 31.8985 49.7113 33.046C49.7222 35.3827 49.7119 37.7196 49.7119 40.0563C49.6984 42.1905 47.9007 44.1114 45.663 44.154C31.9039 44.2409 18.1441 44.1542 4.38472 44.1542C2.25367 44.1409 0.329059 42.3173 0.287067 40.1054C0.272223 37.7522 0.276129 35.3991 0.287067 33.0458C0.309332 31.4214 1.36988 30.0017 2.84351 29.2782C5.75679 27.8122 6.28062 22.6833 3.0441 20.8274C2.59019 20.5673 2.10269 20.3604 1.70679 20.0181C0.828668 19.2593 0.303473 18.1214 0.287262 16.9526C0.276715 14.6159 0.286871 12.279 0.286871 9.94229C0.300348 7.81162 2.12379 5.88662 4.3357 5.84463C18.1113 5.75752 31.8875 5.75752 45.663 5.84463ZM4.39214 8.18818C3.473 8.19385 2.64879 8.96963 2.63082 9.92295C2.61597 12.2632 2.59898 14.6048 2.63121 16.9474C2.64683 17.6276 3.08433 18.2528 3.72144 18.5423C3.94234 18.6452 3.95386 18.6542 4.04976 18.7054C7.7605 20.6901 8.83472 26.5337 5.81187 29.9026C5.1855 30.6005 4.36812 31.1011 3.55132 31.5382C3.00152 31.8388 2.63941 32.4399 2.63062 33.0675C2.61988 35.4036 2.61597 37.7397 2.63082 40.0757C2.648 40.9821 3.42535 41.7925 4.36539 41.8104C18.1211 41.8972 31.8777 41.8972 45.6334 41.8104C46.5386 41.7931 47.3502 41.0157 47.3679 40.0757C47.3828 37.7354 47.3994 35.3938 47.3675 33.0511C47.3519 32.369 46.9144 31.7458 46.2773 31.4563C46.0554 31.353 46.0447 31.3444 45.949 31.2933C42.2572 29.3187 41.1517 23.5401 44.1462 20.1417C44.7611 19.444 45.5197 18.9062 46.3757 18.4972C46.967 18.2081 47.3591 17.5845 47.3681 16.9312C47.3789 14.595 47.3828 12.2589 47.3679 9.92295C47.3507 9.0165 46.5734 8.20615 45.6334 8.18818C31.8865 8.10127 18.1392 8.18818 4.39214 8.18818Z" fill="black"/>
<path d="M25.1057 11.8135C25.5645 11.8756 25.9486 12.175 26.115 12.6186L28.7229 20.6444H37.1617C37.1617 20.6444 37.9793 20.7473 38.2393 21.3557C38.4457 21.8383 38.2721 22.4282 37.8506 22.7643L31.0234 27.7246L33.6311 35.7504C33.6311 35.7504 33.7639 36.5038 33.3637 36.9223C32.9764 37.3274 32.3072 37.3772 31.8277 37.0606L25.0006 32.1004L18.1734 37.0606C18.1734 37.0606 17.6699 37.3793 17.1729 37.2422C16.5674 37.075 16.1975 36.376 16.3701 35.7504L18.9777 27.7246L12.1506 22.7643C12.1506 22.7643 11.5965 22.2616 11.6781 21.659C11.7441 21.1725 12.1457 20.7512 12.6303 20.6631C12.7223 20.6465 12.7463 20.6485 12.8395 20.6444H21.2783L23.8861 12.6186C23.8861 12.6186 24.3443 11.7793 25.1057 11.8135ZM23.2443 22.1784C23.0682 22.6477 22.6371 22.9653 22.1297 22.9881H16.4461L21.0443 26.3289C21.0443 26.3289 21.6565 26.9633 21.4699 27.6391L19.7137 33.0446L24.3117 29.7038C24.3117 29.7038 25.1043 29.3176 25.6895 29.7038L30.2875 33.0446L28.5313 27.6391C28.5313 27.6391 28.4088 26.7659 28.9568 26.3289L33.5551 22.9881H27.8715C27.8715 22.9881 27.0033 22.8346 26.7568 22.1784L25.0006 16.7729C24.4152 18.5748 23.8297 20.3766 23.2443 22.1784Z" fill="black"/>
<path d="M40.045 10.725C40.1324 10.6681 40.2439 10.6643 40.3409 10.7184L42.0273 11.7561L43.4576 10.5063C43.4576 10.5063 43.6121 10.4034 43.7505 10.4729C43.8603 10.5279 43.9223 10.6583 43.903 10.7804L43.515 12.6716L45.2013 13.7094C45.2013 13.7094 45.3406 13.8234 45.3377 13.9569C45.3348 14.0862 45.2291 14.1941 45.0988 14.209L43.1726 14.3401L42.7845 16.2313C42.7845 16.2313 42.7486 16.3625 42.6431 16.4118C42.5145 16.4718 42.3434 16.4025 42.2757 16.266L41.4733 14.4557L39.5471 14.5868C39.5471 14.5868 39.3752 14.5797 39.2956 14.4607C39.2314 14.3646 39.2341 14.2304 39.3026 14.143C39.3156 14.1264 39.32 14.1232 39.3352 14.1086L40.7655 12.8588L39.9631 11.0485C39.9631 11.0485 39.9106 10.8317 40.045 10.725ZM41.3365 12.8397C41.3794 12.9491 41.3556 13.0693 41.2732 13.1485L40.3098 13.9903L41.6072 13.902C41.6072 13.902 41.8093 13.9239 41.8825 14.0714L42.4229 15.2906L42.6842 14.0169C42.6842 14.0169 42.7587 13.831 42.9177 13.8128L44.2151 13.7245L43.0793 13.0256C43.0793 13.0256 42.9231 12.8888 42.9483 12.7301L43.2097 11.4563L42.2464 12.2981C42.2464 12.2981 42.0754 12.3994 41.9319 12.3195L40.7961 11.6205C40.9763 12.027 41.1564 12.4334 41.3365 12.8397Z" fill="black"/>
</svg>
