<svg width="50" height="50" viewBox="0 0 50 50" fill="none" xmlns="http://www.w3.org/2000/svg">
<g clip-path="url(#clip0_1140_26)">
<path d="M0.833336 38.3332H1.66667V9.99984C1.66667 9.53984 2.03917 9.1665 2.5 9.1665H34.1667C34.6275 9.1665 35 9.53984 35 9.99984V13.3332H43.3333C43.6608 13.3332 43.9567 13.524 44.0917 13.8215L48.2583 22.9882C48.3083 23.0965 48.3333 23.214 48.3333 23.3332V26.6665V31.6665C48.7942 31.6665 49.1667 32.0398 49.1667 32.4998C49.1667 32.9598 48.7942 33.3332 48.3333 33.3332V34.9998C48.7942 34.9998 49.1667 35.3732 49.1667 35.8332C49.1667 36.2932 48.7942 36.6665 48.3333 36.6665V38.3332H49.1667C49.6275 38.3332 50 38.7065 50 39.1665V40.8332C50 42.2115 48.8783 43.3332 47.5 43.3332V44.1665C47.5 47.3832 44.8825 49.9998 41.6667 49.9998C38.4508 49.9998 35.8333 47.3832 35.8333 44.1665V43.3332H31.6667V44.9998C31.6667 46.3782 30.545 47.4998 29.1667 47.4998H20.8333C19.455 47.4998 18.3333 46.3782 18.3333 44.9998V43.3332H14.1667V44.1665C14.1667 47.3832 11.5492 49.9998 8.33334 49.9998C5.1175 49.9998 2.5 47.3832 2.5 44.1665V43.3332C1.12167 43.3332 0 42.2115 0 40.8332V39.1665C0 38.7065 0.372501 38.3332 0.833336 38.3332ZM33.3333 26.6665V14.1665V10.8332H3.33334V38.3332H33.3333V26.6665ZM46.6667 23.514L42.7967 14.9998H35V25.8332H42.8183L41.985 24.1665H40.8333C40.3725 24.1665 40 23.7932 40 23.3332C40 22.8732 40.3725 22.4998 40.8333 22.4998H42.5C42.8158 22.4998 43.1042 22.6782 43.2458 22.9607L44.6817 25.8332H46.6667V23.514ZM46.6667 36.6665H45.8333C45.3725 36.6665 45 36.2932 45 35.8332C45 35.3732 45.3725 34.9998 45.8333 34.9998H46.6667V33.3332H45.8333C45.3725 33.3332 45 32.9598 45 32.4998C45 32.0398 45.3725 31.6665 45.8333 31.6665H46.6667V27.4998H35V38.3332H46.6667V36.6665ZM37.5 44.1665C37.5 46.464 39.3692 48.3332 41.6667 48.3332C43.9642 48.3332 45.8333 46.464 45.8333 44.1665V43.3332H43.1025C43.245 43.579 43.3333 43.8615 43.3333 44.1665C43.3333 45.0873 42.5875 45.8332 41.6667 45.8332C40.7458 45.8332 40 45.0873 40 44.1665C40 43.8615 40.0883 43.579 40.2308 43.3332H37.5V44.1665ZM20 44.9998C20 45.459 20.3733 45.8332 20.8333 45.8332H29.1667C29.6267 45.8332 30 45.459 30 44.9998V43.3332H25.8333C25.8333 43.7932 25.4608 44.1665 25 44.1665C24.5392 44.1665 24.1667 43.7932 24.1667 43.3332H20V44.9998ZM4.16667 44.1665C4.16667 46.464 6.03584 48.3332 8.33334 48.3332C10.6308 48.3332 12.5 46.464 12.5 44.1665V43.3332H9.76917C9.91167 43.579 10 43.8615 10 44.1665C10 45.0873 9.25417 45.8332 8.33334 45.8332C7.4125 45.8332 6.66667 45.0873 6.66667 44.1665C6.66667 43.8615 6.755 43.579 6.8975 43.3332H4.16667V44.1665ZM1.66667 40.8332C1.66667 41.2923 2.04 41.6665 2.5 41.6665H3.33334H13.3333H19.1667H30.8333H36.6667H46.6667H47.5C47.96 41.6665 48.3333 41.2923 48.3333 40.8332V39.9998H47.5H34.1667H2.5H1.66667V40.8332Z" fill="#ABABAB"/>
<path d="M8.33331 13.3335H28.3333C29.7116 13.3335 30.8333 14.4552 30.8333 15.8335V18.3335V21.6668V25.0002V28.3335V33.3335C30.8333 34.7118 29.7116 35.8335 28.3333 35.8335H8.33331C6.95498 35.8335 5.83331 34.7118 5.83331 33.3335V28.3335V25.0002V21.6668V18.3335V15.8335C5.83331 14.4552 6.95498 13.3335 8.33331 13.3335ZM7.49998 33.3335C7.49998 33.7927 7.87331 34.1668 8.33331 34.1668H28.3333C28.7933 34.1668 29.1666 33.7927 29.1666 33.3335V29.1668H7.49998V33.3335ZM7.49998 27.5002H29.1666V25.8335H7.49998V27.5002ZM7.49998 24.1668H29.1666V22.5002H7.49998V24.1668ZM7.49998 20.8335H29.1666V19.1668H7.49998V20.8335ZM7.49998 17.5002H29.1666V15.8335C29.1666 15.3743 28.7933 15.0002 28.3333 15.0002H8.33331C7.87331 15.0002 7.49998 15.3743 7.49998 15.8335V17.5002Z" fill="#ABABAB"/>
<path d="M20 32.5002H16.6666C16.2058 32.5002 15.8333 32.1268 15.8333 31.6668C15.8333 31.2068 16.2058 30.8335 16.6666 30.8335H20C20.4608 30.8335 20.8333 31.2068 20.8333 31.6668C20.8333 32.1268 20.4608 32.5002 20 32.5002Z" fill="#ABABAB"/>
<path d="M37.5 29.1665C37.9608 29.1665 38.3333 29.5398 38.3333 29.9998V31.6665C38.3333 32.1265 37.9608 32.4998 37.5 32.4998C37.0391 32.4998 36.6666 32.1265 36.6666 31.6665V29.9998C36.6666 29.5398 37.0391 29.1665 37.5 29.1665Z" fill="#ABABAB"/>
<path d="M49.1667 9.16667H45C44.5392 9.16667 44.1667 8.79333 44.1667 8.33333C44.1667 7.87333 44.5392 7.5 45 7.5H49.1667C49.6275 7.5 50 7.87333 50 8.33333C50 8.79333 49.6275 9.16667 49.1667 9.16667Z" fill="#ABABAB"/>
<path d="M41.6667 9.16667H40C39.5392 9.16667 39.1667 8.79333 39.1667 8.33333C39.1667 7.87333 39.5392 7.5 40 7.5H41.6667C42.1275 7.5 42.5 7.87333 42.5 8.33333C42.5 8.79333 42.1275 9.16667 41.6667 9.16667Z" fill="#ABABAB"/>
<path d="M30 1.66667H25.8333C25.3725 1.66667 25 1.29333 25 0.833333C25 0.373333 25.3725 0 25.8333 0H30C30.4608 0 30.8333 0.373333 30.8333 0.833333C30.8333 1.29333 30.4608 1.66667 30 1.66667Z" fill="#ABABAB"/>
<path d="M22.5 1.66667H20.8333C20.3725 1.66667 20 1.29333 20 0.833333C20 0.373333 20.3725 0 20.8333 0H22.5C22.9608 0 23.3333 0.373333 23.3333 0.833333C23.3333 1.29333 22.9608 1.66667 22.5 1.66667Z" fill="#ABABAB"/>
<path d="M9.99998 5.00016H5.83331C5.37248 5.00016 4.99998 4.62683 4.99998 4.16683C4.99998 3.70683 5.37248 3.3335 5.83331 3.3335H9.99998C10.4608 3.3335 10.8333 3.70683 10.8333 4.16683C10.8333 4.62683 10.4608 5.00016 9.99998 5.00016Z" fill="#ABABAB"/>
<path d="M2.49998 5.00016H0.833313C0.37248 5.00016 -2.00272e-05 4.62683 -2.00272e-05 4.16683C-2.00272e-05 3.70683 0.37248 3.3335 0.833313 3.3335H2.49998C2.96081 3.3335 3.33331 3.70683 3.33331 4.16683C3.33331 4.62683 2.96081 5.00016 2.49998 5.00016Z" fill="#ABABAB"/>
</g>
<defs>
<clipPath id="clip0_1140_26">
<rect width="50" height="50" fill="white" transform="matrix(-1 0 0 1 50 0)"/>
</clipPath>
</defs>
</svg>
