<svg width="32" height="32" viewBox="0 0 32 32" fill="none" xmlns="http://www.w3.org/2000/svg">
<g clip-path="url(#clip0_1510_139)">
<path d="M31.8349 9.23335L27.4639 0.875352C27.2089 0.388352 26.5489 -0.0106484 25.9999 -0.0106484H15.9399C15.9289 -0.0116484 15.9179 -0.0136484 15.9069 -0.0146484C15.8979 -0.0146484 15.8889 -0.0116484 15.8799 -0.0106484H5.99988C5.44988 -0.0106484 4.78888 0.387352 4.52988 0.872352L0.170877 9.06935C-0.0881229 9.55535 -0.0361229 10.3174 0.283877 10.7654L15.2849 31.6764C15.4459 31.9004 15.6599 32.0144 15.8729 32.0144C16.0849 32.0144 16.2969 31.9044 16.4599 31.6834L31.7069 10.9254C32.0319 10.4814 32.0899 9.72135 31.8349 9.23435V9.23335ZM29.4489 8.98835H24.0909L26.2369 2.84435L29.4489 8.98835ZM17.9789 1.99035H24.4149L22.4179 7.70635L17.9789 1.99035ZM20.8819 8.98835H11.5809L15.9769 2.67235L20.8819 8.98835ZM9.80888 8.03435L7.80288 1.99035H14.0159L9.80888 8.03435ZM21.2729 10.9884L15.8969 26.3804L10.7889 10.9884H21.2729ZM13.6539 25.9714L2.90588 10.9884H8.68188L13.6539 25.9714ZM23.3919 10.9884H29.1789L18.1489 26.0064L23.3919 10.9884ZM5.88988 2.57535L8.01788 8.98835H2.47888L5.88988 2.57535Z" fill="#32BCAD"/>
</g>
<defs>
<clipPath id="clip0_1510_139">
<rect width="32" height="32" fill="white"/>
</clipPath>
</defs>
</svg>
