<svg width="383" height="383" viewBox="0 0 383 383" fill="none" xmlns="http://www.w3.org/2000/svg">
<g clip-path="url(#clip0_1465_49)">
<path d="M383 292.916H0V293.108H383V292.916Z" fill="#EBEBEB"/>
<path d="M344.624 305.246H328.018V305.438H344.624V305.246Z" fill="#EBEBEB"/>
<path d="M264.014 301.271H237.887V301.463H264.014V301.271Z" fill="#EBEBEB"/>
<path d="M337.891 298.133H303.785V298.324H337.891V298.133Z" fill="#EBEBEB"/>
<path d="M132.53 301.995H123.998V302.187H132.53V301.995Z" fill="#EBEBEB"/>
<path d="M117.177 301.995H87.7715V302.187H117.177V301.995Z" fill="#EBEBEB"/>
<path d="M72.0054 298.761H50.791V298.952H72.0054V298.761Z" fill="#EBEBEB"/>
<path d="M181.552 258.754H33.638C31.2274 258.754 29.2656 256.793 29.2656 254.382V46.4651C29.2656 44.0545 31.2274 42.0928 33.638 42.0928H181.552C183.962 42.0928 185.923 44.0545 185.923 46.4651V254.382C185.923 256.793 183.962 258.754 181.552 258.754ZM33.638 42.285C31.3323 42.285 29.4571 44.1602 29.4571 46.4659V254.383C29.4571 256.688 31.3323 258.564 33.638 258.564H181.552C183.857 258.564 185.732 256.688 185.732 254.383V46.4651C185.732 44.1602 183.857 42.2843 181.552 42.2843L33.638 42.285Z" fill="#EBEBEB"/>
<path d="M347.236 258.754H199.323C196.912 258.754 194.951 256.793 194.951 254.382V46.4651C194.951 44.0545 196.913 42.0928 199.323 42.0928H347.236C349.647 42.0928 351.608 44.0545 351.608 46.4651V254.382C351.609 256.793 349.647 258.754 347.236 258.754ZM199.323 42.285C197.018 42.285 195.143 44.1602 195.143 46.4659V254.383C195.143 256.688 197.018 258.564 199.323 258.564H347.236C349.541 258.564 351.417 256.688 351.417 254.383V46.4651C351.417 44.1602 349.541 42.2843 347.236 42.2843L199.323 42.285Z" fill="#EBEBEB"/>
<path d="M337.774 120.585L340.313 118.214L339.299 116.215C340.075 115.314 340.763 114.346 341.361 113.349L343.581 113.684L345.018 110.511L343.311 109.059C343.68 107.937 343.947 106.786 344.116 105.624L346.301 105.077L346.413 101.599L344.278 100.91C344.182 99.733 344.001 98.5725 343.716 97.422L345.513 96.083L344.289 92.8252L342.059 93.0014C341.531 91.965 340.91 90.9646 340.198 90.001L341.353 88.0822L338.976 85.5367L336.982 86.557C336.068 85.7796 335.113 85.0925 334.116 84.4942L334.438 82.2743L331.272 80.8304L329.819 82.5378C328.691 82.1748 327.54 81.9082 326.378 81.7389L325.836 79.5612L322.358 79.4355L321.663 81.5773C320.493 81.6669 319.326 81.8538 318.181 82.1457L316.849 80.3433L313.585 81.5604L313.767 83.7972C312.731 84.3257 311.717 84.9462 310.766 85.6593L308.835 84.5034L306.296 86.8742L307.317 88.8803C306.534 89.7873 305.852 90.7494 305.254 91.7467L303.035 91.4112L301.596 94.5847L303.303 96.0371C302.934 97.1593 302.668 98.3106 302.498 99.4718L300.314 100.019L300.201 103.498L302.337 104.187C302.426 105.357 302.613 106.524 302.897 107.675L301.095 109.007L302.319 112.265L304.556 112.095C305.084 113.131 305.705 114.131 306.418 115.096L305.263 117.015L307.64 119.56L309.633 118.539C310.546 119.316 311.502 120.004 312.499 120.602L312.171 122.815L315.337 124.259L316.796 122.558C317.925 122.921 319.07 123.181 320.237 123.356L320.779 125.534L324.257 125.66L324.952 123.518C326.123 123.428 327.289 123.242 328.434 122.95L329.766 124.753L333.031 123.536L332.848 121.299C333.884 120.77 334.891 120.157 335.849 119.438L337.774 120.585ZM319.684 105.931C317.817 103.931 317.924 100.794 319.924 98.9264C321.926 97.0566 325.063 97.1638 326.931 99.1646C328.798 101.165 328.691 104.301 326.689 106.171C324.689 108.039 321.552 107.931 319.684 105.931Z" fill="#EBEBEB"/>
<path d="M245.111 223.929L237.19 218.458C237.188 218.452 237.188 218.445 237.185 218.439C236.402 215.561 235.321 212.792 234 210.188L236.029 202.223L224.539 189.917L216.451 191.398C213.946 189.903 211.258 188.636 208.443 187.658C208.437 187.657 208.429 187.655 208.423 187.652L203.505 179.372L186.68 178.795L181.209 186.716C181.199 186.718 181.188 186.721 181.178 186.724C178.303 187.507 175.535 188.586 172.936 189.906L164.975 187.877L152.67 199.367L154.147 207.439C154.146 207.443 154.144 207.443 154.143 207.446C152.617 209.98 151.379 212.668 150.401 215.485L142.122 220.4L141.545 237.226L149.473 242.702C150.256 245.599 151.303 248.363 152.65 250.988C152.65 250.99 152.65 250.99 152.651 250.991L150.627 258.932L162.117 271.236L170.155 269.765C172.692 271.265 175.384 272.533 178.233 273.513C178.236 273.515 178.237 273.515 178.24 273.515L183.149 281.783L199.975 282.36L205.442 274.444C208.35 273.662 211.121 272.582 213.753 271.259C213.753 271.259 213.755 271.259 213.756 271.257L221.681 273.276L233.986 261.787L232.508 253.714C234.034 251.18 235.272 248.49 236.25 245.674L236.251 245.672L244.533 240.754L245.111 223.929ZM192.677 249.506C182.218 249.147 174.048 240.367 174.405 229.938C174.763 219.479 183.514 211.308 193.973 211.666C204.432 212.024 212.603 220.775 212.245 231.234C211.888 241.663 203.136 249.864 192.677 249.506Z" fill="#EBEBEB"/>
<path d="M263.159 176.144C263.141 176.144 263.122 176.144 263.104 176.143L249.839 175.689C249.288 175.671 248.785 175.372 248.504 174.899L244.932 168.884C243.033 168.195 241.162 167.327 239.353 166.297L233.603 167.348C233.061 167.451 232.506 167.265 232.13 166.861L223.071 157.161C222.695 156.758 222.55 156.191 222.686 155.658L224.132 149.981C223.253 148.184 222.518 146.263 221.942 144.259L216.173 140.276C215.72 139.963 215.457 139.44 215.476 138.89L215.93 125.625C215.948 125.074 216.247 124.571 216.72 124.29L222.746 120.712C223.46 118.755 224.327 116.893 225.327 115.16L224.271 109.39C224.172 108.848 224.355 108.292 224.758 107.917L234.459 98.8571C234.862 98.4803 235.429 98.3362 235.963 98.4718L241.658 99.9234C243.5 99.0272 245.415 98.2887 247.364 97.7242L251.345 91.9601C251.658 91.5066 252.172 91.2262 252.731 91.263L265.996 91.718C266.547 91.7364 267.05 92.0344 267.331 92.5085L270.91 98.5339C272.811 99.2302 274.668 100.097 276.446 101.117L282.232 100.057C282.776 99.9579 283.33 100.141 283.706 100.544L292.765 110.246C293.141 110.649 293.286 111.216 293.15 111.75L291.698 117.447C292.595 119.29 293.333 121.204 293.898 123.151L299.662 127.131C300.115 127.443 300.378 127.967 300.36 128.517L299.906 141.783C299.887 142.334 299.588 142.837 299.115 143.118L293.087 146.698C292.373 148.653 291.508 150.515 290.509 152.246L291.565 158.018C291.664 158.56 291.481 159.116 291.078 159.491L281.377 168.549C280.975 168.925 280.409 169.071 279.874 168.934L274.205 167.489C272.336 168.392 270.412 169.129 268.469 169.688L264.492 175.447C264.188 175.884 263.69 176.144 263.159 176.144ZM250.833 172.487L262.33 172.881L266.138 167.367C266.356 167.053 266.679 166.824 267.049 166.725C269.167 166.156 271.268 165.35 273.295 164.33C273.299 164.329 273.302 164.327 273.306 164.325C273.644 164.159 274.038 164.107 274.423 164.208L279.814 165.581L288.223 157.73L287.217 152.235C287.146 151.847 287.219 151.448 287.422 151.109C288.531 149.268 289.472 147.249 290.218 145.108C290.341 144.728 290.6 144.409 290.939 144.21L296.701 140.787L297.095 129.29L291.578 125.479C291.289 125.28 291.073 124.992 290.962 124.66C290.948 124.618 290.936 124.575 290.925 124.53C290.348 122.418 289.545 120.342 288.54 118.36C288.362 118.01 288.318 117.608 288.414 117.228L289.796 111.806L281.944 103.396L276.438 104.404C276.052 104.476 275.654 104.403 275.318 104.202C273.403 103.059 271.38 102.115 269.308 101.394C269.191 101.354 269.072 101.299 268.97 101.237C268.746 101.099 268.56 100.91 268.427 100.685L265.001 94.9176L253.504 94.5231L249.693 100.041C249.467 100.37 249.127 100.601 248.741 100.694C246.614 101.277 244.545 102.077 242.572 103.078C242.222 103.255 241.819 103.3 241.441 103.203L236.021 101.821L227.613 109.673L228.619 115.168C228.682 115.512 228.631 115.868 228.475 116.182C228.452 116.226 228.428 116.269 228.402 116.312C227.29 118.16 226.348 120.185 225.603 122.332C225.477 122.692 225.229 122.997 224.901 123.191L219.135 126.616L218.741 138.113L224.264 141.928C224.579 142.145 224.806 142.467 224.906 142.836C225.502 145.039 226.303 147.131 227.289 149.054C227.345 149.164 227.39 149.281 227.42 149.402C227.485 149.661 227.484 149.933 227.418 150.193L226.041 155.596L233.892 164.004L239.36 163.003C239.744 162.934 240.139 163.005 240.474 163.203C242.423 164.355 244.456 165.299 246.516 166.01C246.888 166.128 247.211 166.38 247.415 166.725L250.833 172.487ZM257.935 157.959C257.651 157.959 257.369 157.954 257.084 157.944C243.72 157.486 233.221 146.242 233.679 132.878C234.137 119.515 245.399 109.019 258.745 109.472C272.108 109.93 282.608 121.175 282.15 134.539C281.928 141.004 279.201 147.001 274.47 151.423C269.942 155.656 264.098 157.959 257.935 157.959ZM257.906 112.693C246.647 112.693 237.3 121.652 236.912 132.989C236.515 144.57 245.614 154.314 257.195 154.711C262.807 154.898 268.157 152.897 272.261 149.06C276.362 145.227 278.726 140.03 278.917 134.428C279.314 122.847 270.215 113.102 258.634 112.706C258.391 112.698 258.147 112.693 257.906 112.693Z" fill="#EBEBEB"/>
<path d="M293.715 80.6772L288.219 79.2019L286.744 73.7074L288.896 71.5557L291.165 76.2558L295.866 78.5263L293.715 80.6772Z" fill="#E0E0E0"/>
<path d="M294.056 76.9981C295.057 75.997 295.057 74.3654 294.056 73.3642C293.055 72.3631 291.431 72.3707 290.43 73.3719L293.163 69.2715L296.829 71.1244L297.632 74.9767L294.056 76.9981Z" fill="#E0E0E0"/>
<path d="M288.463 71.9888L292.49 67.9619L297.984 69.4372L299.46 74.9325L295.433 78.9594L289.938 77.4833L288.463 71.9888ZM295.774 75.281C296.776 74.2799 296.776 72.6483 295.774 71.6471C294.773 70.646 293.149 70.6536 292.148 71.6548C291.147 72.656 291.147 74.273 292.148 75.2734C293.149 76.2745 294.773 76.2822 295.774 75.281Z" fill="#F0F0F0"/>
<path d="M69.1094 227.278L72.0578 226.486L72.8498 223.537L71.6955 222.383L70.4775 224.905L67.9551 226.123L69.1094 227.278Z" fill="#E0E0E0"/>
<path d="M68.9274 225.304C68.3904 224.767 68.3904 223.892 68.9274 223.354C69.4644 222.817 70.3361 222.821 70.8731 223.358L69.4062 221.157L67.4391 222.151L67.0078 224.218L68.9274 225.304Z" fill="#E0E0E0"/>
<path d="M71.9286 222.616L69.7677 220.455L66.8194 221.247L66.0273 224.196L68.1882 226.357L71.1366 225.565L71.9286 222.616ZM68.0044 224.382C67.4674 223.845 67.4674 222.97 68.0044 222.432C68.5414 221.895 69.4131 221.899 69.95 222.436C70.487 222.973 70.487 223.841 69.95 224.378C69.4138 224.915 68.5421 224.919 68.0044 224.382Z" fill="#F0F0F0"/>
<path d="M58.4956 65.6164L60.9429 68.0638C61.5802 68.7011 62.6228 68.7011 63.2601 68.0638C63.8974 67.4265 63.8974 66.384 63.2601 65.7466L60.8127 63.2993C60.1754 62.662 59.1329 62.662 58.4956 63.2993C57.8583 63.9366 57.8583 64.9799 58.4956 65.6164Z" fill="#F0F0F0"/>
<path d="M56.7697 59.5214C58.6556 58.8443 60.7001 59.7298 61.3359 61.5C61.9716 63.2703 60.9582 65.2542 59.0723 65.9321C57.1864 66.6092 55.142 65.7237 54.5062 63.9535C53.8704 62.1833 54.8838 60.1994 56.7697 59.5214Z" fill="#E0E0E0"/>
<path d="M54.1043 63.5446L54.459 64.5322L61.7413 61.9167L61.3866 60.9291L54.1043 63.5446Z" fill="#F0F0F0"/>
<path d="M191.499 327.512C273.524 327.512 340.018 323.629 340.018 318.838C340.018 314.048 273.524 310.165 191.499 310.165C109.475 310.165 42.9805 314.048 42.9805 318.838C42.9805 323.629 109.475 327.512 191.499 327.512Z" fill="#F5F5F5"/>
<path d="M170.398 233.509C171.462 216.348 169.505 185.153 201.762 189.283C236.335 193.709 226.444 234.137 226.444 234.137L170.398 233.509Z" fill="#263238"/>
<path d="M192.659 223.193C200.433 223.193 206.734 216.892 206.734 209.118C206.734 201.345 200.433 195.043 192.659 195.043C184.886 195.043 178.584 201.345 178.584 209.118C178.584 216.892 184.886 223.193 192.659 223.193Z" fill="white"/>
<path d="M194.506 195.065C187.839 193.927 180.71 198.842 180.008 203.821L206.44 206.251C205.509 200.575 199.796 195.968 194.506 195.065Z" fill="#263238"/>
<path d="M203.43 208.769C203.241 212.449 201.235 215.336 198.95 215.219C196.665 215.102 194.966 212.023 195.155 208.344C195.344 204.664 197.349 201.776 199.634 201.893C201.919 202.01 203.619 205.089 203.43 208.769Z" fill="#263238"/>
<path d="M192.658 223.96C184.474 223.96 177.816 217.303 177.816 209.119C177.816 200.935 184.474 194.277 192.658 194.277C200.842 194.277 207.5 200.935 207.5 209.119C207.5 217.303 200.842 223.96 192.658 223.96ZM192.658 195.809C185.319 195.809 179.348 201.78 179.348 209.119C179.348 216.458 185.319 222.428 192.658 222.428C199.997 222.428 205.968 216.458 205.968 209.119C205.968 201.78 199.997 195.809 192.658 195.809Z" fill="#FE9D00"/>
<path opacity="0.3" d="M222.511 233.076C222.482 233.076 222.452 233.072 222.421 233.065C222.216 233.016 222.089 232.809 222.138 232.603C222.164 232.499 224.604 222.113 222.069 211.612C222.02 211.407 222.146 211.2 222.352 211.149C222.555 211.103 222.764 211.226 222.814 211.432C225.394 222.118 222.909 232.676 222.883 232.782C222.841 232.959 222.685 233.076 222.511 233.076Z" fill="white"/>
<path opacity="0.3" d="M220.376 205.87C220.23 205.87 220.092 205.787 220.027 205.646C219.042 203.497 217.821 201.524 216.395 199.781C216.261 199.617 216.286 199.377 216.449 199.243C216.613 199.108 216.854 199.132 216.989 199.296C218.455 201.089 219.712 203.119 220.724 205.328C220.812 205.52 220.728 205.748 220.535 205.835C220.483 205.859 220.43 205.87 220.376 205.87Z" fill="white"/>
<path d="M98.6115 313.997C98.5165 313.997 98.4215 313.996 98.3265 313.993C96.2124 313.935 94.5456 312.174 94.603 310.059C94.6605 307.945 96.4023 306.31 98.5364 306.336C98.5602 306.337 98.5847 306.337 98.61 306.337C100.823 306.337 106.147 303.648 117.283 286.092C117.882 285.15 118.862 284.514 119.967 284.353C121.074 284.196 122.192 284.524 123.035 285.257C136.777 297.239 151.341 304.698 151.487 304.772C153.372 305.73 154.125 308.035 153.168 309.921C152.21 311.806 149.906 312.561 148.021 311.603C147.442 311.309 134.712 304.801 121.366 293.873C112.031 307.905 105.104 313.997 98.6115 313.997Z" fill="#263238"/>
<path d="M122.307 284.57C122.198 284.57 122.09 284.562 121.979 284.547C120.723 284.367 119.85 283.203 120.03 281.946C120.574 278.134 119.9 263.849 115.07 252.742C114.63 251.73 114.971 250.548 115.883 249.926C126.376 242.775 148.726 241.92 149.673 241.887C150.935 241.86 152.005 242.836 152.049 244.104C152.094 245.372 151.101 246.437 149.833 246.48C149.627 246.488 130.086 247.237 120.045 252.763C124.322 263.822 125.292 277.61 124.579 282.596C124.415 283.743 123.432 284.57 122.307 284.57Z" fill="#263238"/>
<path d="M126.168 281.594C124.64 277.989 117.751 278.399 113.707 281.488C111.545 283.139 108.62 288.107 108.312 289.907C108.005 291.708 109.252 293.339 111.393 293.153C114.035 292.925 117.66 289.087 117.66 289.087C115.248 291.452 118.36 293.121 123.004 289.7C125.581 287.803 127.879 285.631 126.168 281.594Z" fill="#FE9D00"/>
<path d="M257.916 234.52C257.882 234.52 257.846 234.515 257.81 234.505C257.607 234.447 257.489 234.234 257.548 234.031C258.569 230.477 259.683 228.306 261.149 227.098C260.924 226.335 260.949 225.459 261.266 224.602C261.574 223.768 262.169 222.939 263.075 222.3C262.632 221.821 262.466 221.193 262.623 220.475C262.797 219.678 263.377 218.813 264.259 218.058C263.912 217.659 263.827 217.225 263.825 216.903C263.806 214.619 268.043 211.139 272.835 210.485C273.045 210.445 273.238 210.602 273.266 210.812C273.294 211.021 273.148 211.215 272.938 211.244C268.39 211.865 264.576 215.157 264.591 216.897C264.593 217.179 264.697 217.405 264.868 217.588C266.593 216.388 269.138 215.616 271.978 216.161C274.329 216.611 275.285 217.107 275.175 217.821C274.966 219.164 269.959 219.441 266.603 219.042C265.843 218.952 265.286 218.772 264.88 218.547C264.046 219.23 263.511 219.996 263.372 220.639C263.247 221.212 263.432 221.612 263.751 221.892C265.172 221.159 267.174 220.852 269.814 221.436C273.29 222.203 273.419 222.626 273.497 222.878C273.552 223.058 273.508 223.244 273.374 223.386C272.642 224.161 267.318 223.793 264.643 223.138C264.295 223.053 263.987 222.937 263.722 222.793C262.835 223.351 262.265 224.105 261.984 224.867C261.759 225.478 261.708 226.087 261.811 226.631C261.949 226.549 262.09 226.474 262.234 226.405C263.819 225.653 265.735 225.779 268.097 226.789C269.663 227.46 270.419 228.053 270.474 228.657C270.491 228.836 270.455 229.178 270.037 229.455C268.869 230.231 264.775 230.113 262.647 228.98C262.145 228.712 261.748 228.318 261.469 227.842C260.216 228.986 259.207 231.033 258.285 234.242C258.235 234.411 258.082 234.52 257.916 234.52ZM262.072 227.373C262.283 227.765 262.598 228.088 263.005 228.305C264.734 229.225 268.135 229.435 269.411 228.921C269.671 228.815 269.71 228.727 269.71 228.727C269.71 228.725 269.668 228.296 267.794 227.494C265.647 226.576 263.935 226.447 262.562 227.098C262.395 227.177 262.231 227.268 262.072 227.373ZM264.625 222.341C264.691 222.361 264.758 222.379 264.823 222.395C267.528 223.057 271.179 223.17 272.432 222.964C272.044 222.8 271.252 222.538 269.647 222.184C267.523 221.716 265.863 221.863 264.625 222.341ZM265.592 218.035C265.938 218.164 266.328 218.24 266.693 218.282C270.51 218.734 273.88 218.2 274.384 217.725C274.253 217.607 273.739 217.279 271.834 216.914C269.319 216.436 267.122 217.066 265.592 218.035Z" fill="#263238"/>
<path d="M158.199 312.718C158.704 312.556 158.534 312.069 157.971 312.069H147.6C127.852 309.978 114.054 312.781 122.749 313.442C131.443 314.103 122.137 313.964 115.788 316.366C109.438 318.768 163.015 319.373 167.887 316.366C172.38 313.592 151.201 314.961 158.199 312.718Z" fill="#263238"/>
<path d="M232.456 315.774L142.22 312.783L138.475 225.289L245.034 227.672L232.456 315.774Z" fill="#FE9D00"/>
<path d="M170.397 314.1C170.2 314.1 170.032 313.95 170.016 313.749L162.783 225.873C162.765 225.662 162.922 225.477 163.133 225.46C163.35 225.447 163.529 225.599 163.546 225.81L170.78 313.686C170.796 313.897 170.64 314.082 170.429 314.099C170.418 314.1 170.407 314.1 170.397 314.1Z" fill="#263238"/>
<path d="M232.457 315.774L256.71 312.082L264.349 230.725L245.035 227.672L232.457 315.774Z" fill="#FE9D00"/>
<path opacity="0.2" d="M232.457 315.774L256.71 312.082L264.349 230.725L245.035 227.672L232.457 315.774Z" fill="black"/>
<path d="M149.932 295.919L147.708 243.937C147.476 238.511 151.878 234.018 157.308 234.14L224.761 235.648C230.394 235.774 234.651 240.794 233.854 246.372L226.375 298.76C225.698 303.508 221.553 306.984 216.761 306.824L159.011 304.91C154.099 304.747 150.143 300.828 149.932 295.919Z" fill="#263238"/>
<path d="M157.219 250.09L167.655 250.422L167.569 253.113L161.036 252.906L160.972 254.909L167.033 255.102L166.951 257.672L160.89 257.479L160.812 259.963L167.534 260.177L167.444 263.031L156.818 262.693L157.219 250.09Z" fill="white"/>
<path d="M169.592 263.099L169.992 250.497L176.483 250.704C177.686 250.742 178.603 250.875 179.232 251.101C179.862 251.328 180.362 251.726 180.734 252.298C181.106 252.869 181.279 253.556 181.253 254.358C181.231 255.058 181.063 255.656 180.749 256.154C180.435 256.652 180.011 257.05 179.479 257.348C179.141 257.538 178.68 257.69 178.096 257.803C178.555 257.973 178.888 258.139 179.095 258.3C179.234 258.408 179.435 258.635 179.696 258.982C179.957 259.329 180.131 259.596 180.217 259.783L181.986 263.495L177.587 263.354L175.628 259.437C175.38 258.931 175.155 258.599 174.954 258.444C174.679 258.24 174.364 258.132 174.009 258.12L173.665 258.11L173.502 263.225L169.592 263.099ZM173.742 255.728L175.384 255.78C175.561 255.786 175.907 255.74 176.421 255.642C176.68 255.598 176.895 255.473 177.065 255.266C177.235 255.059 177.325 254.818 177.333 254.543C177.346 254.136 177.227 253.82 176.976 253.594C176.725 253.368 176.245 253.244 175.534 253.221L173.823 253.167L173.742 255.728Z" fill="white"/>
<path d="M183.285 263.535L183.686 250.933L190.176 251.139C191.379 251.178 192.296 251.31 192.925 251.537C193.555 251.764 194.055 252.162 194.427 252.733C194.8 253.305 194.973 253.992 194.947 254.794C194.925 255.493 194.756 256.092 194.442 256.59C194.127 257.087 193.704 257.486 193.173 257.784C192.834 257.974 192.373 258.125 191.789 258.239C192.248 258.409 192.581 258.574 192.788 258.735C192.928 258.843 193.128 259.071 193.39 259.418C193.651 259.765 193.825 260.031 193.911 260.218L195.681 263.93L191.28 263.79L189.321 259.873C189.074 259.366 188.849 259.035 188.647 258.879C188.372 258.675 188.057 258.567 187.702 258.556L187.358 258.545L187.196 263.66L183.285 263.535ZM187.435 256.164L189.077 256.216C189.255 256.221 189.6 256.175 190.114 256.076C190.374 256.033 190.588 255.908 190.758 255.701C190.928 255.494 191.018 255.253 191.026 254.978C191.039 254.571 190.921 254.255 190.669 254.029C190.418 253.803 189.937 253.679 189.227 253.656L187.517 253.601L187.435 256.164Z" fill="white"/>
<path d="M196.338 257.651C196.403 255.593 197.027 254.01 198.21 252.9C199.392 251.791 201.006 251.268 203.052 251.334C205.15 251.4 206.748 252.015 207.847 253.177C208.946 254.339 209.463 255.934 209.399 257.963C209.352 259.436 209.065 260.637 208.54 261.563C208.014 262.49 207.274 263.201 206.321 263.696C205.367 264.191 204.191 264.415 202.793 264.371C201.372 264.326 200.203 264.062 199.286 263.58C198.369 263.097 197.637 262.357 197.089 261.358C196.541 260.359 196.291 259.124 196.338 257.651ZM200.231 257.792C200.191 259.064 200.398 259.986 200.853 260.556C201.308 261.127 201.942 261.426 202.757 261.452C203.593 261.478 204.25 261.226 204.725 260.697C205.201 260.167 205.461 259.197 205.507 257.787C205.544 256.601 205.333 255.727 204.872 255.164C204.41 254.601 203.77 254.307 202.95 254.281C202.165 254.256 201.526 254.514 201.032 255.055C200.539 255.596 200.272 256.508 200.231 257.792Z" fill="white"/>
<path d="M211.344 264.427L211.744 251.825L218.235 252.032C219.438 252.07 220.355 252.203 220.984 252.43C221.614 252.656 222.114 253.055 222.486 253.626C222.858 254.198 223.031 254.885 223.005 255.687C222.983 256.386 222.815 256.984 222.501 257.482C222.186 257.98 221.763 258.378 221.231 258.676C220.892 258.866 220.431 259.018 219.848 259.131C220.307 259.301 220.64 259.467 220.847 259.628C220.986 259.736 221.187 259.963 221.448 260.31C221.709 260.657 221.883 260.924 221.969 261.111L223.738 264.823L219.338 264.683L217.38 260.765C217.132 260.259 216.907 259.927 216.706 259.772C216.431 259.568 216.116 259.46 215.76 259.448L215.417 259.438L215.254 264.552L211.344 264.427ZM215.494 257.056L217.135 257.108C217.313 257.114 217.659 257.068 218.173 256.969C218.432 256.925 218.647 256.8 218.817 256.594C218.987 256.387 219.077 256.145 219.085 255.87C219.098 255.464 218.979 255.147 218.728 254.921C218.477 254.695 217.996 254.571 217.286 254.548L215.575 254.494L215.494 257.056Z" fill="white"/>
<path d="M217.542 285.839C217.269 285.839 216.998 285.729 216.799 285.512L210.241 278.335L203.166 284.8C202.756 285.175 202.12 285.145 201.746 284.736L195.188 277.559L188.112 284.024C187.702 284.398 187.066 284.369 186.692 283.96L180.134 276.783L173.059 283.248C172.863 283.428 172.598 283.523 172.336 283.511C172.069 283.499 171.819 283.382 171.639 283.185L165.081 276.008L158.005 282.472C157.596 282.847 156.96 282.817 156.585 282.409C156.211 281.999 156.24 281.363 156.65 280.988L164.467 273.845C164.876 273.469 165.512 273.499 165.888 273.909L172.445 281.085L179.521 274.62C179.717 274.44 179.981 274.347 180.244 274.357C180.511 274.37 180.761 274.487 180.941 274.684L187.499 281.86L194.574 275.396C194.983 275.021 195.62 275.05 195.994 275.46L202.552 282.636L209.628 276.172C210.038 275.796 210.673 275.825 211.049 276.236L218.284 284.155C218.659 284.564 218.63 285.201 218.22 285.576C218.027 285.752 217.784 285.839 217.542 285.839Z" fill="white"/>
<path d="M96.3241 317.635L91.5305 315.348L87.2539 294.539L89.5749 291.982L96.3241 317.635Z" fill="#FE9D00"/>
<path d="M96.3234 317.635L102.685 313.918L97.2312 296.773L89.5742 291.982L96.3234 317.635Z" fill="#FE9D00"/>
<path opacity="0.2" d="M96.3234 317.635L102.685 313.918L97.2312 296.773L89.5742 291.982L96.3234 317.635Z" fill="black"/>
<path d="M200.653 321.418C200.472 321.418 200.295 321.414 200.123 321.41C198.009 321.352 196.342 319.591 196.4 317.476C196.458 315.362 198.205 313.7 200.333 313.753C206.234 313.946 218.722 310.321 225.856 303.396C226.297 302.968 226.834 302.652 227.423 302.476C239.517 298.847 244.018 306.179 244.204 306.493L237.611 310.392C237.611 310.392 237.636 310.445 237.699 310.532C237.625 310.431 235.913 308.204 230.459 309.582C221.506 317.754 207.764 321.418 200.653 321.418Z" fill="#263238"/>
<path d="M200.228 326.51L186.277 325.63L185.176 299.911L203.925 300.612L200.228 326.51Z" fill="#FE9D00"/>
<path d="M200.229 326.51L203.489 323.264L205.511 307.227L203.926 300.612L200.229 326.51Z" fill="#FE9D00"/>
<path opacity="0.2" d="M200.229 326.51L203.489 323.264L205.511 307.227L203.926 300.612L200.229 326.51Z" fill="black"/>
<path d="M281.053 316.769C280.569 316.769 280.08 316.617 279.664 316.301C271.702 310.25 260.939 299.506 256.809 289.141C256.749 288.99 256.705 288.833 256.678 288.672C254.664 276.697 252.74 251.489 252.659 250.421C252.563 249.157 253.511 248.052 254.776 247.956C256.038 247.864 257.145 248.808 257.241 250.074C257.261 250.332 259.204 275.786 261.169 287.664C265.289 297.742 276.456 308.091 282.445 312.641C283.455 313.41 283.652 314.851 282.884 315.862C282.433 316.457 281.747 316.769 281.053 316.769Z" fill="#263238"/>
<path d="M291.675 317.93C289.898 317.93 287.884 317.125 285.689 315.537C284.661 314.792 284.431 313.356 285.175 312.328C285.92 311.3 287.356 311.069 288.384 311.813C290.281 313.187 291.318 313.334 291.675 313.334C292.945 313.334 293.973 314.363 293.973 315.632C293.973 316.902 292.944 317.93 291.675 317.93Z" fill="#263238"/>
<path d="M286.333 315.471C288.792 308.168 298.872 309.611 302.344 310.695C305.815 311.78 308.943 313.145 310.823 314.374C312.704 315.604 312.734 317.657 310.227 318.829C307.135 320.276 299.379 318.993 299.379 318.993C303.394 320.751 299.372 323.567 292.328 320.8C290.035 319.9 285.465 318.148 286.333 315.471Z" fill="#FE9D00"/>
<path d="M261.866 253.574C260.953 259.78 255.814 264.356 251.634 263.741C247.453 263.127 247.279 257.584 248.191 251.378C249.103 245.172 250.756 240.653 254.937 241.268C259.118 241.883 262.778 247.368 261.866 253.574Z" fill="#263238"/>
<path d="M160.764 228.8C161.111 228.8 161.391 228.519 161.391 228.172C161.391 227.826 161.111 227.545 160.764 227.545C160.418 227.545 160.137 227.826 160.137 228.172C160.137 228.519 160.418 228.8 160.764 228.8Z" fill="#263238"/>
<path d="M167.146 232.695C167.146 233.041 166.865 233.322 166.519 233.322C166.173 233.322 165.891 233.041 165.891 232.695C165.891 232.348 166.172 232.067 166.519 232.067C166.866 232.067 167.146 232.348 167.146 232.695Z" fill="#263238"/>
<path d="M167.849 306.923C167.849 307.27 167.568 307.551 167.222 307.551C166.875 307.551 166.594 307.269 166.594 306.923C166.594 306.576 166.875 306.296 167.222 306.296C167.568 306.295 167.849 306.576 167.849 306.923Z" fill="#263238"/>
<path d="M173.605 311.445C173.605 311.792 173.324 312.072 172.977 312.072C172.631 312.072 172.35 311.791 172.35 311.445C172.35 311.098 172.631 310.817 172.977 310.817C173.324 310.817 173.605 311.098 173.605 311.445Z" fill="#263238"/>
<path d="M63.2028 318.977C61.3798 318.977 58.9148 317.872 57.5858 315.952C57.4655 315.778 57.5084 315.54 57.6823 315.419C57.8562 315.298 58.0944 315.342 58.2154 315.517C59.6448 317.58 62.7953 318.681 64.194 318.029C64.3411 317.96 64.4606 317.874 64.5518 317.77C63.3017 317.192 62.1588 316.061 61.8509 314.336C61.677 313.366 61.5391 312.054 62.3403 311.872C63.4388 311.625 64.8758 314.282 65.4288 316.296C65.5315 316.668 65.5637 317.014 65.5284 317.325C66.0125 317.457 66.489 317.492 66.8973 317.433C67.2289 317.384 67.7 317.248 67.9505 316.862C67.0198 316.233 66.394 315.124 66.1849 313.653C65.8877 311.559 66.1106 311.193 66.3427 311.015C66.4936 310.899 66.6851 310.877 66.8697 310.955C67.6885 311.304 68.6813 314.275 68.8712 315.956C68.8919 316.142 68.8919 316.32 68.8735 316.487C69.1868 316.612 69.5323 316.68 69.9069 316.688C70.571 316.726 71.2275 316.515 71.7529 316.206C71.6442 316.138 71.5415 316.062 71.445 315.98C70.6499 315.301 70.3297 314.215 70.4645 312.663C70.5687 311.462 70.8422 310.806 71.3247 310.6C71.494 310.525 71.8387 310.455 72.2501 310.783C73.0773 311.444 73.8495 313.539 73.5722 315.04C73.5147 315.35 73.3807 315.648 73.1877 315.921C74.5933 316.163 76.5711 315.769 78.277 315.347C78.4815 315.298 78.6898 315.422 78.7404 315.627C78.7909 315.833 78.6661 316.04 78.4608 316.091C76.3849 316.604 74.1505 317.021 72.5718 316.563C71.8701 317.122 70.882 317.46 69.8923 317.453C69.4411 317.444 69.0206 317.364 68.6368 317.217C68.335 317.731 67.7736 318.079 67.0099 318.191C66.5012 318.267 65.9022 318.218 65.2956 318.045C65.1232 318.332 64.8628 318.562 64.5196 318.723C64.1519 318.893 63.7015 318.976 63.2028 318.977ZM62.541 312.637C62.4966 312.754 62.4162 313.141 62.6061 314.202C62.8581 315.612 63.7704 316.549 64.7808 317.043C64.7762 316.879 64.7463 316.699 64.6919 316.5C64.0899 314.31 62.9462 312.801 62.541 312.637ZM66.8084 311.969C66.8038 312.257 66.8299 312.741 66.944 313.546C67.0995 314.64 67.5024 315.479 68.1075 316.015C67.9283 314.476 67.2458 312.695 66.8084 311.969ZM71.6273 311.303H71.6258C71.6242 311.304 71.3385 311.449 71.2267 312.728C71.1149 314.017 71.3493 314.89 71.9421 315.397C72.077 315.511 72.2302 315.608 72.401 315.687C72.6177 315.447 72.7656 315.179 72.8169 314.899C73.0222 313.789 72.4937 312.164 71.9008 311.506C71.7476 311.335 71.6488 311.303 71.6273 311.303Z" fill="#263238"/>
<path d="M175.316 324.767L177.392 321.167L175.316 317.566H173.094L174.349 321.167L173.094 324.767H175.316Z" fill="#263238"/>
<path d="M173.239 323.043C172.205 323.043 171.363 322.2 171.363 321.166C171.363 320.132 172.205 319.297 173.239 319.297L169.709 318.591L168.773 321.441L170.348 323.846L173.239 323.043Z" fill="#263238"/>
<path d="M173.542 317.566H169.382L167.307 321.167L169.382 324.767H173.542L175.618 321.167L173.542 317.566ZM171.466 323.043C170.432 323.043 169.589 322.201 169.589 321.167C169.589 320.133 170.432 319.298 171.466 319.298C172.5 319.298 173.335 320.133 173.335 321.167C173.335 322.201 172.5 323.043 171.466 323.043Z" fill="#4D4D4D"/>
<path d="M320.104 317.327L318.562 314.653L320.104 311.979H321.754L320.822 314.654L321.754 317.327H320.104Z" fill="#4D4D4D"/>
<path d="M321.646 316.047C322.415 316.047 323.041 315.421 323.041 314.653C323.041 313.885 322.415 313.265 321.646 313.265L324.268 312.74L324.963 314.857L323.794 316.643L321.646 316.047Z" fill="#4D4D4D"/>
<path d="M321.423 311.979H324.512L326.054 314.653L324.512 317.327H321.423L319.881 314.653L321.423 311.979ZM322.965 316.047C323.733 316.047 324.359 315.421 324.359 314.653C324.359 313.885 323.733 313.265 322.965 313.265C322.196 313.265 321.577 313.885 321.577 314.653C321.576 315.421 322.196 316.047 322.965 316.047Z" fill="#263238"/>
<path d="M262.697 320.876H266.158C267.059 320.876 267.796 320.139 267.796 319.237C267.796 318.336 267.059 317.599 266.158 317.599H262.697C261.795 317.599 261.059 318.336 261.059 319.237C261.059 320.139 261.795 320.876 262.697 320.876Z" fill="#263238"/>
<path d="M257.168 317.785C258.023 315.972 260.095 315.153 261.797 315.955C263.498 316.757 264.184 318.877 263.33 320.689C262.476 322.502 260.404 323.32 258.703 322.518C257 321.716 256.314 319.597 257.168 317.785Z" fill="#4D4D4D"/>
<path d="M258.143 322.504L259.092 322.951L262.392 315.952L261.443 315.504L258.143 322.504Z" fill="#263238"/>
<path d="M91.3663 79.1508L91.2174 79.1625C87.3811 78.0092 85.0452 76.7789 83.7533 75.1749C82.8604 75.4183 81.9127 75.3646 81.053 75.022C80.0463 74.6243 79.1825 73.9327 78.5742 73.0374C78.3104 73.2751 77.9908 73.4423 77.6451 73.5234C77.2994 73.6046 76.9388 73.597 76.5968 73.5016C75.5473 73.2007 74.6223 72.5707 73.958 71.7043C73.6094 72.0095 73.159 72.1728 72.6959 72.1619C70.1989 72.1595 66.5036 67.5245 65.8521 62.3327C65.8409 62.2229 65.8723 62.113 65.9397 62.0257C66.0071 61.9383 66.1054 61.8801 66.2144 61.863C66.2686 61.8565 66.3235 61.8607 66.376 61.8754C66.4285 61.8902 66.4776 61.9151 66.5204 61.9488C66.5633 61.9825 66.5991 62.0244 66.6258 62.0719C66.6524 62.1195 66.6695 62.1718 66.6759 62.226C67.2996 67.1703 70.8157 71.3284 72.7049 71.3289C72.8428 71.3335 72.9801 71.3107 73.1091 71.262C73.2381 71.2132 73.3562 71.1394 73.4565 71.0448C72.7165 69.9167 72.2078 68.6529 71.9602 67.3266C71.7125 66.0004 71.7308 64.6381 72.0138 63.319C72.5291 60.7815 73.0805 59.7558 73.8532 59.8446C75.3039 60.0878 75.543 65.5369 75.0707 69.1446C75.0072 69.7935 74.8198 70.4243 74.5184 71.0025C75.0706 71.7816 75.8573 72.3639 76.7637 72.6644C77.0045 72.735 77.2605 72.7349 77.5013 72.6643C77.7421 72.5936 77.9575 72.4553 78.1221 72.2658C77.3508 70.7205 76.9963 68.5513 77.7031 65.6991C78.5715 61.9436 79.0599 61.8051 79.3111 61.7187C79.4059 61.6908 79.5066 61.6891 79.6023 61.7138C79.698 61.7385 79.7853 61.7886 79.8548 61.8588C80.6926 62.6665 80.2242 68.4295 79.4869 71.3174C79.4013 71.6647 79.2711 71.9995 79.0996 72.3134C79.614 73.1729 80.3943 73.8416 81.3224 74.2184C81.9305 74.4569 82.5913 74.5283 83.2363 74.4251C83.1494 74.2738 83.0708 74.1219 82.9916 73.9617C82.1977 72.2351 82.3589 70.1667 83.4805 67.6146C84.2215 65.9331 84.8727 65.116 85.5344 65.0637C85.7102 65.0522 85.8856 65.0913 86.0399 65.1765C86.1941 65.2616 86.3207 65.3893 86.4046 65.5442C87.2294 66.819 87.0553 71.252 85.8052 73.548C85.5117 74.0749 85.0801 74.5118 84.5568 74.8118C85.7802 76.1799 87.9905 77.2952 91.4932 78.3335C91.5456 78.3478 91.5946 78.3725 91.6373 78.4061C91.68 78.4397 91.7155 78.4816 91.7418 78.5292C91.7681 78.5767 91.7845 78.6291 91.7902 78.6832C91.7959 78.7372 91.7906 78.7918 91.7748 78.8438C91.7495 78.9325 91.6959 79.0105 91.6221 79.0659C91.5484 79.1213 91.4585 79.1511 91.3663 79.1508ZM85.5921 65.8997C85.5921 65.8997 85.1206 65.937 84.2321 67.963C83.2079 70.2744 83.0463 72.1264 83.7386 73.6197C83.8228 73.8047 83.9204 73.9834 84.0305 74.1543C84.4639 73.9338 84.8197 73.5863 85.0504 73.1582C86.0685 71.2967 86.3351 67.6137 85.7926 66.2251C85.7118 65.9402 85.5921 65.8997 85.5921 65.8997ZM79.3784 62.8869C79.0051 63.8639 78.7116 64.8696 78.5008 65.8941C78.0036 67.68 78.0432 69.5728 78.6146 71.3364L78.672 71.1155C79.3334 68.4252 79.58 65.6496 79.4032 62.8849L79.3784 62.8869ZM73.7303 60.7115C73.5995 60.8467 73.2354 61.3998 72.8241 63.463C72.3281 65.7812 72.7336 68.2013 73.9581 70.2312C74.0986 69.848 74.1929 69.4494 74.2388 69.0439C74.803 64.9129 74.2647 61.2602 73.7551 60.7096L73.7303 60.7115Z" fill="#263238"/>
<path d="M126.24 120.023C124.919 120.14 123.59 119.903 122.391 119.336C122.292 119.287 122.216 119.201 122.18 119.096C122.144 118.992 122.15 118.878 122.197 118.777C122.221 118.729 122.254 118.685 122.294 118.649C122.335 118.613 122.382 118.586 122.434 118.569C122.485 118.552 122.539 118.545 122.593 118.549C122.648 118.553 122.7 118.568 122.748 118.592C125.838 120.088 129.555 118.579 130.241 117.251C130.291 117.168 130.325 117.074 130.338 116.978C130.352 116.881 130.346 116.782 130.321 116.687C128.818 116.893 127.29 116.586 125.983 115.815C123.77 114.667 123.573 114.283 123.565 113.967C123.562 113.877 123.583 113.787 123.626 113.707C123.67 113.628 123.734 113.561 123.812 113.515C124.606 113.036 128.472 114.453 130.108 115.356C130.304 115.465 130.487 115.596 130.655 115.746C131.255 115.559 131.779 115.185 132.152 114.679C132.361 114.389 132.502 114.057 132.566 113.705L132.4 113.718C131.087 113.955 129.719 113.489 128.201 112.294C127.155 111.478 126.734 110.887 126.819 110.389C126.846 110.249 126.912 110.12 127.01 110.016C127.108 109.912 127.234 109.839 127.372 109.805C128.491 109.425 131.415 110.409 132.664 111.584C132.943 111.839 133.151 112.16 133.271 112.518C134.315 111.928 135.365 110.688 136.565 108.704C136.593 108.657 136.63 108.615 136.673 108.583C136.717 108.55 136.767 108.526 136.82 108.512C136.873 108.499 136.929 108.496 136.983 108.504C137.037 108.512 137.089 108.531 137.136 108.559C137.23 108.616 137.297 108.708 137.324 108.815C137.351 108.922 137.336 109.035 137.281 109.13C135.89 111.437 134.682 112.781 133.415 113.389C133.395 114.005 133.19 114.602 132.826 115.1C132.393 115.691 131.799 116.145 131.115 116.408C131.17 116.603 131.186 116.806 131.161 117.006C131.137 117.207 131.074 117.401 130.974 117.576C130.373 118.814 128.44 119.849 126.24 120.023ZM125.051 114.341C125.348 114.525 125.767 114.767 126.365 115.069C127.302 115.599 128.353 115.893 129.429 115.926C128.034 115.233 126.566 114.701 125.051 114.341ZM127.66 110.598C127.933 111.026 128.293 111.392 128.718 111.671C130.032 112.707 131.189 113.14 132.254 112.923L132.519 112.902C132.44 112.65 132.296 112.423 132.101 112.244C130.84 111.029 128.228 110.419 127.66 110.598Z" fill="#263238"/>
<path d="M137.101 118.024L124.4 121.382L107.65 58.4389L83.1442 64.9192L48.3021 140.079L54.5288 163.481L105.766 149.936L110.857 169.075L135.361 162.579L130.27 143.439L142.972 140.081L137.101 118.024ZM72.8235 135.062L91.3499 95.672L99.9303 127.901L72.8235 135.062Z" fill="#FE9D00"/>
<path d="M235.689 43.9616C234.98 39.9775 233.779 36.097 232.113 32.4094C230.42 28.8847 228.199 25.639 225.526 22.7846C222.368 19.4676 218.562 16.8337 214.345 15.0458C209.743 12.9737 203.759 11.7515 196.395 11.379C181.103 10.6009 169.521 14.2181 161.648 22.2306C153.776 30.2431 149.318 44.7437 148.274 65.7325C147.815 73.582 148.159 81.4579 149.299 89.2377C150.417 96.3623 152.19 102.029 154.62 106.236C157.738 111.923 162.324 116.671 167.899 119.985C173.41 123.239 180.77 125.096 189.978 125.556C206.345 126.388 218.111 122.326 225.277 113.371C232.442 104.415 236.512 89.9176 237.487 69.8775C237.938 61.1979 237.334 52.4957 235.689 43.9616Z" fill="#FE9D00"/>
<path d="M196.76 116.472C194.761 116.564 192.605 116.551 190.424 116.44C182.77 116.055 176.762 114.599 172.555 112.118C168.357 109.625 164.911 106.044 162.581 101.754L162.532 101.666C160.683 98.4832 159.265 93.8098 158.336 87.8493C157.285 80.6845 156.969 73.4311 157.392 66.202C158.533 43.0416 163.873 32.9905 168.148 28.6412C173.14 23.5695 180.211 20.8969 189.749 20.4762C191.706 20.3881 193.788 20.3984 195.935 20.5034C202.104 20.8482 207.047 21.7893 210.619 23.388C213.698 24.6779 216.484 26.5783 218.809 28.9745C220.848 31.1434 222.545 33.611 223.84 36.292C225.182 39.2895 226.147 42.4422 226.712 45.6777C228.218 53.5065 228.768 61.4893 228.349 69.4507C227.465 87.4474 224.022 100.32 218.122 107.71C213.744 113.183 206.759 116.099 196.754 116.506L196.76 116.472Z" fill="#263238"/>
<path d="M207.51 46.4291L207.37 43.2859L205.393 42.8096C205.228 41.7558 204.973 40.718 204.632 39.7071L206.191 38.3689L204.85 35.512L202.845 35.8368C202.296 34.928 201.671 34.067 200.977 33.2629L201.881 31.4354L199.55 29.3143L197.82 30.3831C196.959 29.7532 196.046 29.1962 195.092 28.7178L195.223 26.6933L192.259 25.6209L191.074 27.2625C190.036 27.0146 188.979 26.8531 187.915 26.7798L187.272 24.8581L184.12 24.9989L183.652 26.9668C182.598 27.1354 181.561 27.3899 180.549 27.7279L179.203 26.1698L176.345 27.5025L176.67 29.5075C175.761 30.0573 174.9 30.6821 174.096 31.3754L172.276 30.4622L170.146 32.7861L171.216 34.5242C170.584 35.3854 170.029 36.301 169.559 37.2601L167.533 37.1122L166.453 40.0772L168.103 41.2618C167.847 42.3009 167.686 43.361 167.62 44.4292L165.691 45.081L165.831 48.2159L167.807 48.6922C167.972 49.7489 168.227 50.7896 168.569 51.8029L167.01 53.1329L168.351 55.9898L170.356 55.6649C170.901 56.5768 171.526 57.4382 172.224 58.2388L171.311 60.067L173.643 62.1881L175.373 61.1276C176.235 61.7548 177.147 62.3091 178.101 62.7847L177.961 64.8098L180.925 65.8822L182.12 64.2481C183.16 64.4941 184.219 64.6526 185.286 64.722L185.93 66.6519L189.073 66.5118L189.541 64.5356C190.598 64.3709 191.639 64.116 192.652 63.7738L193.982 65.3333L196.839 64.0006L196.523 62.0032C197.428 61.4476 198.289 60.8232 199.097 60.1353L200.917 61.0402L203.047 58.7163L201.985 56.9775C202.615 56.1193 203.167 55.2067 203.634 54.2506L205.659 54.3902L206.74 51.4252L205.098 50.24C205.348 49.2029 205.506 48.1461 205.573 47.0815L207.51 46.4291ZM187.139 58.2505C184.682 58.3545 182.249 57.7284 180.148 56.4512C178.047 55.174 176.371 53.3029 175.332 51.0741C174.293 48.8453 173.938 46.3587 174.311 43.9281C174.684 41.4976 175.769 39.2321 177.429 37.4175C179.088 35.603 181.248 34.3207 183.636 33.7326C186.023 33.1445 188.532 33.2769 190.844 34.1132C193.157 34.9494 195.17 36.4519 196.629 38.4311C198.088 40.4103 198.928 42.7775 199.043 45.2338C199.12 46.871 198.873 48.5073 198.315 50.0487C197.758 51.59 196.902 53.0061 195.796 54.2156C194.689 55.4251 193.355 56.4041 191.87 57.0966C190.384 57.789 188.776 58.1811 187.139 58.2505Z" fill="#FE9D00"/>
<path opacity="0.3" d="M225.111 102.947L225.175 100.811L223.861 100.399C223.802 99.6789 223.684 98.9644 223.509 98.2632L224.6 97.4362L223.852 95.4397L222.479 95.5482C222.155 94.9052 221.775 94.2919 221.344 93.7154L222.032 92.5291L220.578 90.9795L219.354 91.6088C218.802 91.142 218.212 90.721 217.59 90.35L217.791 88.9859L215.849 88.1074L214.95 89.1687C214.264 88.9476 213.561 88.7833 212.848 88.6774L212.509 87.3475L210.381 87.2743L209.961 88.5892C209.243 88.6493 208.531 88.7724 207.835 88.957L207.006 87.8406L205.01 88.6058L205.119 89.9788C204.476 90.3058 203.863 90.6884 203.287 91.1223L202.096 90.3841L200.547 91.8381L201.176 93.0618C200.712 93.6148 200.294 94.2045 199.926 94.8251L198.562 94.6332L197.692 96.5745L198.744 97.4651C198.52 98.1532 198.356 98.8596 198.254 99.5762L196.915 99.9067L196.858 102.033L198.165 102.463C198.223 103.178 198.343 103.887 198.524 104.582L197.416 105.41L198.173 107.406L199.554 107.297C199.883 107.936 200.265 108.546 200.697 109.121L199.959 110.311L201.413 111.86L202.653 111.221C203.202 111.69 203.792 112.109 204.416 112.472L204.234 113.86L206.176 114.73L207.067 113.686C207.753 113.9 208.456 114.059 209.168 114.161L209.515 115.498L211.643 115.563L212.056 114.257C212.787 114.198 213.513 114.08 214.225 113.902L215.053 115.011L217.041 114.254L216.932 112.881C217.575 112.549 218.19 112.167 218.773 111.737L219.946 112.477L221.495 111.014L220.858 109.791C221.327 109.238 221.75 108.648 222.125 108.027L223.48 108.219L224.358 106.277L223.307 105.395C223.52 104.708 223.679 104.005 223.781 103.293L225.111 102.947ZM214.401 102.961C214.101 103.629 213.61 104.193 212.99 104.582C212.37 104.971 211.649 105.168 210.917 105.147C210.185 105.125 209.476 104.888 208.879 104.463C208.283 104.039 207.826 103.447 207.565 102.763C207.305 102.079 207.254 101.333 207.417 100.619C207.581 99.906 207.953 99.2572 208.486 98.7551C209.018 98.2529 209.688 97.9201 210.41 97.7986C211.132 97.6772 211.874 97.7726 212.541 98.0728C213.434 98.4766 214.131 99.2175 214.479 100.133C214.828 101.049 214.799 102.066 214.401 102.961Z" fill="#FE9D00"/>
<path d="M234.006 66.2743L231.39 64.7665C231.076 63.9 230.676 63.0674 230.195 62.2809L230.628 59.75L226.752 56.2028L224.307 56.8621C223.483 56.4556 222.621 56.1307 221.734 55.8919L220 53.4323L214.751 53.6723L213.243 56.2882C212.375 56.5987 211.542 56.9993 210.757 57.4833L208.226 57.0425L204.679 60.9263L205.338 63.371C204.925 64.1922 204.6 65.0548 204.368 65.9445L201.917 67.6778L202.149 72.9277L204.765 74.4355C205.075 75.3087 205.476 76.1473 205.961 76.9376L205.528 79.4685L209.404 83.0157L211.849 82.3647C212.674 82.7704 213.536 83.0953 214.423 83.3349L216.148 85.7869L221.406 85.5545L222.906 82.9393C223.781 82.6259 224.622 82.2249 225.416 81.7422L227.947 82.1747L231.494 78.2991L230.843 75.8538C231.251 75.0303 231.576 74.1682 231.813 73.2804L234.265 71.547L234.006 66.2743ZM218.316 75.5203C217.149 75.5723 215.992 75.277 214.993 74.6717C213.994 74.0665 213.196 73.1784 212.701 72.1199C212.207 71.0614 212.037 69.88 212.214 68.725C212.391 67.5701 212.906 66.4935 213.695 65.6314C214.483 64.7694 215.51 64.1606 216.645 63.882C217.779 63.6034 218.971 63.6676 220.069 64.0664C221.168 64.4652 222.123 65.1807 222.815 66.1225C223.506 67.0642 223.903 68.1899 223.955 69.3571C224.022 70.9215 223.466 72.4487 222.409 73.604C221.352 74.7593 219.88 75.4484 218.316 75.5203Z" fill="white"/>
<path d="M248.659 23.0625L249.007 21.9946C249.287 21.8067 249.548 21.5938 249.789 21.3586L250.749 21.2828L251.743 19.5397L251.309 18.6835C251.425 18.3777 251.512 18.0615 251.567 17.7392L252.334 16.913L251.833 14.9967L250.757 14.649C250.571 14.3686 250.358 14.1067 250.121 13.867L250.045 12.9076L248.344 11.9101L247.48 12.3529C247.144 12.2637 246.8 12.2128 246.453 12.2011L245.626 11.4341L243.718 11.9344L243.362 13.0112C243.068 13.1945 242.792 13.4058 242.538 13.6422L241.587 13.7174L240.593 15.4604L241.027 16.3167C240.942 16.6531 240.891 16.9973 240.875 17.344L240.109 18.1786L240.609 20.0865L241.685 20.4343C241.866 20.7166 242.077 20.9789 242.313 21.2169L242.388 22.1681L244.131 23.1622L244.987 22.7284C245.327 22.8098 245.673 22.8576 246.022 22.8713L246.849 23.6383L248.659 23.0625ZM244.1 18.0296C243.988 17.6043 244.004 17.1551 244.147 16.7391C244.29 16.323 244.553 15.9588 244.904 15.6924C245.254 15.426 245.675 15.2695 246.114 15.2426C246.553 15.2158 246.99 15.3198 247.37 15.5415C247.75 15.7632 248.056 16.0927 248.249 16.4882C248.441 16.8837 248.513 17.3275 248.453 17.7634C248.393 18.1993 248.206 18.6077 247.914 18.9369C247.622 19.2662 247.239 19.5014 246.813 19.6129C246.244 19.7599 245.639 19.6761 245.131 19.3796C244.623 19.0831 244.252 18.5979 244.1 18.0296Z" fill="#FE9D00"/>
<path d="M225.572 19.3689L224.893 18.8816C226.124 17.081 227.7 15.5421 229.529 14.354L229.975 15.0511C228.236 16.1843 226.739 17.652 225.572 19.3689Z" fill="#FE9D00"/>
<path d="M231.801 14.1413L231.419 13.4059C234.368 11.8373 237.666 11.0386 241.006 11.0837L240.988 11.9174C237.787 11.8689 234.626 12.6342 231.801 14.1413Z" fill="#FE9D00"/>
<path d="M230.689 19.9877L229.974 19.5781C231.754 16.7298 234.506 14.6231 237.72 13.648L237.943 14.4626C234.939 15.3716 232.363 17.3333 230.689 19.9877Z" fill="#FE9D00"/>
<path d="M182.096 103.957C181.983 103.963 181.872 103.924 181.788 103.848L179.918 102.198C179.03 102.188 178.146 102.096 177.275 101.924L174.664 103.329C174.607 103.366 174.542 103.389 174.474 103.394C174.406 103.4 174.338 103.388 174.275 103.36L169.506 100.716C169.444 100.682 169.393 100.632 169.356 100.573C169.319 100.513 169.298 100.445 169.296 100.374L169.063 97.4299C168.455 96.7817 167.909 96.0781 167.432 95.3283L165.038 94.6187C164.97 94.5986 164.91 94.5619 164.86 94.5119C164.811 94.4619 164.776 94.4003 164.757 94.3329L163.261 89.0914C163.241 89.0245 163.239 88.9537 163.254 88.8856C163.269 88.8175 163.301 88.7543 163.347 88.7018L164.997 86.832C165.012 85.9447 165.104 85.0604 165.27 84.1887L163.866 81.5782C163.828 81.5212 163.806 81.4557 163.801 81.3878C163.795 81.3199 163.807 81.2517 163.835 81.1895L166.479 76.4198C166.512 76.3572 166.561 76.3046 166.621 76.2676C166.681 76.2306 166.75 76.2106 166.82 76.2097L169.768 76.0184C170.414 75.408 171.118 74.8618 171.87 74.3876L172.588 71.9923C172.606 71.9259 172.642 71.8654 172.69 71.8164C172.739 71.7674 172.799 71.7316 172.865 71.7123L178.107 70.2163C178.174 70.1959 178.245 70.193 178.313 70.208C178.381 70.2231 178.444 70.2554 178.496 70.302L180.366 71.9519C181.256 71.9627 182.144 72.0541 183.018 72.2251L185.62 70.8211C185.678 70.7837 185.745 70.7612 185.814 70.7558C185.884 70.7503 185.953 70.762 186.017 70.7897L190.778 73.4346C190.839 73.4703 190.89 73.5197 190.928 73.5788C190.966 73.638 190.989 73.7053 190.997 73.7752L191.18 76.7236C191.79 77.3714 192.339 78.0748 192.819 78.8245L195.206 79.5431C195.272 79.5618 195.333 79.5971 195.382 79.6456C195.431 79.6942 195.466 79.7544 195.486 79.8206L196.99 85.0615C197.008 85.1285 197.01 85.1989 196.995 85.2668C196.98 85.3346 196.949 85.3978 196.904 85.4511L195.247 87.3298C195.234 88.2145 195.142 89.0963 194.972 89.9648L196.377 92.5752C196.414 92.6338 196.437 92.7006 196.442 92.7698C196.448 92.8391 196.436 92.9086 196.408 92.9723L193.802 97.6973C193.768 97.7566 193.72 97.8066 193.662 97.8431C193.604 97.8796 193.538 97.9014 193.469 97.9067L190.513 98.0987C189.864 98.7019 189.164 99.2473 188.42 99.7289L187.702 102.124C187.683 102.192 187.646 102.253 187.596 102.302C187.546 102.351 187.484 102.387 187.416 102.405L182.179 103.951L182.096 103.957ZM177.178 101.017C177.216 101.006 177.255 101.003 177.294 101.007C178.208 101.197 179.138 101.294 180.071 101.296C180.172 101.3 180.268 101.336 180.346 101.399L182.137 103.005L186.939 101.635L187.637 99.2997C187.67 99.2049 187.734 99.1238 187.818 99.069C188.611 98.5765 189.349 98.0021 190.022 97.3552C190.093 97.2851 190.188 97.2448 190.287 97.2427L193.161 97.0572L195.58 92.7048L194.214 90.1661C194.174 90.0779 194.166 89.9784 194.192 89.8849C194.377 88.9705 194.474 88.0403 194.48 87.1074C194.481 87.0065 194.517 86.9092 194.583 86.8329L196.19 85.0415L194.82 80.2394L192.492 79.5411C192.393 79.5134 192.307 79.4487 192.254 79.3602C191.759 78.5691 191.185 77.8308 190.54 77.157C190.475 77.086 190.435 76.9954 190.428 76.8995L190.2 74.0212L185.848 71.602L183.318 72.9671C183.227 73.008 183.124 73.016 183.028 72.99C182.111 72.8019 181.178 72.7056 180.242 72.7024C180.142 72.6986 180.046 72.6624 179.968 72.5993L178.176 70.9931L173.375 72.3711L172.688 74.7391C172.661 74.8366 172.6 74.9212 172.516 74.9774C171.72 75.4691 170.979 76.0438 170.304 76.6918C170.271 76.7269 170.231 76.7549 170.187 76.7742C170.143 76.7934 170.095 76.8035 170.047 76.8037L167.173 76.9891L164.746 81.3422L166.112 83.8809C166.142 83.9344 166.161 83.994 166.166 84.0556C166.171 84.1171 166.162 84.1789 166.14 84.2366C165.964 85.129 165.874 86.0363 165.871 86.946C165.871 87.047 165.835 87.1446 165.768 87.2204L164.162 89.0119L165.54 93.8133L167.859 94.5123C167.962 94.546 168.051 94.6158 168.107 94.709C168.599 95.4949 169.17 96.2279 169.812 96.8964C169.879 96.9658 169.919 97.0573 169.923 97.1538L170.151 100.032L174.503 102.451L177.042 101.086C177.083 101.055 177.129 101.031 177.178 101.017ZM181.027 98.0159C179.036 98.1714 177.04 97.7846 175.252 96.8964C173.463 96.0083 171.949 94.6521 170.869 92.972C169.79 91.2919 169.186 89.3506 169.121 87.3547C169.057 85.3587 169.534 83.3826 170.503 81.6364C171.43 79.9614 172.775 78.5555 174.407 77.5561C176.04 76.5568 177.904 75.9983 179.817 75.9353C181.73 75.8722 183.627 76.3067 185.322 77.1964C187.016 78.086 188.451 79.4002 189.486 81.0106C190.521 82.621 191.12 84.4723 191.224 86.3835C191.329 88.2948 190.936 90.2005 190.084 91.9143C189.231 93.6281 187.948 95.0913 186.361 96.1608C184.774 97.2303 182.936 97.8695 181.027 98.0159ZM171.234 82.0364C170.253 83.8041 169.819 85.8228 169.986 87.8374C170.152 89.8519 170.913 91.7718 172.17 93.3544C173.428 94.9369 175.127 96.111 177.052 96.7282C178.977 97.3453 181.041 97.3779 182.985 96.8218C184.928 96.2656 186.663 95.1457 187.97 93.6037C189.277 92.0616 190.097 90.1666 190.328 88.1583C190.558 86.15 190.187 84.1186 189.263 82.3208C188.339 80.5231 186.902 79.0398 185.135 78.0584C183.962 77.4011 182.671 76.9824 181.336 76.8266C180.001 76.6709 178.648 76.7811 177.356 77.1509C176.063 77.5208 174.857 78.1429 173.806 78.9814C172.756 79.8199 171.881 80.8582 171.234 82.0364Z" fill="white"/>
<path d="M341.065 109.415L327.941 108.688L331.441 43.6531L306.13 42.2573L249.799 102.985L248.497 127.166L301.402 130.093L300.335 149.877L325.646 151.272L326.714 131.497L339.838 132.224L341.065 109.415ZM274.676 105.739L304.426 73.9845L302.629 107.284L274.676 105.739Z" fill="#FE9D00"/>
<path d="M317.989 151.262L317.882 151.271C317.773 151.259 317.673 151.205 317.604 151.12C317.535 151.035 317.502 150.926 317.513 150.817L328.506 43.4695C328.52 43.3615 328.575 43.2629 328.659 43.1942C328.744 43.1255 328.851 43.0921 328.96 43.1008C329.069 43.1124 329.169 43.1666 329.238 43.2516C329.307 43.3365 329.339 43.4454 329.329 43.5543L318.376 150.89C318.365 150.988 318.32 151.078 318.249 151.145C318.179 151.213 318.087 151.254 317.989 151.262Z" fill="#263238"/>
<path d="M326.85 45.3892C326.858 45.5696 326.793 45.7457 326.671 45.8786C326.549 46.0116 326.379 46.0906 326.199 46.0982C326.018 46.1058 325.842 46.0415 325.709 45.9193C325.576 45.7972 325.497 45.6272 325.49 45.4468C325.482 45.2664 325.546 45.0904 325.668 44.9574C325.791 44.8244 325.961 44.7455 326.141 44.7378C326.321 44.7302 326.497 44.7945 326.63 44.9167C326.763 45.0389 326.842 45.2088 326.85 45.3892Z" fill="#263238"/>
<path d="M325.228 59.9157C325.234 60.0501 325.199 60.1831 325.129 60.298C325.059 60.4128 324.957 60.5044 324.835 60.561C324.713 60.6177 324.577 60.6369 324.444 60.6162C324.311 60.5956 324.187 60.5359 324.088 60.4449C323.989 60.3539 323.919 60.2356 323.887 60.1049C323.855 59.9742 323.863 59.837 323.909 59.7106C323.955 59.5843 324.038 59.4744 324.146 59.395C324.255 59.3155 324.385 59.27 324.519 59.2643C324.608 59.2604 324.698 59.2742 324.782 59.3049C324.866 59.3356 324.943 59.3825 325.009 59.443C325.074 59.5035 325.128 59.5764 325.165 59.6575C325.203 59.7386 325.224 59.8263 325.228 59.9157Z" fill="#263238"/>
<path d="M323.604 74.4664C323.608 74.5557 323.594 74.645 323.563 74.729C323.533 74.813 323.486 74.8901 323.425 74.9559C323.365 75.0218 323.292 75.075 323.211 75.1127C323.13 75.1503 323.042 75.1716 322.952 75.1753C322.864 75.1802 322.775 75.1674 322.691 75.1376C322.607 75.1078 322.53 75.0617 322.464 75.0019C322.398 74.942 322.345 74.8697 322.307 74.7891C322.269 74.7085 322.248 74.6211 322.244 74.5322C322.239 74.4423 322.252 74.3522 322.282 74.2673C322.312 74.1824 322.359 74.1043 322.42 74.0376C322.48 73.9709 322.553 73.9168 322.635 73.8786C322.717 73.8404 322.805 73.8188 322.895 73.815C323.075 73.8094 323.25 73.8745 323.382 73.9962C323.515 74.118 323.594 74.2867 323.604 74.4664Z" fill="#263238"/>
<path d="M319.355 89.7829C319.35 89.9502 319.283 90.1098 319.167 90.2309C319.052 90.3521 318.896 90.4264 318.729 90.4396C318.562 90.4528 318.396 90.4039 318.263 90.3024C318.13 90.2009 318.039 90.0538 318.007 89.8894C317.989 89.7954 317.991 89.6987 318.013 89.6056C318.035 89.5125 318.076 89.425 318.134 89.3489C318.192 89.2728 318.265 89.2098 318.349 89.164C318.433 89.1182 318.526 89.0907 318.622 89.0831C318.717 89.0756 318.813 89.0883 318.903 89.1203C318.993 89.1523 319.075 89.203 319.145 89.2691C319.214 89.3351 319.268 89.415 319.305 89.5035C319.341 89.5921 319.358 89.6872 319.355 89.7829Z" fill="#263238"/>
<path d="M320.347 103.495C320.352 103.584 320.339 103.674 320.309 103.759C320.278 103.843 320.232 103.921 320.171 103.987C320.11 104.053 320.037 104.106 319.955 104.143C319.874 104.181 319.785 104.201 319.696 104.204C319.561 104.209 319.428 104.175 319.313 104.105C319.198 104.035 319.107 103.933 319.05 103.811C318.994 103.689 318.974 103.552 318.995 103.42C319.016 103.287 319.075 103.163 319.166 103.064C319.257 102.965 319.376 102.895 319.506 102.863C319.637 102.831 319.774 102.839 319.901 102.885C320.027 102.931 320.137 103.014 320.216 103.122C320.296 103.231 320.341 103.36 320.347 103.495Z" fill="#263238"/>
<path d="M318.724 118.022C318.731 118.156 318.698 118.29 318.629 118.406C318.56 118.522 318.458 118.615 318.336 118.673C318.215 118.731 318.078 118.751 317.945 118.731C317.811 118.712 317.687 118.653 317.587 118.562C317.487 118.471 317.416 118.353 317.384 118.222C317.352 118.091 317.359 117.953 317.405 117.827C317.451 117.7 317.533 117.59 317.642 117.51C317.751 117.43 317.881 117.384 318.015 117.379C318.194 117.371 318.369 117.434 318.502 117.555C318.634 117.675 318.714 117.843 318.724 118.022Z" fill="#263238"/>
<path d="M317.102 132.548C317.109 132.729 317.045 132.906 316.924 133.04C316.802 133.175 316.632 133.255 316.451 133.265C316.361 133.269 316.272 133.255 316.188 133.225C316.104 133.194 316.027 133.147 315.961 133.087C315.895 133.026 315.842 132.953 315.805 132.872C315.767 132.791 315.746 132.703 315.742 132.614C315.738 132.525 315.751 132.435 315.781 132.351C315.811 132.267 315.858 132.19 315.918 132.123C315.978 132.057 316.05 132.004 316.131 131.965C316.212 131.927 316.3 131.905 316.389 131.901C316.478 131.897 316.567 131.91 316.652 131.94C316.736 131.97 316.813 132.017 316.879 132.077C316.945 132.137 316.999 132.21 317.037 132.29C317.075 132.371 317.097 132.459 317.102 132.548Z" fill="#263238"/>
<path d="M315.468 147.084C315.474 147.218 315.439 147.351 315.369 147.466C315.299 147.581 315.197 147.672 315.075 147.729C314.953 147.786 314.817 147.805 314.684 147.784C314.551 147.764 314.427 147.704 314.328 147.613C314.229 147.522 314.159 147.404 314.127 147.273C314.096 147.142 314.103 147.005 314.149 146.879C314.196 146.752 314.278 146.642 314.387 146.563C314.495 146.483 314.625 146.438 314.759 146.432C314.849 146.427 314.939 146.44 315.023 146.471C315.107 146.501 315.185 146.548 315.251 146.608C315.317 146.669 315.37 146.742 315.408 146.824C315.445 146.906 315.466 146.994 315.468 147.084Z" fill="#263238"/>
<path d="M318.709 90.2087C318.616 90.2161 318.523 90.1912 318.446 90.1382C318.369 90.0851 318.312 90.0072 318.286 89.9175C318.27 89.8652 318.264 89.8102 318.269 89.7557C318.274 89.7011 318.29 89.6481 318.315 89.5996C318.341 89.5512 318.376 89.5083 318.418 89.4734C318.46 89.4385 318.509 89.4124 318.561 89.3964L320.578 88.796C320.631 88.7796 320.686 88.774 320.741 88.7795C320.796 88.7849 320.85 88.8014 320.898 88.8278C320.947 88.8542 320.99 88.89 321.024 88.9332C321.059 88.9764 321.085 89.0261 321.1 89.0793C321.115 89.1317 321.119 89.1865 321.113 89.2407C321.107 89.2948 321.09 89.3472 321.064 89.3949C321.038 89.4426 321.002 89.4846 320.96 89.5186C320.917 89.5525 320.868 89.5778 320.816 89.5928L318.799 90.1932L318.709 90.2087Z" fill="#263238"/>
<path d="M324.961 82.0492C324.185 84.6568 323.561 87.3071 323.091 89.9869C322.702 92.9555 323.185 99.4922 323.185 99.4922" fill="#263238"/>
<path d="M323.219 99.906C323.109 99.9105 323.001 99.8726 322.918 99.8003C322.835 99.7279 322.783 99.6265 322.772 99.5169C322.751 99.2522 322.299 92.8962 322.689 89.9358C323.153 87.2336 323.775 84.561 324.553 81.932C324.566 81.8762 324.589 81.8236 324.623 81.7774C324.656 81.7312 324.699 81.6925 324.748 81.6635C324.797 81.6345 324.852 81.6161 324.908 81.6092C324.965 81.6023 325.023 81.6072 325.077 81.6235C325.132 81.6399 325.183 81.6673 325.226 81.7042C325.27 81.741 325.305 81.7865 325.331 81.8377C325.356 81.8888 325.37 81.9447 325.373 82.0017C325.376 82.0587 325.366 82.1156 325.346 82.169C324.57 84.7572 323.944 87.3882 323.472 90.0487C323.093 92.9416 323.561 99.3962 323.558 99.4631C323.567 99.5659 323.537 99.6683 323.474 99.7502C323.411 99.8321 323.32 99.8876 323.219 99.906Z" fill="#263238"/>
</g>
<defs>
<clipPath id="clip0_1465_49">
<rect width="383" height="383" fill="white"/>
</clipPath>
</defs>
</svg>
