<svg width="70" height="70" viewBox="0 0 70 70" fill="none" xmlns="http://www.w3.org/2000/svg">
<g clip-path="url(#clip0_1146_3)">
<path d="M24.7674 30.809L33.6303 37.6464L33.7536 37.7171L33.8089 37.748C34.5753 38.1749 35.5899 37.9486 36.2664 37.204L36.3255 37.1474L47.188 24.2956C47.8065 23.6024 47.8168 22.6045 47.2151 22.0695C46.612 21.5333 45.6231 21.662 45.0071 22.355L34.8533 33.2021L27.0141 27.7432C26.281 27.2032 25.1816 27.4539 24.5604 28.3013C23.9405 29.1462 24.0317 30.2702 24.7674 30.809Z" fill="#787878"/>
<path d="M13.7325 34.9988C13.7325 34.5293 13.7428 34.0601 13.7924 33.5996H8.22861C8.19457 34.0599 8.18555 34.5293 8.18555 34.9988C8.18555 35.4772 8.19457 35.9389 8.22861 36.4004H13.7924C13.7428 35.9389 13.7325 35.4707 13.7325 34.9988Z" fill="#787878"/>
<path d="M23.5729 17.0621C24.0989 16.7291 24.6358 16.4153 25.181 16.1362L25.3932 16.0333L22.6206 11.2188C21.9269 11.5685 21.2511 11.9568 20.5952 12.3825L23.3691 17.1996L23.5729 17.0621Z" fill="#787878"/>
<path d="M11.2202 22.6188L16.0368 25.3914L17.2026 23.3686L12.3841 20.5947C11.9584 21.2506 11.5706 21.9245 11.2202 22.6188Z" fill="#787878"/>
<path d="M53.865 44.8187C53.5757 45.3653 53.2715 45.9002 52.9293 46.4185L52.7905 46.6217L57.6085 49.3954C58.0348 48.7396 58.4231 48.0747 58.7818 47.3815L53.9762 44.5986L53.865 44.8187Z" fill="#787878"/>
<path d="M16.1384 44.8096L16.0271 44.5986L11.2202 47.3713C11.5623 48.0645 11.9582 48.7396 12.384 49.3954L17.2025 46.6217L17.0622 46.4185C16.73 45.9001 16.4162 45.3652 16.1384 44.8096Z" fill="#787878"/>
<path d="M23.5729 52.9278L23.3691 52.7891L20.5952 57.6074C21.2512 58.0332 21.9269 58.4305 22.6206 58.7816L25.3932 53.9644L25.181 53.8616C24.6357 53.5837 24.0988 53.2699 23.5729 52.9278Z" fill="#787878"/>
<path d="M44.5996 16.0255L46.6244 17.1996L49.3976 12.3825C48.7423 11.9568 48.075 11.5685 47.3838 11.2188L44.5996 16.0255Z" fill="#787878"/>
<path d="M33.6011 56.2082V61.765C34.0628 61.806 34.5308 61.8151 34.9996 61.8151C35.4702 61.8151 35.939 61.806 36.3993 61.765V56.2082V56.1504H33.6011V56.2082Z" fill="#787878"/>
<path d="M36.3993 13.7924V8.23572C35.939 8.19443 35.4702 8.18555 34.9996 8.18555C34.5308 8.18555 34.0628 8.19443 33.6011 8.23572V13.7924V13.8502H36.3993V13.7924Z" fill="#787878"/>
<path d="M44.5996 53.9735L47.3838 58.7816C48.075 58.4202 48.7423 58.0332 49.3976 57.6074L46.6244 52.7891L44.5996 53.9735Z" fill="#787878"/>
<path d="M58.7818 22.6188C58.4302 21.9245 58.0346 21.2507 57.6085 20.5947L52.7905 23.3686L53.9664 25.3914L58.7818 22.6188Z" fill="#787878"/>
<path d="M61.7728 33.5996H56.2097H56.1519V36.4004H56.2097H61.7728C61.8075 35.9389 61.8153 35.4707 61.8153 34.9988C61.8152 34.5293 61.8075 34.0599 61.7728 33.5996Z" fill="#787878"/>
<path d="M34.9998 0C15.6686 0.00123047 0.00171875 15.6693 0.000488281 35C0.00171875 54.3307 15.6686 69.9986 34.9998 70C54.331 69.9986 69.9979 54.3307 69.9991 35C69.9979 15.6693 54.331 0.00123047 34.9998 0ZM34.9998 65.4836C26.5742 65.4823 18.9671 62.0758 13.4446 56.5552C7.92457 51.0308 4.5174 43.4242 4.51672 35C4.5174 26.5757 7.92457 18.9679 13.4445 13.446C18.9671 7.92395 26.5742 4.51746 34.9998 4.51623C43.4241 4.5176 51.0312 7.92408 56.555 13.446C62.075 18.9679 65.4822 26.5743 65.4828 35C65.4821 43.4242 62.0749 51.0308 56.555 56.5552C51.0312 62.0759 43.4241 65.4824 34.9998 65.4836Z" fill="#787878"/>
</g>
<defs>
<clipPath id="clip0_1146_3">
<rect width="70" height="70" fill="white"/>
</clipPath>
</defs>
</svg>
