<svg width="12" height="12" viewBox="0 0 12 12" fill="none" xmlns="http://www.w3.org/2000/svg">
<path d="M11.252 12C9.92172 12 8.58529 11.6907 7.24276 11.0722C5.90023 10.4536 4.66675 9.58099 3.54232 8.45429C2.41788 7.32759 1.54639 6.09411 0.927832 4.75385C0.309277 3.41358 0 2.07828 0 0.747973C0 0.534266 0.0705884 0.356178 0.211765 0.213707C0.352942 0.0712363 0.529413 0 0.741179 0H3.04342C3.2217 0 3.37894 0.0581474 3.51515 0.174442C3.65135 0.290736 3.73799 0.434402 3.77509 0.605438L4.17961 2.68234C4.20767 2.87511 4.20179 3.04072 4.16196 3.17918C4.12215 3.31764 4.05066 3.43393 3.94748 3.52805L2.31717 5.11493C2.57962 5.59547 2.8794 6.04999 3.2165 6.4785C3.55361 6.90702 3.91854 7.3163 4.3113 7.70635C4.69864 8.09368 5.11041 8.45341 5.54661 8.78554C5.98281 9.11767 6.45385 9.42672 6.95974 9.71269L8.5439 8.11495C8.65431 8.00002 8.78803 7.91948 8.94504 7.87333C9.10205 7.82718 9.26517 7.81586 9.43441 7.83939L11.3946 8.23848C11.5728 8.28554 11.7183 8.37649 11.831 8.51132C11.9437 8.64617 12 8.79912 12 8.97017V11.2588C12 11.4706 11.9288 11.6471 11.7863 11.7882C11.6438 11.9294 11.4657 12 11.252 12ZM1.81628 4.11314L3.07601 2.9077C3.09864 2.88959 3.11334 2.8647 3.12013 2.83303C3.12692 2.80135 3.12579 2.77194 3.11674 2.7448L2.80995 1.16741C2.8009 1.13121 2.78507 1.10406 2.76244 1.08597C2.73982 1.06786 2.71041 1.05881 2.67421 1.05881H1.16469C1.13755 1.05881 1.11493 1.06786 1.09682 1.08597C1.07871 1.10406 1.06966 1.12669 1.06966 1.15384C1.10586 1.63619 1.18482 2.12624 1.30654 2.62398C1.42827 3.12173 1.59818 3.61811 1.81628 4.11314ZM7.95745 10.2136C8.42534 10.4317 8.91335 10.5984 9.42149 10.7138C9.92965 10.8292 10.4045 10.8977 10.8462 10.9195C10.8733 10.9195 10.8959 10.9104 10.914 10.8923C10.9321 10.8742 10.9412 10.8516 10.9412 10.8244V9.33938C10.9412 9.30318 10.9321 9.27376 10.914 9.25113C10.8959 9.2285 10.8688 9.21267 10.8326 9.20362L9.35023 8.90226C9.32309 8.89321 9.29934 8.89209 9.27897 8.89887C9.25861 8.90566 9.23711 8.92037 9.21449 8.94299L7.95745 10.2136Z" fill="black"/>
</svg>
