<svg width="36" height="36" viewBox="0 0 36 36" fill="none" xmlns="http://www.w3.org/2000/svg">
<path d="M25.0004 11.0004H27.8004C29.3468 11.0004 30.6004 12.254 30.6004 13.8004V22.2004C30.6004 23.7468 29.3468 25.0004 27.8004 25.0004H25.0004V30.6004L19.4004 25.0004H13.8004C13.0272 25.0004 12.3272 24.687 11.8205 24.1803M11.8205 24.1803L16.6004 19.4004H22.2004C23.7468 19.4004 25.0004 18.1468 25.0004 16.6004V8.20039C25.0004 6.65399 23.7468 5.40039 22.2004 5.40039H8.20039C6.65399 5.40039 5.40039 6.65399 5.40039 8.20039V16.6004C5.40039 18.1468 6.65399 19.4004 8.20039 19.4004H11.0004V25.0004L11.8205 24.1803Z" stroke="black" stroke-width="1.67" stroke-linecap="round" stroke-linejoin="round"/>
</svg>
