<svg width="36" height="36" viewBox="0 0 36 36" fill="none" xmlns="http://www.w3.org/2000/svg">
<path d="M25.3796 23.2195C24.0531 24.546 21.1552 27.4439 19.4111 29.188C18.6301 29.969 17.3674 29.9691 16.5863 29.188C14.8716 27.4733 12.0338 24.6355 10.6178 23.2195C6.54145 19.1431 6.54145 12.534 10.6178 8.45766C14.6942 4.3813 21.3033 4.3813 25.3796 8.45766C29.456 12.534 29.456 19.1431 25.3796 23.2195Z" stroke="black" stroke-width="1.67" stroke-linecap="round" stroke-linejoin="round"/>
<path d="M21.9145 15.8381C21.9145 17.9999 20.162 19.7524 18.0002 19.7524C15.8384 19.7524 14.0859 17.9999 14.0859 15.8381C14.0859 13.6763 15.8384 11.9238 18.0002 11.9238C20.162 11.9238 21.9145 13.6763 21.9145 15.8381Z" stroke="black" stroke-width="1.67" stroke-linecap="round" stroke-linejoin="round"/>
</svg>
