<svg width="56" height="56" viewBox="0 0 56 56" fill="none" xmlns="http://www.w3.org/2000/svg">
<path d="M43.9135 21.4202C43.5454 20.6014 42.9491 19.9062 42.1958 19.4178C41.4426 18.9295 40.5645 18.6687 39.6668 18.6669H35.4435L38.5468 11.0602C38.8241 10.3617 38.9285 9.60668 38.8513 8.85919C38.7741 8.11171 38.5176 7.39392 38.1035 6.76686C37.6608 6.11724 37.0656 5.5861 36.37 5.21999C35.6744 4.85387 34.8996 4.66394 34.1135 4.66686H23.9868C23.0297 4.644 22.0887 4.91606 21.2915 5.44617C20.4942 5.97627 19.8793 6.73875 19.5302 7.63019L11.9935 26.2969C11.7236 26.9939 11.6251 27.7457 11.7063 28.4887C11.7875 29.2318 12.0461 29.9445 12.4602 30.5669C12.9028 31.2165 13.498 31.7476 14.1936 32.1137C14.8893 32.4799 15.6641 32.6698 16.4502 32.6669H22.8902L18.6668 48.3935C18.5261 48.9068 18.5651 49.4527 18.7773 49.9408C18.9895 50.4288 19.3622 50.8297 19.8335 51.0769C20.1973 51.2513 20.5967 51.3392 21.0002 51.3335C21.3372 51.3335 21.6702 51.2606 21.9763 51.1196C22.2825 50.9786 22.5544 50.773 22.7735 50.5169L43.3068 26.3202C43.856 25.6419 44.204 24.8232 44.3113 23.957C44.4185 23.0908 44.2807 22.212 43.9135 21.4202Z" fill="#FE9D00"/>
</svg>
