<svg width="56" height="56" viewBox="0 0 56 56" fill="none" xmlns="http://www.w3.org/2000/svg">
<g clip-path="url(#clip0_797_73)">
<path d="M52.8209 26.106H41.4573L39.1196 39.3635H53.4766C53.9361 39.3635 54.3294 39.0336 54.4092 38.5809L55.9408 29.8938C56.3098 27.8018 54.9129 26.106 52.8209 26.106Z" fill="#C7CFE2"/>
<path d="M41.1233 28H52.4869C53.533 28 54.2313 28.8479 54.0469 29.8939L52.3772 39.3636H39.1196L41.1233 28Z" fill="#AFB9D2"/>
<path d="M52.3018 39.3635C52.4073 36.1523 50.0887 33.6816 46.7501 33.6816C43.4116 33.6816 40.2216 36.1523 39.1948 39.3635H52.3018Z" fill="#959CB5"/>
<path d="M51.0366 14.7427H43.4608L42.793 18.5306H52.8124C53.0422 18.5306 53.2387 18.3655 53.2786 18.1393L53.3766 17.5836C53.6532 16.0146 52.6055 14.7427 51.0366 14.7427Z" fill="#C7CFE2"/>
<path d="M50.3165 40.3105C49.8554 42.9255 47.3617 45.0454 44.7468 45.0454C42.1318 45.0454 40.3858 42.9255 40.8468 40.3105C41.3078 37.6956 43.8015 35.5757 46.4165 35.5757C49.0314 35.5757 50.7775 37.6955 50.3165 40.3105Z" fill="#5B5D6E"/>
<path d="M52.8211 26.106L52.263 18.5303H42.7933L41.4575 26.106H52.8211Z" fill="#B4E6FF"/>
<path d="M48.4224 40.3106C48.1458 41.8796 46.6495 43.1515 45.0806 43.1515C43.5116 43.1515 42.464 41.8796 42.7406 40.3106C43.0172 38.7416 44.5134 37.4697 46.0824 37.4697C47.6513 37.4697 48.699 38.7416 48.4224 40.3106Z" fill="#C7CFE2"/>
<path d="M46.5283 40.3107C46.4361 40.8337 45.9374 41.2577 45.4144 41.2577C44.8912 41.2577 44.5422 40.8337 44.6344 40.3107C44.7266 39.7878 45.2254 39.3638 45.7484 39.3638C46.2713 39.3638 46.6205 39.7878 46.5283 40.3107Z" fill="#7F8499"/>
<path d="M46.2473 20.4242H52.4026L52.263 18.5303H42.7933L41.4575 26.106H44.2984L45.1333 21.3712C45.2255 20.8483 45.7242 20.4242 46.2473 20.4242Z" fill="#9BD6FF"/>
<path d="M43.127 16.6362H50.7027C51.2257 16.6362 51.5749 17.0603 51.4827 17.5832L51.3157 18.5302H42.793L43.127 16.6362Z" fill="#AFB9D2"/>
<path d="M53.1001 29.894H55.941L55.273 33.6819H52.4321L53.1001 29.894Z" fill="#F1F4FB"/>
<path d="M51.2062 29.894L50.8723 31.788C50.6879 32.8339 51.3863 33.6819 52.4323 33.6819H53.3793L54.0471 29.894H51.2062Z" fill="#FFC850"/>
<path d="M43.1822 10.9546H10.9852C10.4623 10.9546 9.96343 11.3786 9.87123 11.9016L6.53179 30.8409H3.69077C3.16731 30.8409 2.66899 31.265 2.57679 31.7879C2.48459 32.3108 2.83338 32.7349 3.35674 32.7349H9.98552C10.509 32.7349 10.8577 33.1589 10.7655 33.6818C10.6733 34.2048 10.175 34.6288 9.65149 34.6288H5.86362L5.19577 38.4167C5.10357 38.9396 5.45281 39.3637 5.97573 39.3637H39.1196L43.962 11.9016C44.0543 11.3784 43.7052 10.9546 43.1822 10.9546Z" fill="#101721"/>
<path d="M20.6076 34.6286C19.7204 34.0365 18.6336 33.6816 17.3942 33.6816C16.1549 33.6816 14.943 34.0365 13.847 34.6286H1.12876C0.605294 34.6286 0.106981 35.0527 0.014778 35.5756C-0.0774251 36.0985 0.271372 36.5225 0.794731 36.5225H5.52957L5.19565 38.4165C5.10345 38.9394 5.45268 39.3635 5.97561 39.3635H39.1195L39.9544 34.6286H20.6076Z" fill="#FE9D00"/>
<path d="M20.9605 40.3105C20.4995 42.9255 18.0057 45.0454 15.3908 45.0454C12.7759 45.0454 11.0298 42.9255 11.4908 40.3105C11.9518 37.6956 14.4456 35.5757 17.0605 35.5757C19.6755 35.5757 21.4216 37.6955 20.9605 40.3105Z" fill="#5B5D6E"/>
<path d="M19.0664 40.3106C18.7898 41.8796 17.2936 43.1515 15.7246 43.1515C14.1556 43.1515 13.108 41.8796 13.3846 40.3106C13.6612 38.7416 15.1575 37.4697 16.7265 37.4697C18.2956 37.4697 19.3431 38.7416 19.0664 40.3106Z" fill="#C7CFE2"/>
<path d="M17.1724 40.3107C17.0802 40.8337 16.5814 41.2577 16.0584 41.2577C15.5355 41.2577 15.1862 40.8337 15.2784 40.3107C15.3706 39.7878 15.8694 39.3638 16.3924 39.3638C16.9155 39.3638 17.2646 39.7878 17.1724 40.3107Z" fill="#7F8499"/>
<path d="M37.0898 27.2428L33.8028 24.4019C33.4399 24.0893 32.8316 24.1726 32.4442 24.5916C32.056 25.0095 32.0364 25.6033 32.4001 25.9168L33.7146 27.0534H11.6596C11.1361 27.0534 10.6379 27.4769 10.5456 28.0003C10.4533 28.5238 10.8022 28.9473 11.3255 28.9473H33.3807L31.6653 30.0839C31.1911 30.3974 31.0014 30.9911 31.2421 31.4091C31.3841 31.658 31.645 31.7882 31.9334 31.7882C32.1314 31.7882 32.3411 31.7263 32.5337 31.5986L36.8225 28.7577C37.0925 28.5792 37.2827 28.2981 37.3351 28.0003C37.3875 27.7026 37.2969 27.4213 37.0898 27.2428Z" fill="white"/>
</g>
<defs>
<clipPath id="clip0_797_73">
<rect width="56" height="56" fill="white"/>
</clipPath>
</defs>
</svg>
