<svg width="44" height="40" viewBox="0 0 44 40" fill="none" xmlns="http://www.w3.org/2000/svg">
<g clip-path="url(#clip0_797_92)">
<path d="M35.8615 13.2952H33.0393V10.0362C33.04 7.27016 31.8014 4.75024 29.806 2.93938C27.814 1.12602 25.0421 -0.00124896 21.9995 1.0385e-06C18.9575 -0.00124896 16.1856 1.12602 14.1936 2.93938C12.1989 4.75031 10.9596 7.27016 10.9609 10.0362V13.2952H8.13818C6.31648 13.2952 4.84033 14.6379 4.84033 16.2933V25.8057C4.84033 33.6448 12.5233 40 22.0001 40C31.4769 40 39.1599 33.6448 39.1599 25.8057V16.2933C39.16 14.6379 37.6832 13.2952 35.8615 13.2952ZM23.2504 26.7059L24.2562 30.6141H19.7434L20.7493 26.7053C19.5126 26.2543 18.6391 25.156 18.6391 23.8708C18.6391 22.1833 20.1438 20.8154 21.9995 20.8154C23.8564 20.8154 25.3611 22.1833 25.3611 23.8708C25.3611 25.156 24.4862 26.2543 23.2504 26.7059ZM29.1612 13.2952H14.8391V10.0362C14.8398 8.23203 15.6373 6.6161 16.9363 5.43203C18.2381 4.25109 20.0163 3.52672 21.9995 3.52547C23.9833 3.52672 25.7622 4.25172 27.064 5.43203C28.3624 6.6161 29.1599 8.23203 29.1612 10.0362V13.2952Z" fill="#FE9D00"/>
</g>
<defs>
<clipPath id="clip0_797_92">
<rect width="44" height="40" fill="white"/>
</clipPath>
</defs>
</svg>
