<svg width="32" height="31" viewBox="0 0 32 31" fill="none" xmlns="http://www.w3.org/2000/svg">
<path d="M32 3.7216C31.9994 4.70743 31.6077 5.65275 30.9108 6.35005C30.2139 7.04736 29.2688 7.43968 28.283 7.4409H27.117V26.7886C27.1158 27.774 26.7238 28.7188 26.027 29.4156C25.3302 30.1124 24.3854 30.5044 23.4 30.5056H3.71814C3.22987 30.5056 2.74638 30.4094 2.29527 30.2226C1.84417 30.0357 1.43428 29.7618 1.08902 29.4166C0.743757 29.0713 0.469881 28.6614 0.283027 28.2103C0.0961726 27.7592 0 27.2757 0 26.7875C0 26.2992 0.0961726 25.8157 0.283027 25.3646C0.469881 24.9135 0.743757 24.5036 1.08902 24.1583C1.43428 23.8131 1.84417 23.5392 2.29527 23.3523C2.74638 23.1655 3.22987 23.0693 3.71814 23.0693H4.88186V3.7216C4.88186 2.73497 5.27364 1.78872 5.97108 1.09085C6.66852 0.392977 7.61453 0.000610917 8.60116 0H28.2807C29.2669 0.000610481 30.2126 0.39266 30.91 1.09003C31.6073 1.7874 31.9994 2.73306 32 3.7193V3.7216ZM3.71814 27.9523H19.8651C19.6157 27.1965 19.6157 26.3807 19.8651 25.6249H3.72275C3.41411 25.6249 3.11812 25.7475 2.89988 25.9657C2.68164 26.184 2.55903 26.48 2.55903 26.7886C2.55903 27.0972 2.68164 27.3932 2.89988 27.6115C3.11812 27.8297 3.41411 27.9523 3.72275 27.9523H3.71814ZM24.5614 3.7216C24.5609 3.32638 24.6231 2.93358 24.7458 2.55788H8.60346C8.34439 2.55742 8.09273 2.64429 7.8891 2.80445L7.88449 2.80675C7.74529 2.91504 7.6328 3.05383 7.55569 3.21244C7.47859 3.37105 7.43892 3.54524 7.43974 3.7216V23.0693H22.0427C22.361 23.0657 22.671 23.1701 22.9222 23.3656C23.1734 23.5611 23.3508 23.8361 23.4253 24.1455C23.5129 24.4416 23.504 24.7579 23.4001 25.0487C23.2961 25.3395 23.1024 25.5897 22.8469 25.7632C22.6664 25.8612 22.515 26.0053 22.4082 26.1808C22.3014 26.3563 22.243 26.5569 22.2388 26.7623C22.2347 26.9677 22.285 27.1706 22.3846 27.3502C22.4843 27.5299 22.6297 27.68 22.8061 27.7852C22.9826 27.8905 23.1837 27.9471 23.3892 27.9495C23.5946 27.9518 23.797 27.8997 23.9757 27.7984C24.1545 27.6972 24.3033 27.5504 24.407 27.3731C24.5106 27.1957 24.5655 26.9941 24.566 26.7886L24.5614 3.7216ZM22.5796 7.03532H9.3063V9.58629H22.5796V7.03532ZM22.5796 12.2433H9.3063V14.7942H22.5796V12.2433ZM22.5796 17.4512H9.3063V20.0045H22.5796V17.4512ZM29.4444 3.7216C29.4438 3.41315 29.321 3.11751 29.1029 2.8994C28.8848 2.68129 28.5892 2.55849 28.2807 2.55788C28.0215 2.5567 27.7696 2.64364 27.5663 2.80445H27.5617C27.4219 2.91285 27.3089 3.05194 27.2314 3.21096C27.1539 3.36998 27.1139 3.54469 27.1147 3.7216V4.88532H28.2807C28.5892 4.88471 28.8848 4.76191 29.1029 4.5438C29.321 4.32569 29.4438 4.03005 29.4444 3.7216Z" fill="white"/>
</svg>
