<svg width="16" height="16" viewBox="0 0 16 16" fill="none" xmlns="http://www.w3.org/2000/svg">
<path d="M2.08696 0C0.88 0 0.00339674 0.773926 0.00339674 1.83835C0.00339674 2.9065 0.90087 3.71451 2.08696 3.71451C3.29391 3.71451 4.17052 2.92564 4.17052 1.81655C4.11486 0.748397 3.25565 0 2.08696 0ZM0.347826 4.4625C0.156522 4.4625 0 4.62998 0 4.83467V15.6278C0 15.8325 0.156522 16 0.347826 16H3.82609C4.01739 16 4.17391 15.8325 4.17391 15.6278V4.83467C4.17391 4.62998 4.01739 4.4625 3.82609 4.4625H0.347826ZM5.56522 4.4625C5.37391 4.4625 5.21739 4.62998 5.21739 4.83467V15.6278C5.21739 15.8325 5.37391 16 5.56522 16H8.69565C8.88765 16 9.04348 15.8333 9.04348 15.6278V10.0452V9.95211V9.85907C9.04348 8.97701 9.67674 8.25853 10.4837 8.19154C10.5254 8.1841 10.567 8.18427 10.6087 8.18427C10.6504 8.18427 10.692 8.1841 10.7337 8.19154C11.5407 8.25853 12.1739 8.97701 12.1739 9.85907V15.6278C12.1739 15.8333 12.3297 16 12.5217 16H15.6522C15.8435 16 16 15.8325 16 15.6278V9.3008C16 6.89282 14.7927 4.4625 12.1005 4.4625C10.8762 4.4625 9.9513 4.96874 9.3913 5.38931V4.83467C9.3913 4.62998 9.23478 4.4625 9.04348 4.4625H5.56522Z" fill="white"/>
</svg>
