<svg width="21" height="24" viewBox="0 0 21 24" fill="none" xmlns="http://www.w3.org/2000/svg">
<path d="M8.72727 24C5.8 21.5091 3.61364 19.1955 2.16818 17.0591C0.722727 14.9227 0 12.9455 0 11.1273C0 8.4 0.877273 6.22727 2.63182 4.60909C4.38636 2.99091 6.41818 2.18182 8.72727 2.18182H9.27273C9.45455 2.18182 9.63636 2.2 9.81818 2.23636V4.44545C9.63636 4.40909 9.45909 4.38636 9.28636 4.37727C9.11364 4.36818 8.92727 4.36364 8.72727 4.36364C6.89091 4.36364 5.34091 4.99545 4.07727 6.25909C2.81364 7.52273 2.18182 9.14545 2.18182 11.1273C2.18182 12.4182 2.71818 13.8955 3.79091 15.5591C4.86364 17.2227 6.50909 19.0727 8.72727 21.1091C10.9455 19.0727 12.5909 17.2227 13.6636 15.5591C14.7364 13.8955 15.2727 12.4182 15.2727 11.1273V10.9091H17.4545V11.1273C17.4545 12.9455 16.7318 14.9227 15.2864 17.0591C13.8409 19.1955 11.6545 21.5091 8.72727 24ZM8.72727 13.0909C9.32727 13.0909 9.84091 12.8773 10.2682 12.45C10.6955 12.0227 10.9091 11.5091 10.9091 10.9091C10.9091 10.3091 10.6955 9.79545 10.2682 9.36818C9.84091 8.94091 9.32727 8.72727 8.72727 8.72727C8.12727 8.72727 7.61364 8.94091 7.18636 9.36818C6.75909 9.79545 6.54545 10.3091 6.54545 10.9091C6.54545 11.5091 6.75909 12.0227 7.18636 12.45C7.61364 12.8773 8.12727 13.0909 8.72727 13.0909ZM15.2727 8.72727H17.4545V5.45455H20.7273V3.27273H17.4545V0H15.2727V3.27273H12V5.45455H15.2727V8.72727Z" fill="#FE9D00"/>
</svg>
