<svg width="36" height="34" viewBox="0 0 36 34" fill="none" xmlns="http://www.w3.org/2000/svg">
<path d="M16.6779 3.62074C17.0968 2.69687 17.3063 2.23494 17.598 2.09269C17.8513 1.9691 18.1488 1.9691 18.4021 2.09269C18.6938 2.23494 18.9033 2.69687 19.3222 3.62074L22.6588 10.9795C22.7827 11.2526 22.8446 11.3891 22.9405 11.4937C23.0252 11.5862 23.1288 11.6602 23.2445 11.7109C23.3753 11.7682 23.5266 11.7839 23.8291 11.8152L31.9793 12.6609C33.0025 12.7671 33.5141 12.8201 33.7419 13.0489C33.9396 13.2475 34.0316 13.5257 33.9903 13.8008C33.9429 14.1174 33.5608 14.4559 32.7964 15.1331L26.7083 20.5268C26.4824 20.7269 26.3694 20.827 26.2979 20.9489C26.2345 21.0568 26.1949 21.1765 26.1817 21.3004C26.1667 21.4403 26.1982 21.5866 26.2613 21.8792L27.9618 29.7604C28.1753 30.75 28.2821 31.2447 28.1312 31.5282C28 31.7747 27.7594 31.9466 27.4805 31.993C27.1595 32.0463 26.7139 31.7938 25.8225 31.2884L18.7232 27.263C18.4598 27.1136 18.3281 27.0391 18.188 27.0097C18.0641 26.9839 17.936 26.9839 17.812 27.0097C17.672 27.0391 17.5402 27.1136 17.2768 27.263L10.1775 31.2884C9.28624 31.7938 8.84059 32.0463 8.51958 31.993C8.24073 31.9466 8 31.7747 7.86893 31.5282C7.71804 31.2447 7.82478 30.75 8.03827 29.7604L9.7387 21.8792C9.80182 21.5866 9.83337 21.4403 9.81839 21.3004C9.80513 21.1765 9.76555 21.0568 9.70222 20.9489C9.63066 20.827 9.51768 20.7269 9.29174 20.5268L3.20369 15.1331C2.43937 14.4559 2.0572 14.1174 2.00969 13.8008C1.96843 13.5257 2.06037 13.2475 2.25821 13.0489C2.48598 12.8201 2.9976 12.7671 4.02083 12.6609L12.171 11.8152C12.4735 11.7839 12.6248 11.7682 12.7555 11.7109C12.8713 11.6602 12.9749 11.5862 13.0597 11.4937C13.1555 11.3891 13.2174 11.2526 13.3412 10.9795L16.6779 3.62074Z" stroke="white" stroke-width="3" stroke-linecap="round" stroke-linejoin="round"/>
</svg>
