<svg width="17" height="13" viewBox="0 0 17 13" fill="none" xmlns="http://www.w3.org/2000/svg">
<path d="M3.58439 12.5C2.96235 12.5 2.43422 12.2825 2 11.8474C1.56577 11.4123 1.34866 10.884 1.34866 10.2625H0V1.94063C0 1.53807 0.139464 1.19732 0.418393 0.918393C0.697321 0.639464 1.03806 0.5 1.44061 0.5H12.2912V3.5345H14.4061L16.9809 6.9828V10.2625H15.5403C15.5403 10.884 15.3226 11.4123 14.8871 11.8474C14.4517 12.2825 13.923 12.5 13.3009 12.5C12.6789 12.5 12.1508 12.2825 11.7165 11.8474C11.2823 11.4123 11.0652 10.884 11.0652 10.2625H5.82375C5.82375 10.8857 5.60603 11.4144 5.1706 11.8487C4.73518 12.2829 4.20644 12.5 3.58439 12.5ZM3.5862 11.3046C3.87841 11.3046 4.12516 11.204 4.32644 11.0027C4.52772 10.8014 4.62836 10.5547 4.62836 10.2625C4.62836 9.97025 4.52772 9.7235 4.32644 9.52222C4.12516 9.32094 3.87841 9.2203 3.5862 9.2203C3.29398 9.2203 3.04723 9.32094 2.84595 9.52222C2.64467 9.7235 2.54403 9.97025 2.54403 10.2625C2.54403 10.5547 2.64467 10.8014 2.84595 11.0027C3.04723 11.204 3.29398 11.3046 3.5862 11.3046ZM1.19539 9.06709H1.77163C1.94122 8.77181 2.18617 8.52429 2.50649 8.32454C2.82681 8.12479 3.18671 8.02491 3.5862 8.02491C3.97548 8.02491 4.33283 8.12351 4.65824 8.32072C4.98366 8.5179 5.23117 8.7667 5.40077 9.06709H11.0958V1.69539H1.44061C1.37931 1.69539 1.32311 1.72093 1.27201 1.77201C1.22093 1.82311 1.19539 1.87932 1.19539 1.94063V9.06709ZM13.3027 11.3046C13.5949 11.3046 13.8417 11.204 14.043 11.0027C14.2443 10.8014 14.3449 10.5547 14.3449 10.2625C14.3449 9.97025 14.2443 9.7235 14.043 9.52222C13.8417 9.32094 13.5949 9.2203 13.3027 9.2203C13.0105 9.2203 12.7638 9.32094 12.5625 9.52222C12.3612 9.7235 12.2606 9.97025 12.2606 10.2625C12.2606 10.5547 12.3612 10.8014 12.5625 11.0027C12.7638 11.204 13.0105 11.3046 13.3027 11.3046ZM12.2912 7.47321H15.8621L13.7931 4.72987H12.2912V7.47321Z" fill="#FE9D00"/>
</svg>
