<svg width="49" height="48" viewBox="0 0 49 48" fill="none" xmlns="http://www.w3.org/2000/svg">
<path d="M12.5 40C10.8333 40 9.41667 39.4167 8.25 38.25C7.08333 37.0833 6.5 35.6667 6.5 34H2.5V12C2.5 10.9 2.89167 9.95833 3.675 9.175C4.45833 8.39167 5.4 8 6.5 8H34.5V16H40.5L46.5 24V34H42.5C42.5 35.6667 41.9167 37.0833 40.75 38.25C39.5833 39.4167 38.1667 40 36.5 40C34.8333 40 33.4167 39.4167 32.25 38.25C31.0833 37.0833 30.5 35.6667 30.5 34H18.5C18.5 35.6667 17.9167 37.0833 16.75 38.25C15.5833 39.4167 14.1667 40 12.5 40ZM12.5 36C13.0667 36 13.5417 35.8083 13.925 35.425C14.3083 35.0417 14.5 34.5667 14.5 34C14.5 33.4333 14.3083 32.9583 13.925 32.575C13.5417 32.1917 13.0667 32 12.5 32C11.9333 32 11.4583 32.1917 11.075 32.575C10.6917 32.9583 10.5 33.4333 10.5 34C10.5 34.5667 10.6917 35.0417 11.075 35.425C11.4583 35.8083 11.9333 36 12.5 36ZM6.5 30H8.1C8.66667 29.4 9.31667 28.9167 10.05 28.55C10.7833 28.1833 11.6 28 12.5 28C13.4 28 14.2167 28.1833 14.95 28.55C15.6833 28.9167 16.3333 29.4 16.9 30H30.5V12H6.5V30ZM36.5 36C37.0667 36 37.5417 35.8083 37.925 35.425C38.3083 35.0417 38.5 34.5667 38.5 34C38.5 33.4333 38.3083 32.9583 37.925 32.575C37.5417 32.1917 37.0667 32 36.5 32C35.9333 32 35.4583 32.1917 35.075 32.575C34.6917 32.9583 34.5 33.4333 34.5 34C34.5 34.5667 34.6917 35.0417 35.075 35.425C35.4583 35.8083 35.9333 36 36.5 36ZM34.5 26H43L38.5 20H34.5V26Z" fill="white"/>
</svg>
