<svg width="48" height="48" viewBox="0 0 48 48" fill="none" xmlns="http://www.w3.org/2000/svg">
<path d="M2 40V34.4C2 33.2667 2.29167 32.225 2.875 31.275C3.45833 30.325 4.23333 29.6 5.2 29.1C7.26667 28.0667 9.36667 27.2917 11.5 26.775C13.6333 26.2583 15.8 26 18 26C20.2 26 22.3667 26.2583 24.5 26.775C26.6333 27.2917 28.7333 28.0667 30.8 29.1C31.7667 29.6 32.5417 30.325 33.125 31.275C33.7083 32.225 34 33.2667 34 34.4V40H2ZM38 40V34C38 32.5333 37.5917 31.125 36.775 29.775C35.9583 28.425 34.8 27.2667 33.3 26.3C35 26.5 36.6 26.8417 38.1 27.325C39.6 27.8083 41 28.4 42.3 29.1C43.5 29.7667 44.4167 30.5083 45.05 31.325C45.6833 32.1417 46 33.0333 46 34V40H38ZM18 24C15.8 24 13.9167 23.2167 12.35 21.65C10.7833 20.0833 10 18.2 10 16C10 13.8 10.7833 11.9167 12.35 10.35C13.9167 8.78333 15.8 8 18 8C20.2 8 22.0833 8.78333 23.65 10.35C25.2167 11.9167 26 13.8 26 16C26 18.2 25.2167 20.0833 23.65 21.65C22.0833 23.2167 20.2 24 18 24ZM38 16C38 18.2 37.2167 20.0833 35.65 21.65C34.0833 23.2167 32.2 24 30 24C29.6333 24 29.1667 23.9583 28.6 23.875C28.0333 23.7917 27.5667 23.7 27.2 23.6C28.1 22.5333 28.7917 21.35 29.275 20.05C29.7583 18.75 30 17.4 30 16C30 14.6 29.7583 13.25 29.275 11.95C28.7917 10.65 28.1 9.46667 27.2 8.4C27.6667 8.23333 28.1333 8.125 28.6 8.075C29.0667 8.025 29.5333 8 30 8C32.2 8 34.0833 8.78333 35.65 10.35C37.2167 11.9167 38 13.8 38 16ZM6 36H30V34.4C30 34.0333 29.9083 33.7 29.725 33.4C29.5417 33.1 29.3 32.8667 29 32.7C27.2 31.8 25.3833 31.125 23.55 30.675C21.7167 30.225 19.8667 30 18 30C16.1333 30 14.2833 30.225 12.45 30.675C10.6167 31.125 8.8 31.8 7 32.7C6.7 32.8667 6.45833 33.1 6.275 33.4C6.09167 33.7 6 34.0333 6 34.4V36ZM18 20C19.1 20 20.0417 19.6083 20.825 18.825C21.6083 18.0417 22 17.1 22 16C22 14.9 21.6083 13.9583 20.825 13.175C20.0417 12.3917 19.1 12 18 12C16.9 12 15.9583 12.3917 15.175 13.175C14.3917 13.9583 14 14.9 14 16C14 17.1 14.3917 18.0417 15.175 18.825C15.9583 19.6083 16.9 20 18 20Z" fill="white"/>
</svg>
