<svg width="50" height="50" viewBox="0 0 50 50" fill="none" xmlns="http://www.w3.org/2000/svg">
<path d="M28 40.645C27.8211 40.6446 27.6482 40.5803 27.5125 40.4637C27.3768 40.347 27.2873 40.1857 27.2602 40.0088C27.233 39.832 27.27 39.6512 27.3644 39.4992C27.4588 39.3472 27.6044 39.234 27.775 39.18L36.005 36.605C36.1924 36.5529 36.3927 36.5757 36.5636 36.6686C36.7346 36.7614 36.8627 36.917 36.9211 37.1025C36.9795 37.288 36.9635 37.489 36.8766 37.663C36.7896 37.8369 36.6385 37.9703 36.455 38.035L28.245 40.61C28.1661 40.636 28.0831 40.6479 28 40.645Z" fill="#ABABAB"/>
<path d="M28 37.1451C27.8211 37.1448 27.6482 37.0805 27.5125 36.9638C27.3768 36.8471 27.2873 36.6858 27.2602 36.509C27.233 36.3321 27.27 36.1514 27.3644 35.9994C27.4588 35.8474 27.6044 35.7341 27.775 35.6801L33.04 34.0351C33.2297 33.9741 33.4358 33.9909 33.613 34.0819C33.7902 34.1728 33.924 34.3305 33.985 34.5201C34.046 34.7097 34.0292 34.9158 33.9382 35.0931C33.8473 35.2703 33.6897 35.4041 33.5 35.4651L28.245 37.1101C28.1661 37.1361 28.0831 37.148 28 37.1451Z" fill="#ABABAB"/>
<path d="M11.63 15.04C11.5888 15.0204 11.545 15.007 11.5 15H11.53C11.5643 15.0107 11.5978 15.0241 11.63 15.04Z" fill="black"/>
<path d="M18.8701 17.7402C18.7672 17.8504 18.7024 17.9906 18.6851 18.1402C18.6857 18.0893 18.6941 18.0387 18.7101 17.9902C18.7356 17.9134 18.7727 17.8409 18.8201 17.7752L18.8701 17.7402Z" fill="black"/>
<path d="M44.685 13.9999C44.6897 13.9718 44.6897 13.9431 44.685 13.9149C44.6878 13.8867 44.6878 13.8582 44.685 13.8299C44.6754 13.8024 44.6637 13.7756 44.65 13.7499C44.6138 13.6697 44.5609 13.5981 44.495 13.5399L44.385 13.4999C44.3408 13.4651 44.292 13.4364 44.24 13.4149H44.2L31.17 7.91494L25.435 5.46994H25.39C25.3482 5.45206 25.3046 5.43865 25.26 5.42994C25.1548 5.40486 25.0452 5.40486 24.94 5.42994C24.8953 5.43865 24.8518 5.45206 24.81 5.46994H24.78L5.77996 13.3699C5.73411 13.3883 5.69049 13.4117 5.64996 13.4399C5.62146 13.4592 5.59616 13.4828 5.57496 13.5099C5.55365 13.5212 5.53622 13.5386 5.52496 13.5599C5.44467 13.6446 5.3863 13.7476 5.35496 13.8599C5.3349 13.9247 5.32478 13.9921 5.32496 14.0599V38.4349C5.32427 38.5946 5.37492 38.7504 5.46945 38.8791C5.56397 39.0078 5.69737 39.1028 5.84996 39.1499L24.58 44.9999L25.29 45.0849L35 42.0549L44.135 39.1949C44.2833 39.1441 44.4117 39.0475 44.5015 38.919C44.5914 38.7905 44.6381 38.6367 44.635 38.4799V14.0949C44.6547 14.065 44.6715 14.0332 44.685 13.9999ZM24.27 43.3349L6.81996 37.8849V15.0699L10.46 16.2099V26.3299C10.4601 26.4854 10.5082 26.6369 10.5977 26.764C10.6872 26.8911 10.8137 26.9874 10.96 27.0399L11.075 27.0799H11.135H11.185C11.2281 27.0851 11.2718 27.0851 11.315 27.0799H11.37C11.3863 27.0847 11.4036 27.0847 11.42 27.0799C11.4447 27.0847 11.4702 27.0847 11.495 27.0799L11.61 27.0449C11.637 27.0337 11.6623 27.0185 11.685 26.9999C11.7147 26.9845 11.7418 26.9642 11.765 26.9399L11.805 26.9049L15.215 23.9049L18.715 29.3649L18.76 29.4399C18.8154 29.528 18.8884 29.6037 18.9744 29.6622C19.0605 29.7207 19.1577 29.7608 19.26 29.7799H19.48C19.5013 29.785 19.5236 29.785 19.545 29.7799C19.5613 29.7844 19.5786 29.7844 19.595 29.7799H19.655C19.6957 29.765 19.7344 29.7448 19.77 29.7199C19.81 29.6943 19.8469 29.6641 19.88 29.6299L20 29.4999C20.0244 29.4738 20.0461 29.4453 20.065 29.4149C20.095 29.3756 20.1186 29.3317 20.135 29.2849C20.1552 29.2401 20.1703 29.1931 20.18 29.1449C20.1849 29.0951 20.1849 29.0448 20.18 28.9949V19.2499L24.27 20.5249V43.3349ZM19.185 17.4999L19.135 17.5349L18.87 17.7349C18.7671 17.8451 18.7023 17.9853 18.685 18.1349C18.6825 18.1649 18.6825 18.195 18.685 18.2249V26.4399L16.085 22.3699C16.0871 22.3567 16.0871 22.3432 16.085 22.3299C16.0667 22.2976 16.0449 22.2674 16.02 22.2399C15.9875 22.2056 15.9524 22.1738 15.915 22.1449C15.8809 22.1152 15.842 22.0915 15.8 22.0749L15.73 22.0399C15.7016 22.0255 15.6713 22.0154 15.64 22.0099L15.5 21.9999C15.4353 21.9899 15.3696 21.9899 15.305 21.9999H15.2C15.138 22.0154 15.0789 22.0407 15.025 22.0749L14.925 22.1449L14.865 22.1999L11.95 24.7799V16.4049C11.9967 16.3986 12.0423 16.3851 12.085 16.3649L20.37 12.9199L25.08 15.0499L19.185 17.4999ZM25.085 19.2049L21.615 18.1149L27.265 15.7649L27.385 15.6999C27.425 15.6743 27.4619 15.6441 27.495 15.6099C27.5652 15.5454 27.6213 15.4671 27.66 15.3799C27.6777 15.3416 27.6912 15.3013 27.7 15.2599C27.7027 15.2484 27.7027 15.2364 27.7 15.2249C27.7051 15.1818 27.7051 15.1381 27.7 15.0949C27.7006 15.0169 27.6888 14.9393 27.665 14.8649C27.665 14.8649 27.665 14.8199 27.64 14.7999C27.6253 14.764 27.6086 14.7289 27.59 14.6949L27.525 14.6049C27.4955 14.568 27.4619 14.5344 27.425 14.5049H27.39C27.3517 14.4708 27.3077 14.4437 27.26 14.4249L20.755 11.4449H20.72C20.6239 11.3992 20.5189 11.3754 20.4125 11.3754C20.3061 11.3754 20.201 11.3992 20.105 11.4449L11.53 14.9999C11.5651 15.0187 11.5986 15.0404 11.63 15.0649C11.5903 15.0367 11.5464 15.0147 11.5 14.9999C11.4809 14.985 11.4587 14.9747 11.435 14.9699L8.26996 13.9699L25.1 6.96994L30.6 9.28494L41.76 13.9999L25.085 19.2049ZM43.19 37.9249L34.58 40.6199L25.77 43.3749V20.5649L43.19 15.1149V37.9249Z" fill="#ABABAB"/>
<path d="M11.63 15.04C11.5888 15.0204 11.545 15.007 11.5 15C11.5446 15.009 11.5881 15.0224 11.63 15.04Z" fill="black"/>
<path d="M18.87 17.7402C18.7672 17.8504 18.7024 17.9906 18.685 18.1402C18.6825 18.1702 18.6825 18.2003 18.685 18.2302V18.3652C18.6647 18.2626 18.6667 18.1568 18.6909 18.055C18.715 17.9532 18.7608 17.8578 18.825 17.7752L18.87 17.7402Z" fill="black"/>
</svg>
