<svg width="50" height="50" viewBox="0 0 50 50" fill="none" xmlns="http://www.w3.org/2000/svg">
<path d="M3.87498 21.1063L28.8937 46.125C29.1144 46.3455 29.3961 46.4949 29.7024 46.5539C30.0087 46.6129 30.3257 46.5789 30.6125 46.4562L42.9875 41.1562C43.222 41.0555 43.4282 40.8987 43.5881 40.6998C43.7481 40.5009 43.8568 40.2659 43.9049 40.0152C43.953 39.7645 43.939 39.5059 43.864 39.2619C43.7891 39.018 43.6555 38.7961 43.475 38.6156L35.9625 31.1C35.7308 30.868 35.4319 30.7149 35.1083 30.6621C34.7847 30.6094 34.4527 30.6598 34.1594 30.8062L30.7469 32.5125L17.4844 19.25L19.1937 15.8375C19.3405 15.5444 19.3915 15.2126 19.3393 14.8891C19.2871 14.5655 19.1346 14.2665 18.9031 14.0344L11.3844 6.52187C11.2037 6.34144 10.9816 6.20803 10.7375 6.1333C10.4933 6.05858 10.2346 6.04482 9.9839 6.09323C9.73321 6.14164 9.4982 6.25075 9.29944 6.411C9.10067 6.57126 8.94421 6.77778 8.84373 7.0125L3.54061 19.3875C3.41794 19.6743 3.38393 19.9913 3.44297 20.2976C3.502 20.6039 3.65138 20.8856 3.87186 21.1063H3.87498ZM6.82811 19.6437L10.8094 10.3625L15.8969 15.4531L14.6937 17.8563L13.6875 19.8687L15.2781 21.4625L28.5375 34.7219L30.1312 36.3156L32.1437 35.3063L34.55 34.1062L39.6375 39.1906L30.3562 43.1688L6.82811 19.6437ZM25 15.625V12.5C28.3152 12.5 31.4946 13.817 33.8388 16.1612C36.183 18.5054 37.5 21.6848 37.5 25H34.375C34.375 22.5136 33.3873 20.129 31.6291 18.3709C29.871 16.6127 27.4864 15.625 25 15.625ZM25 6.25V3.125C30.8016 3.125 36.3656 5.42968 40.4679 9.53204C44.5703 13.6344 46.875 19.1984 46.875 25H43.75C43.75 20.0272 41.7745 15.2581 38.2582 11.7417C34.7419 8.22544 29.9728 6.25 25 6.25Z" fill="#ABABAB"/>
</svg>
