<svg width="50" height="50" viewBox="0 0 50 50" fill="none" xmlns="http://www.w3.org/2000/svg">
<g clip-path="url(#clip0_1752_73)">
<path d="M12.9519 20.5874C14.1448 22.6816 16.3982 24.0967 18.976 24.0967C21.5537 24.0967 23.807 22.6816 25.0001 20.5874C26.1931 22.6816 28.4465 24.0967 31.0242 24.0967C33.602 24.0967 35.8553 22.6816 37.0483 20.5874C38.2413 22.6816 40.4947 24.0967 43.0725 24.0967C46.8925 24.0967 50.0002 20.989 50.0002 17.1689V13.5545C50.0002 13.3049 49.899 13.0789 49.7354 12.9154L42.5065 5.68662C42.3371 5.51709 42.1072 5.42188 41.8677 5.42188H16.6466C16.1476 5.42188 15.743 5.82646 15.743 6.32549C15.743 6.82451 16.1476 7.2291 16.6466 7.2291H41.4932L46.9148 12.6508H3.08506L8.50674 7.2291H13.0321C13.5312 7.2291 13.9357 6.82451 13.9357 6.32549C13.9357 5.82646 13.5312 5.42188 13.0321 5.42188H8.13252C7.89287 5.42188 7.66299 5.51709 7.49365 5.68662L0.264844 12.9154C0.101172 13.079 0 13.3049 0 13.5545V17.1689C0 18.6138 0.445215 19.9563 1.20479 21.0678V40.0605C1.20479 40.5596 1.60938 40.9642 2.1084 40.9642H17.3383C19.1629 43.1704 21.92 44.5786 25 44.5786C28.08 44.5786 30.8371 43.1704 32.6617 40.9642H47.8916C48.3906 40.9642 48.7952 40.5596 48.7952 40.0605V25.4421C48.7952 24.9431 48.3906 24.5385 47.8916 24.5385C47.3926 24.5385 46.988 24.9431 46.988 25.4421V39.1569H33.849C34.5013 37.8846 34.8866 36.4547 34.932 34.94H41.8675C42.3665 34.94 42.7711 34.5354 42.7711 34.0364V27.1288C42.7711 26.6298 42.3665 26.2252 41.8675 26.2252C41.3685 26.2252 40.9639 26.6298 40.9639 27.1288V33.1328H34.8258C34.0979 28.3642 29.969 24.6991 25 24.6991C20.031 24.6991 15.9022 28.3642 15.1742 33.1328H9.03613V23.7683C10.704 23.2343 12.0989 22.0845 12.9519 20.5874ZM25 26.5063C29.4844 26.5063 33.1325 30.1545 33.1325 34.6389C33.1325 39.1232 29.4844 42.7714 25 42.7714C20.5156 42.7714 16.8675 39.1232 16.8675 34.6389C16.8675 30.1545 20.5156 26.5063 25 26.5063ZM15.0679 34.94C15.1133 36.4546 15.4986 37.8845 16.1509 39.1569H3.01201V22.8799C4.12666 23.6467 5.47539 24.0967 6.92764 24.0967C7.02861 24.0967 7.12881 24.0938 7.22881 24.0895V34.0364C7.22881 34.5354 7.6334 34.94 8.13242 34.94H15.0679ZM6.92774 22.2895C4.1042 22.2895 1.80723 19.9925 1.80723 17.1689V14.4581H48.1928V17.1689C48.1928 19.9925 45.8958 22.2895 43.0723 22.2895C40.2487 22.2895 37.9518 19.9925 37.9518 17.1689C37.9518 16.6699 37.5472 16.2653 37.0481 16.2653C36.5491 16.2653 36.1445 16.6699 36.1445 17.1689C36.1445 19.9925 33.8476 22.2895 31.024 22.2895C28.2005 22.2895 25.9035 19.9925 25.9035 17.1689C25.9035 16.6699 25.4989 16.2653 24.9999 16.2653C24.5009 16.2653 24.0963 16.6699 24.0963 17.1689C24.0963 19.9925 21.7993 22.2895 18.9758 22.2895C16.1522 22.2895 13.8553 19.9925 13.8553 17.1689C13.8553 16.6699 13.4507 16.2653 12.9517 16.2653C12.4526 16.2653 12.048 16.6699 12.048 17.1689C12.0481 19.9925 9.75117 22.2895 6.92774 22.2895Z" fill="black"/>
<path d="M21.385 32.5297C22.2154 32.5297 22.891 31.8541 22.891 31.0236C22.891 30.1932 22.2154 29.5176 21.385 29.5176C20.5545 29.5176 19.8789 30.1932 19.8789 31.0236C19.8789 31.8541 20.5545 32.5297 21.385 32.5297Z" fill="black"/>
<path d="M28.6154 36.748C27.785 36.748 27.1094 37.4236 27.1094 38.2541C27.1094 39.0846 27.785 39.7602 28.6154 39.7602C29.4459 39.7602 30.1215 39.0846 30.1215 38.2541C30.1215 37.4236 29.4459 36.748 28.6154 36.748Z" fill="black"/>
<path d="M20.1436 39.4938C20.32 39.6703 20.5513 39.7585 20.7825 39.7585C21.0136 39.7585 21.245 39.6704 21.4213 39.4938L29.855 31.0601C30.208 30.7072 30.208 30.135 29.855 29.7823C29.5021 29.4293 28.9299 29.4293 28.5772 29.7823L20.1435 38.216C19.7907 38.5689 19.7907 39.1411 20.1436 39.4938Z" fill="black"/>
</g>
<defs>
<clipPath id="clip0_1752_73">
<rect width="50" height="50" fill="white"/>
</clipPath>
</defs>
</svg>
