<svg width="55" height="55" viewBox="0 0 55 55" fill="none" xmlns="http://www.w3.org/2000/svg">
<g id="quality-certificate-award 1">
<g id="17 quality">
<path id="Vector" d="M34.7186 17.6778C34.6614 17.5061 34.5519 17.3566 34.4055 17.2503C34.2591 17.144 34.0831 17.0861 33.9022 17.0848H29.6311L28.3162 13.0285C28.2597 12.8566 28.1504 12.7069 28.0038 12.6008C27.8572 12.4946 27.6808 12.4375 27.4998 12.4375C27.3188 12.4375 27.1425 12.4946 26.9959 12.6008C26.8493 12.7069 26.7399 12.8566 26.6834 13.0285L25.3686 17.0848H21.0975C20.9165 17.0861 20.7405 17.144 20.5941 17.2503C20.4477 17.3566 20.3383 17.5061 20.2811 17.6778C20.224 17.8511 20.224 18.0382 20.2813 18.2115C20.3385 18.3847 20.4499 18.5351 20.599 18.6403L24.0451 21.1496L22.7303 25.2059C22.6735 25.3784 22.6729 25.5645 22.7285 25.7374C22.7841 25.9104 22.893 26.0612 23.0397 26.1684C23.188 26.2732 23.3651 26.3295 23.5467 26.3295C23.7283 26.3295 23.9054 26.2732 24.0537 26.1684L27.4998 23.659L30.9459 26.1684C31.0955 26.2709 31.2717 26.3276 31.4529 26.3317C31.6347 26.3303 31.8116 26.2733 31.96 26.1684C32.1066 26.0612 32.2156 25.9104 32.2712 25.7374C32.3268 25.5645 32.3261 25.3784 32.2694 25.2059L30.9545 21.1496L34.4006 18.6403C34.5497 18.5351 34.6611 18.3847 34.7184 18.2115C34.7756 18.0382 34.7757 17.8511 34.7186 17.6778ZM29.442 20.127C29.2944 20.2335 29.1843 20.3839 29.1272 20.5567C29.0701 20.7296 29.069 20.916 29.124 21.0895L29.8201 23.2207L28.0069 21.8973C27.8591 21.7911 27.6818 21.734 27.4998 21.734C27.3179 21.734 27.1405 21.7911 26.9928 21.8973L25.1795 23.2207L25.8756 21.0895C25.9307 20.916 25.9296 20.7296 25.8725 20.5567C25.8154 20.3839 25.7052 20.2335 25.5576 20.127L23.7444 18.8035H25.9873C26.1688 18.8046 26.3459 18.7476 26.4928 18.641C26.6397 18.5343 26.7486 18.3835 26.8037 18.2106L27.4998 16.0793L28.1959 18.2106C28.251 18.3835 28.36 18.5343 28.5068 18.641C28.6537 18.7476 28.8308 18.8046 29.0123 18.8035H31.2553L29.442 20.127Z" fill="#FE9D00"/>
<path id="Vector_2" d="M27.5001 8.81836C24.5662 8.81755 21.7455 9.95011 19.6268 11.9796C17.5081 14.009 16.2553 16.7785 16.13 19.7096C16.0047 22.6408 17.0165 25.5071 18.9543 27.71C20.892 29.9128 23.6058 31.282 26.529 31.5316C26.8555 31.5574 27.1735 31.5746 27.5001 31.5746C27.7922 31.5746 28.093 31.5574 28.3852 31.5316H28.4711V31.523C31.3932 31.2735 34.106 29.9048 36.0429 27.7027C37.9799 25.5006 38.9913 22.6354 38.866 19.7053C38.7406 16.7753 37.4883 14.0069 35.3704 11.9782C33.2525 9.94959 30.4328 8.8175 27.5001 8.81836ZM35.9305 24.9059C35.9282 24.9059 35.9261 24.9068 35.9244 24.9084C35.9228 24.91 35.9219 24.9122 35.9219 24.9145C35.1532 26.2921 34.0574 27.4595 32.7311 28.3137C31.4048 29.168 29.8887 29.6828 28.3165 29.8129L28.3079 29.8215H28.2993C27.7619 29.8744 27.2204 29.8715 26.6836 29.8129C24.6063 29.6359 22.642 28.7913 21.0845 27.4053C19.527 26.0193 18.4599 24.1665 18.0428 22.1238C17.6257 20.081 17.8809 17.9582 18.7703 16.0725C19.6597 14.1869 21.1356 12.6398 22.9772 11.6625C24.8188 10.6852 26.9273 10.3302 28.9874 10.6506C31.0476 10.971 32.9486 11.9496 34.4065 13.4401C35.8643 14.9305 36.8005 16.8528 37.0752 18.9195C37.3499 20.9862 36.9484 23.0863 35.9305 24.9059Z" fill="black"/>
<path id="Vector_3" d="M50.6 45.3154L47.3687 40.3052C45.057 36.7388 42.7482 33.1667 40.4422 29.5888C40.6226 29.5201 40.8289 29.4427 41.0351 29.374C41.5009 29.2807 41.9435 29.096 42.3374 28.8304C42.7312 28.5649 43.0685 28.2239 43.3297 27.8271C43.4757 27.3785 43.5319 26.9054 43.495 26.435C43.4582 25.9646 43.329 25.5061 43.1148 25.0857C42.9128 24.6459 42.8045 24.1689 42.7969 23.6849C43.0097 23.2713 43.3051 22.9057 43.6648 22.6107C44.0474 22.321 44.3689 21.9585 44.6107 21.5441C44.8526 21.1296 45.0101 20.6714 45.0742 20.1959C45.0111 19.7212 44.8539 19.2639 44.6119 18.8508C44.3699 18.4376 44.0479 18.0768 43.6648 17.7896C43.3064 17.4899 43.0114 17.1218 42.7969 16.7068C42.8045 16.2229 42.9128 15.7458 43.1148 15.306C43.3288 14.8871 43.4579 14.43 43.4948 13.961C43.5317 13.4921 43.4756 13.0204 43.3297 12.5732C43.0678 12.1771 42.7303 11.8366 42.3365 11.5711C41.9428 11.3057 41.5006 11.1206 41.0351 11.0263C40.5723 10.9093 40.1371 10.7019 39.7547 10.4162C39.5645 9.97885 39.4595 9.50926 39.4453 9.03258C39.4582 8.55897 39.3776 8.08745 39.208 7.64505C39.0384 7.20266 38.7832 6.79806 38.457 6.45446C37.6356 5.9709 36.6563 5.83189 35.7328 6.06774C35.2651 6.16428 34.7826 6.16428 34.3148 6.06774C33.9549 5.7662 33.6596 5.39495 33.4469 4.97633C33.2514 4.53779 32.9707 4.1425 32.6211 3.81349C32.2714 3.48448 31.8598 3.22832 31.4101 3.05993C30.9445 3.0199 30.4756 3.07217 30.0303 3.21374C29.5849 3.35531 29.1719 3.5834 28.8148 3.88493C28.4245 4.18243 27.9768 4.39602 27.5 4.51227C27.0231 4.39602 26.5755 4.18243 26.1851 3.88493C25.8294 3.58406 25.4178 3.35633 24.974 3.21476C24.5301 3.07319 24.0627 3.02058 23.5984 3.05993C23.1469 3.22684 22.7334 3.48237 22.3821 3.81149C22.0309 4.1406 21.749 4.53665 21.5531 4.97633C21.34 5.39235 21.0482 5.76301 20.6937 6.06774C20.2231 6.16414 19.7378 6.16414 19.2672 6.06774C18.3465 5.83178 17.3698 5.97086 16.5515 6.45446C16.2217 6.79765 15.9636 7.2032 15.7924 7.64736C15.6213 8.09153 15.5404 8.56538 15.5547 9.04118C15.5459 9.51669 15.4376 9.98509 15.2367 10.4162C14.862 10.7024 14.4318 10.9073 13.9734 11.0177C13.0313 11.2083 12.203 11.7645 11.6703 12.5646C11.5243 13.0133 11.4681 13.4863 11.5049 13.9567C11.5418 14.4271 11.671 14.8856 11.8851 15.306C12.0871 15.7458 12.1954 16.2229 12.2031 16.7068C11.9886 17.1218 11.6935 17.4899 11.3351 17.7896C10.952 18.0768 10.6301 18.4376 10.3881 18.8508C10.1461 19.2639 9.9889 19.7212 9.92577 20.1959C9.98984 20.6714 10.1474 21.1296 10.3892 21.5441C10.6311 21.9585 10.9526 22.321 11.3351 22.6107C11.6948 22.9057 11.9902 23.2713 12.2031 23.6849C12.1954 24.1689 12.0871 24.6459 11.8851 25.0857C11.6712 25.5046 11.542 25.9617 11.5052 26.4307C11.4683 26.8997 11.5244 27.3713 11.6703 27.8185C11.9301 28.2165 12.267 28.5584 12.6611 28.8241C13.0552 29.0897 13.4985 29.2738 13.9648 29.3654C14.1625 29.4427 14.3687 29.5115 14.5578 29.5888C12.2461 33.1638 9.93722 36.736 7.63123 40.3052L4.39998 45.3154C4.30678 45.4558 4.25778 45.6209 4.25931 45.7894C4.26084 45.9579 4.31284 46.122 4.40858 46.2607C4.50194 46.3993 4.634 46.5074 4.78832 46.5716C4.94264 46.6358 5.11242 46.6532 5.27655 46.6216L11.1461 45.5302L12.5726 51.3396C12.6141 51.5019 12.702 51.6486 12.8257 51.7616C12.9494 51.8745 13.1034 51.9489 13.2687 51.9755C13.3139 51.9855 13.36 51.9912 13.4062 51.9927C13.5503 51.9937 13.6921 51.9579 13.8184 51.8887C13.9448 51.8195 14.0514 51.7193 14.1281 51.5974L23.3922 37.2545C23.4609 37.2716 23.5211 37.3146 23.5898 37.3318C23.7306 37.3654 23.8748 37.3827 24.0195 37.3834C24.8084 37.2964 25.5579 36.993 26.1851 36.5068C26.5755 36.2093 27.0231 35.9957 27.5 35.8795C27.9768 35.9957 28.4245 36.2093 28.8148 36.5068C29.1721 36.8107 29.5864 37.0402 30.0336 37.1819C30.4807 37.3236 30.9516 37.3745 31.4187 37.3318C31.4875 37.3146 31.5476 37.2716 31.6078 37.2545L40.8719 51.5974C40.9486 51.7193 41.0552 51.8195 41.1815 51.8887C41.3078 51.9579 41.4497 51.9937 41.5937 51.9927C41.64 51.9912 41.686 51.9855 41.7312 51.9755C41.8966 51.9489 42.0506 51.8745 42.1743 51.7616C42.2979 51.6486 42.3859 51.5019 42.4273 51.3396L43.8539 45.5302L49.7234 46.6216C49.8875 46.6523 50.057 46.6345 50.2111 46.5704C50.3653 46.5063 50.4974 46.3987 50.5914 46.2607C50.6871 46.122 50.7391 45.9579 50.7407 45.7894C50.7422 45.6209 50.6932 45.4558 50.6 45.3154ZM13.7672 48.9849L12.6242 44.3357C12.5729 44.1224 12.4419 43.9369 12.2581 43.817C12.0744 43.6972 11.8518 43.6522 11.6359 43.6912L6.92655 44.5677L9.07498 41.242C11.2234 37.9076 13.3776 34.5732 15.5375 31.2388C15.5468 31.2783 15.5526 31.3186 15.5547 31.3591C15.5417 31.8328 15.6224 32.3043 15.7919 32.7467C15.9615 33.1891 16.2167 33.5937 16.543 33.9373C17.3645 34.4204 18.3436 34.5594 19.2672 34.324C19.7349 34.2274 20.2174 34.2274 20.6851 34.324C21.0471 34.6235 21.3428 34.9952 21.5531 35.4154C21.7164 35.6646 21.8797 35.9138 22.0515 36.1545L13.7672 48.9849ZM31.2812 35.4841C31.2118 35.563 31.1229 35.6222 31.0234 35.656C30.7828 35.7076 30.1469 35.3209 29.7344 35.0545C29.0882 34.5527 28.3139 34.243 27.5 34.1607C26.6861 34.243 25.9117 34.5527 25.2656 35.0545C24.8531 35.3209 24.2172 35.7162 23.9851 35.6646C23.8798 35.6243 23.7855 35.5595 23.7101 35.4755C23.444 35.1777 23.2106 34.8522 23.014 34.5045C22.6584 33.7952 22.1143 33.1975 21.4414 32.7771C21.0507 32.5993 20.6243 32.514 20.1953 32.5279C19.8216 32.5352 19.4486 32.5638 19.0781 32.6138C18.5453 32.674 17.8234 32.7599 17.6172 32.5966C17.4109 32.4334 17.325 31.7029 17.2648 31.1701C17.2544 30.3653 17.0192 29.5795 16.5859 28.9013C16.5175 28.8155 16.4397 28.7377 16.3539 28.6693C16.3211 28.6415 16.2867 28.6156 16.2508 28.592L16.2422 28.5834H16.2336C15.7198 28.2076 15.1438 27.9255 14.532 27.7498C14.025 27.5693 13.3375 27.3287 13.2172 27.0709C13.0969 26.8302 13.3375 26.1513 13.5094 25.6529C13.8536 24.9221 13.9818 24.1081 13.8789 23.3068C13.6265 22.5541 13.1644 21.8892 12.5469 21.3904C12.1687 21.0123 11.6445 20.4881 11.6445 20.1959C11.6445 19.9037 12.1687 19.3795 12.5469 19.0013C13.1644 18.5025 13.6265 17.8376 13.8789 17.0849C13.9818 16.2837 13.8536 15.4697 13.5094 14.7388C13.3375 14.2404 13.0969 13.5615 13.2172 13.3123C13.3375 13.063 14.0336 12.8224 14.5406 12.642C15.3153 12.4598 16.0219 12.0603 16.5773 11.4904C17.017 10.8178 17.2555 10.0337 17.2648 9.23024C17.325 8.69742 17.4023 7.97555 17.6172 7.80368C17.832 7.6318 18.5453 7.71774 19.0781 7.77789C19.8656 7.94566 20.6844 7.88909 21.4414 7.61461C22.1164 7.19666 22.6611 6.59837 23.014 5.88727C23.2976 5.42321 23.693 4.79586 23.9765 4.73571C24.2172 4.67555 24.8531 5.07946 25.2656 5.33727C25.9117 5.839 26.6861 6.14873 27.5 6.23102C28.3139 6.14873 29.0882 5.839 29.7344 5.33727C30.1469 5.07946 30.7742 4.68414 31.0234 4.73571C31.307 4.79586 31.7023 5.42321 31.9859 5.88727C32.3389 6.59837 32.8836 7.19666 33.5586 7.61461C34.3155 7.88909 35.1343 7.94566 35.9219 7.77789C36.4547 7.71774 37.1765 7.6318 37.3828 7.79508C37.5891 7.95836 37.675 8.68883 37.7351 9.22164C37.7456 10.0264 37.9808 10.8122 38.414 11.4904C38.9777 12.0603 39.6889 12.462 40.468 12.6505C40.975 12.8224 41.6625 13.0631 41.7828 13.3209C41.9031 13.5615 41.6625 14.2404 41.4906 14.7388C41.1464 15.4697 41.0182 16.2837 41.1211 17.0849C41.3734 17.8376 41.8356 18.5025 42.4531 19.0013C42.8312 19.3795 43.3555 19.9037 43.3555 20.1959C43.3555 20.4881 42.8312 21.0123 42.4531 21.3904C41.8356 21.8892 41.3734 22.5541 41.1211 23.3068C41.0182 24.1081 41.1464 24.9221 41.4906 25.6529C41.6625 26.1513 41.9031 26.8302 41.7828 27.0795C41.6625 27.3287 40.9664 27.5779 40.468 27.7498C39.8244 27.9256 39.2206 28.2232 38.689 28.6263C38.5938 28.7115 38.5047 28.8034 38.4226 28.9013C37.9829 29.5739 37.7444 30.358 37.7351 31.1615C37.675 31.6943 37.5976 32.4162 37.3828 32.588C37.168 32.7599 36.4547 32.674 35.9219 32.6138C35.1346 32.4418 34.3146 32.4984 33.5586 32.7771C32.8857 33.1975 32.3415 33.7952 31.9859 34.5045C31.7873 34.8556 31.551 35.1841 31.2812 35.4841ZM43.364 43.6912C43.1482 43.6522 42.9256 43.6972 42.7418 43.817C42.5581 43.9369 42.4271 44.1224 42.3758 44.3357L41.2328 48.9849L32.9484 36.1545C33.1203 35.9138 33.2836 35.6646 33.4469 35.4154C33.6575 34.9978 33.9497 34.6267 34.3062 34.324C34.7769 34.2276 35.2622 34.2276 35.7328 34.324C36.6535 34.5599 37.6302 34.4209 38.4484 33.9373C38.7775 33.5953 39.0352 33.1912 39.2063 32.7485C39.3775 32.3059 39.4587 31.8335 39.4453 31.3591C39.4468 31.3185 39.4526 31.2782 39.4625 31.2388C41.6195 34.5732 43.7737 37.9076 45.925 41.242L48.0734 44.5677L43.364 43.6912Z" fill="black"/>
</g>
</g>
</svg>
