<svg width="50" height="50" viewBox="0 0 50 50" fill="none" xmlns="http://www.w3.org/2000/svg">
<g clip-path="url(#clip0_1752_139)">
<path d="M38.3125 22.0779C38.3125 20.495 37.0248 19.2074 35.4419 19.2074H30.1663C31.448 17.7667 32.2857 16.1262 32.4476 14.6544C32.5464 13.7555 32.2687 12.8632 31.6854 12.2063C31.1522 11.6058 30.4232 11.2711 29.6326 11.2638C29.6234 11.2637 29.6143 11.2637 29.6052 11.2637C28.8404 11.2637 28.1227 11.5582 27.581 12.0949C27.0392 12.6317 26.7394 13.3469 26.7358 14.1101C26.708 14.2771 26.4141 14.8532 25.6948 15.5372C25.106 16.0974 24.0888 16.8674 22.5869 17.355C21.998 17.5462 21.4599 17.8982 20.9874 18.4014C20.7395 18.6652 20.3682 19.0297 19.9085 19.3955C19.6829 19.276 19.4264 19.2076 19.1538 19.2076H14.1434C13.2512 19.2076 12.5254 19.9334 12.5254 20.8256V34.1867C12.5254 35.0789 13.2512 35.8047 14.1434 35.8047H19.1538C19.762 35.8047 20.2924 35.467 20.5688 34.9696H33.3542C34.7068 34.9696 35.8072 33.8692 35.8072 32.5166C35.8072 32.0618 35.6829 31.6356 35.4663 31.27C36.1711 30.8386 36.6423 30.0614 36.6423 29.1763C36.6423 28.7215 36.518 28.2953 36.3014 27.9297C37.0062 27.4982 37.4773 26.7211 37.4773 25.8359C37.4773 25.324 37.3197 24.8482 37.0505 24.4545C37.8115 23.9376 38.3125 23.0651 38.3125 22.0779ZM35.4419 23.3827H35.0243C34.592 23.3827 34.2414 23.7332 34.2414 24.1656C34.2414 24.5979 34.5919 24.9485 35.0243 24.9485C35.5136 24.9485 35.9116 25.3466 35.9116 25.8358C35.9116 26.3251 35.5136 26.7231 35.0243 26.7231H34.1893C33.7569 26.7231 33.4064 27.0736 33.4064 27.5061C33.4064 27.9384 33.7568 28.289 34.1893 28.289C34.6785 28.289 35.0766 28.687 35.0766 29.1763C35.0766 29.6655 34.6785 30.0636 34.1893 30.0636H33.3542C32.9219 30.0636 32.5713 30.4141 32.5713 30.8465C32.5713 31.2788 32.9218 31.6294 33.3542 31.6294C33.8435 31.6294 34.2415 32.0274 34.2415 32.5167C34.2415 33.006 33.8435 33.404 33.3542 33.404H20.7718V25.8361C20.7718 25.4038 20.4213 25.0532 19.9889 25.0532C19.5564 25.0532 19.206 25.4037 19.206 25.8361V34.1868C19.206 34.2156 19.1826 34.239 19.1538 34.239H14.1434C14.1146 34.239 14.0912 34.2156 14.0912 34.1868V20.8253C14.0912 20.7965 14.1146 20.7731 14.1434 20.7731H19.1538C19.1826 20.7731 19.206 20.7965 19.206 20.8253V22.4955C19.206 22.9278 19.5564 23.2784 19.9889 23.2784C20.4213 23.2784 20.7718 22.9279 20.7718 22.4955V20.8253C20.7718 20.7873 20.7687 20.7501 20.766 20.7128C21.353 20.2584 21.8225 19.799 22.1287 19.473C22.4185 19.1644 22.7353 18.9528 23.0703 18.8441C24.9131 18.2459 26.1532 17.2826 26.8689 16.5799C27.766 15.6991 28.3015 14.781 28.3015 14.1236C28.3015 13.7764 28.4369 13.4509 28.6829 13.2071C28.9319 12.9604 29.2617 12.83 29.6181 12.8295C30.0569 12.8336 30.3476 13.0581 30.5143 13.2458C30.8 13.5676 30.9406 14.0303 30.8909 14.4833C30.7199 16.0389 29.4759 17.9617 27.7216 19.3818C27.4639 19.5905 27.3655 19.939 27.4762 20.2516C27.5868 20.5642 27.8825 20.7731 28.2142 20.7731H35.4417C36.1612 20.7731 36.7465 21.3584 36.7465 22.0779C36.7465 22.7975 36.1613 23.3827 35.4419 23.3827Z" fill="black"/>
<path d="M16.6483 30.8887C16.216 30.8887 15.8613 31.2434 15.8613 31.6757C15.8613 32.108 16.216 32.4627 16.6483 32.4627C17.0807 32.4627 17.4354 32.108 17.4354 31.6757C17.4355 31.2435 17.0808 30.8887 16.6483 30.8887Z" fill="black"/>
<path d="M48.6045 25L49.9494 21.4411C50.0474 21.1822 50.0012 20.8909 49.8281 20.6748L47.4492 17.7056L47.6285 13.9053C47.6416 13.629 47.5076 13.366 47.2764 13.2141L44.0965 11.1254L43.0928 7.45563C43.0198 7.18864 42.8112 6.98004 42.5443 6.90709L38.8745 5.90338L36.7858 2.7236C36.6338 2.49225 36.3709 2.35885 36.0946 2.37145L32.2943 2.55074L29.3251 0.171936C29.1091 -0.00111074 28.8178 -0.0473022 28.5588 0.0505494L24.9999 1.39547L21.4412 0.0506471C21.1822 -0.0473022 20.8909 -0.00111075 20.6749 0.172034L17.7058 2.55084L13.9055 2.37155C13.6278 2.35846 13.3661 2.49244 13.2143 2.72369L11.1256 5.90358L7.45589 6.90729C7.1889 6.98033 6.9803 7.18893 6.90735 7.45582L5.90364 11.1255L2.72376 13.2142C2.49241 13.3662 2.35853 13.6291 2.37161 13.9054L2.55091 17.7057L0.1721 20.6749C-0.000946724 20.8909 -0.0471381 21.1822 0.0507134 21.4412L1.39554 25L0.0506158 28.5588C-0.0473334 28.8176 -0.00114203 29.1089 0.172002 29.3251L2.55081 32.2942L2.37151 36.0945C2.35843 36.3709 2.49241 36.6339 2.72366 36.7857L5.90355 38.8745L6.90726 42.5442C6.9803 42.8112 7.1889 43.0198 7.45579 43.0927L11.1255 44.0965L13.2142 47.2763C13.3661 47.5077 13.6295 47.6407 13.9054 47.6285L17.7057 47.4492L20.6748 49.828C20.8909 50.0011 21.1823 50.0473 21.4411 49.9494L25 48.6045L28.5589 49.9494C28.6488 49.9833 28.7424 49.9999 28.8356 49.9999C29.011 49.9999 29.1841 49.941 29.3251 49.828L32.2943 47.4492L36.0946 47.6285C36.3718 47.6408 36.6338 47.5076 36.7858 47.2763L38.8745 44.0965L42.5443 43.0927C42.8113 43.0197 43.0199 42.8111 43.0928 42.5442L44.0965 38.8745L47.2764 36.7857C47.5077 36.6338 47.6416 36.3709 47.6285 36.0945L47.4492 32.2942L49.8281 29.3251C50.0011 29.109 50.0473 28.8177 49.9494 28.5588L48.6045 25ZM47.0353 25.2767L48.3269 28.6946L46.0423 31.5461C45.9231 31.6948 45.8622 31.882 45.8712 32.0724L46.0435 35.7221L42.9897 37.7281C42.8304 37.8327 42.7146 37.992 42.6643 38.1759L41.7003 41.7003L38.176 42.6642C37.9921 42.7145 37.8329 42.8302 37.7282 42.9896L35.7222 46.0434L32.0725 45.8712C31.882 45.8624 31.6949 45.923 31.5461 46.0422L28.6947 48.3268L25.2768 47.0352C25.1876 47.0015 25.0938 46.9847 25 46.9847C24.9063 46.9847 24.8124 47.0016 24.7233 47.0352L21.3054 48.3268L18.4539 46.0422C18.3052 45.923 18.1177 45.8624 17.9276 45.8712L14.2779 46.0434L12.2719 42.9896C12.1673 42.8303 12.008 42.7145 11.8241 42.6642L8.29974 41.7003L7.33577 38.1759C7.28548 37.9921 7.16976 37.8329 7.01038 37.7281L3.95657 35.7221L4.12884 32.0724C4.13782 31.8819 4.07698 31.6948 3.95774 31.5461L1.67317 28.6946L2.96487 25.2767C3.03226 25.0984 3.03226 24.9015 2.96487 24.7232L1.67317 21.3053L3.95774 18.4539C4.07698 18.3051 4.13782 18.1179 4.12884 17.9275L3.95657 14.2778L7.01038 12.2718C7.16966 12.1672 7.28548 12.008 7.33577 11.824L8.29974 8.29967L11.8241 7.33571C12.0079 7.28541 12.1671 7.16969 12.2719 7.01032L14.2779 3.95651L17.9276 4.12877C18.1178 4.13766 18.3052 4.07692 18.4539 3.95768L21.3054 1.67311L24.7233 2.96481C24.9017 3.03219 25.0985 3.03219 25.2768 2.96481L28.6947 1.67311L31.5461 3.95768C31.6949 4.07701 31.8822 4.13776 32.0725 4.12877L35.7222 3.95651L37.7282 7.01032C37.8327 7.16959 37.992 7.28541 38.176 7.33571L41.7003 8.29967L42.6643 11.824C42.7146 12.0079 42.8303 12.1671 42.9897 12.2718L46.0435 14.2778L45.8712 17.9275C45.8622 18.118 45.9231 18.3051 46.0423 18.4539L48.3269 21.3053L47.0352 24.7232C46.9679 24.9016 46.9679 25.0984 47.0353 25.2767Z" fill="black"/>
<path d="M39.7101 11.4809C39.5153 11.2688 39.3132 11.0578 39.1092 10.8539C38.9052 10.65 38.6944 10.4479 38.4823 10.2531C38.1638 9.96068 37.6686 9.98177 37.3761 10.3003C37.0837 10.6188 37.1048 11.1141 37.4234 11.4065C37.619 11.5862 37.8137 11.7727 38.002 11.961C38.1902 12.1492 38.3768 12.344 38.5566 12.5397C38.711 12.7078 38.9219 12.7931 39.1335 12.7931C39.3227 12.7931 39.5124 12.7249 39.6627 12.5869C39.9813 12.2947 40.0025 11.7993 39.7101 11.4809Z" fill="black"/>
<path d="M35.7016 8.11846C31.9263 5.71318 27.3808 4.64424 22.9029 5.10781C18.3595 5.57852 14.0753 7.61973 10.8393 10.8556C7.27811 14.4168 5.20468 19.1477 5.00096 24.1767C4.79852 29.1761 6.45438 34.03 9.66366 37.844C9.81845 38.028 10.0399 38.1229 10.2632 38.1229C10.4411 38.1229 10.62 38.0625 10.7668 37.9391C11.0975 37.6606 11.1401 37.1668 10.8618 36.836C7.90468 33.3215 6.37889 28.8482 6.56542 24.2401C6.75311 19.6052 8.66405 15.245 11.9464 11.9628C14.9288 8.98027 18.8772 7.09893 23.0641 6.66523C27.1926 6.2375 31.3816 7.22275 34.8602 9.43897C35.225 9.67129 35.7088 9.56406 35.9411 9.19941C36.1735 8.83467 36.0662 8.35078 35.7016 8.11846Z" fill="black"/>
<path d="M41.8462 14.2628C41.6139 13.898 41.1297 13.7908 40.7652 14.0231C40.4005 14.2554 40.2933 14.7394 40.5257 15.104C42.7419 18.5827 43.7269 22.7719 43.2994 26.9001C42.8657 31.087 40.9844 35.0353 38.0019 38.0179C34.7196 41.3002 30.3595 43.2112 25.7246 43.3989C21.1173 43.5862 16.6432 42.0597 13.1287 39.1027C12.7979 38.8243 12.3041 38.8669 12.0257 39.1977C11.7473 39.5285 11.7898 40.0223 12.1207 40.3008C15.7263 43.3344 20.2604 44.9801 24.9689 44.98C25.2413 44.98 25.5147 44.9745 25.7882 44.9634C30.8172 44.7598 35.5479 42.6864 39.1093 39.1252C42.3452 35.8892 44.3865 31.605 44.857 27.0615C45.3207 22.5834 44.2514 18.0381 41.8462 14.2628Z" fill="black"/>
</g>
<defs>
<clipPath id="clip0_1752_139">
<rect width="50" height="50" fill="white"/>
</clipPath>
</defs>
</svg>
