<svg width="32" height="32" viewBox="0 0 32 32" fill="none" xmlns="http://www.w3.org/2000/svg">
<path d="M3.16107 22.6059C1.94413 23.8787 1.1548 25.4998 0.903244 27.2429C0.749999 28.115 0.693611 29.0013 0.735108 29.8857V31.2792H2.65666C3.36549 31.2771 4.07277 31.2127 4.77037 31.087C6.51592 30.8449 8.13934 30.054 9.40612 28.8286C10.1493 27.9929 10.5312 26.8967 10.4681 25.7799C10.4051 24.6632 9.90233 23.617 9.06985 22.8702C8.31513 22.062 7.2739 21.5817 6.16936 21.5323C5.06482 21.4829 3.98489 21.8683 3.16107 22.6059ZM7.34045 26.7624C6.50893 27.5502 5.44959 28.0548 4.314 28.2039H3.78558V27.6754C3.93466 26.5395 4.43911 25.4798 5.22674 24.6481C5.38932 24.5164 5.59413 24.4481 5.80321 24.4559C6.01706 24.4645 6.22706 24.5157 6.4209 24.6064C6.61475 24.6972 6.78854 24.8257 6.93212 24.9845C7.22042 25.1674 7.42498 25.4567 7.50142 25.7895C7.57786 26.1224 7.52002 26.4719 7.34045 26.7624ZM31.9363 2.20802C31.9241 1.64475 31.6949 1.10796 31.2967 0.709574C30.8984 0.311191 30.3617 0.0819743 29.7986 0.0697251C26.9867 -0.159926 24.1572 0.179083 21.4791 1.06655C18.8009 1.95401 16.3287 3.37175 14.21 5.23527L10.2948 9.80017L4.53018 8.59888C4.137 8.5132 3.72861 8.5277 3.34249 8.64104C2.95638 8.75439 2.60492 8.96295 2.32039 9.24758L0.687069 10.8813C0.437785 11.1356 0.248123 11.4421 0.131808 11.7787C0.0154919 12.1152 -0.0245685 12.4735 0.0145249 12.8274C0.0499346 13.1859 0.16546 13.5317 0.352555 13.8395C0.539649 14.1472 0.793524 14.409 1.0954 14.6053L6.0434 17.7767L6.35565 17.9689L14.0419 25.7773L14.234 25.9695L17.4046 30.9188C17.6009 31.2208 17.8626 31.4747 18.1702 31.6619C18.4779 31.849 18.8237 31.9646 19.182 32H19.4462C20.0764 31.9973 20.6802 31.7471 21.1276 31.3033L22.7609 29.6695C23.0455 29.3849 23.254 29.0333 23.3673 28.6471C23.4806 28.2609 23.4951 27.8524 23.4095 27.4591L22.2085 21.717L26.6281 17.9209C28.5272 15.7957 29.9766 13.3079 30.8889 10.6075C31.8011 7.90709 32.1575 5.04987 31.9363 2.20802ZM4.21792 11.6021L7.38849 12.2748L5.85125 14.0768L3.4493 12.467L4.21792 11.6021ZM19.5423 28.6604L17.933 26.2578L19.7345 24.7202L20.407 27.8916L19.5423 28.6604ZM24.6104 15.7105L15.7713 23.2546L8.7576 16.2391L16.2997 7.39759C19.7942 4.37719 24.3221 2.82733 28.9339 3.07295C29.1694 7.68463 27.6212 12.21 24.6104 15.7105Z" fill="#EF5423"/>
<path d="M23.326 12.3433C23.5504 12.1073 23.7254 11.8289 23.8409 11.5243C23.9564 11.2197 24.01 10.8951 23.9985 10.5695C23.987 10.2439 23.9107 9.92384 23.7741 9.62816C23.6374 9.33248 23.4432 9.0671 23.2028 8.84758C22.9906 8.59557 22.7285 8.39035 22.4331 8.24486C22.1377 8.09937 21.8154 8.01678 21.4865 8.0023C21.1577 7.98782 20.8294 8.04177 20.5224 8.16073C20.2153 8.27969 19.9363 8.46109 19.7028 8.69348C19.4693 8.92587 19.2865 9.2042 19.1658 9.51091C19.0451 9.81762 18.9893 10.1461 19.0017 10.4755C19.0142 10.8049 19.0947 11.1282 19.2381 11.4249C19.3816 11.7216 19.5849 11.9853 19.8353 12.1993C20.0546 12.439 20.319 12.633 20.6134 12.77C20.9078 12.9071 21.2264 12.9845 21.5508 12.9979C21.8752 13.0113 22.199 12.9603 22.5036 12.848C22.8083 12.7356 23.0878 12.5641 23.326 12.3433Z" fill="#EF5423"/>
</svg>
