<svg width="14" height="8" viewBox="0 0 14 8" fill="none" xmlns="http://www.w3.org/2000/svg">
<path d="M1.00303 8L0 7.00089L3.51023 3.48675C3.90532 3.09166 4.38357 2.89411 4.94499 2.89411C5.50642 2.89411 5.98468 3.09166 6.37978 3.48675L7.13293 4.23991C7.25347 4.36044 7.39466 4.42071 7.55649 4.42071C7.71832 4.42071 7.85951 4.36044 7.98006 4.23991L10.7926 1.4273H9.19236V0H13.2393V4.04698H11.812V2.4467L8.98309 5.25929C8.58799 5.65438 8.10973 5.85193 7.5483 5.85193C6.98688 5.85193 6.50863 5.65438 6.11353 5.25929L5.344 4.48976C5.23437 4.38013 5.09656 4.32532 4.93058 4.32532C4.7646 4.32532 4.62679 4.38013 4.51717 4.48976L1.00303 8Z" fill="#FE9D00"/>
</svg>
