<svg width="11" height="14" viewBox="0 0 11 14" fill="none" xmlns="http://www.w3.org/2000/svg">
<path d="M0 11.9519V10.8578H1.31865V5.41483C1.31865 4.4338 1.62142 3.5664 2.22695 2.81262C2.8325 2.05884 3.6099 1.57675 4.55913 1.36634V0.911826C4.55913 0.658545 4.6477 0.443258 4.82484 0.265962C5.00198 0.0886547 5.21707 0 5.47012 0C5.72317 0 5.93854 0.0886547 6.11622 0.265962C6.29391 0.443258 6.38275 0.658545 6.38275 0.911826V1.36634C7.33198 1.57675 8.10938 2.05884 8.71493 2.81262C9.32046 3.5664 9.62323 4.4338 9.62323 5.41483V10.8578H10.9419V11.9519H0ZM5.4697 14C5.10673 14 4.79643 13.8709 4.53878 13.6127C4.28113 13.3544 4.15231 13.044 4.15231 12.6814H6.78957C6.78957 13.0452 6.66033 13.3559 6.40186 13.6135C6.14339 13.8712 5.83267 14 5.4697 14ZM2.4128 10.8578H8.52908V5.41483C8.52908 4.57033 8.23051 3.84952 7.63337 3.25239C7.03625 2.65526 6.31544 2.35669 5.47094 2.35669C4.62644 2.35669 3.90563 2.65526 3.30851 3.25239C2.71137 3.84952 2.4128 4.57033 2.4128 5.41483V10.8578Z" fill="white"/>
</svg>
