<svg width="32" height="32" viewBox="0 0 32 32" fill="none" xmlns="http://www.w3.org/2000/svg">
<path opacity="0.9" d="M15.9998 29.3332C23.3636 29.3332 29.3332 23.3636 29.3332 15.9998C29.3332 8.63604 23.3636 2.6665 15.9998 2.6665C8.63604 2.6665 2.6665 8.63604 2.6665 15.9998C2.6665 23.3636 8.63604 29.3332 15.9998 29.3332Z" fill="#FE9D00"/>
<path d="M11.1967 20.7381C11.5256 20.2944 12.1519 20.2013 12.5955 20.5302C13.5667 21.25 14.7389 21.6669 16.0001 21.6669C17.2613 21.6669 18.4334 21.25 19.4046 20.5302C19.8483 20.2013 20.4746 20.2944 20.8034 20.7381C21.1323 21.1818 21.0393 21.8081 20.5955 22.1369C19.299 23.098 17.7134 23.6669 16.0001 23.6669C14.2867 23.6669 12.7011 23.098 11.4046 22.1369C10.9609 21.8081 10.8678 21.1818 11.1967 20.7381Z" fill="white"/>
<path d="M19.9998 16C20.7362 16 21.3332 15.1045 21.3332 14C21.3332 12.8954 20.7362 12 19.9998 12C19.2634 12 18.6665 12.8954 18.6665 14C18.6665 15.1045 19.2634 16 19.9998 16Z" fill="white"/>
<path d="M11.9998 16C12.7362 16 13.3332 15.1045 13.3332 14C13.3332 12.8954 12.7362 12 11.9998 12C11.2635 12 10.6665 12.8954 10.6665 14C10.6665 15.1045 11.2635 16 11.9998 16Z" fill="white"/>
</svg>
