<svg width="14" height="11" viewBox="0 0 14 11" fill="none" xmlns="http://www.w3.org/2000/svg">
<path d="M8.87456 10.5C7.47796 10.5 6.29501 10.0154 5.32572 9.04606C4.35644 8.07678 3.8718 6.89384 3.8718 5.49723C3.8718 4.11105 4.35644 2.93163 5.32572 1.95897C6.29501 0.986324 7.47796 0.5 8.87456 0.5C10.2607 0.5 11.4402 0.986324 12.4128 1.95897C13.3855 2.93163 13.8718 4.11105 13.8718 5.49723C13.8718 6.89384 13.3855 8.07678 12.4128 9.04606C11.4402 10.0154 10.2607 10.5 8.87456 10.5ZM8.8718 9.50001C9.98291 9.50001 10.9274 9.11112 11.7051 8.33334C12.4829 7.55556 12.8718 6.61111 12.8718 5.5C12.8718 4.38889 12.4829 3.44444 11.7051 2.66666C10.9274 1.88888 9.98291 1.49999 8.8718 1.49999C7.76068 1.49999 6.81623 1.88888 6.03845 2.66666C5.26067 3.44444 4.87178 4.38889 4.87178 5.5C4.87178 6.61111 5.26067 7.55556 6.03845 8.33334C6.81623 9.11112 7.76068 9.50001 8.8718 9.50001ZM10.4526 7.81026L11.1654 7.09744L9.37178 5.30385V2.93589H8.37179V5.71282L10.4526 7.81026ZM0.666669 3.33331V2.33334H3.20513V3.33331H0.666669ZM0 5.99998V5.00002H3.20513V5.99998H0ZM0.666669 8.66666V7.66669H3.20513V8.66666H0.666669Z" fill="white"/>
</svg>
