<svg width="36" height="36" viewBox="0 0 36 36" fill="none" xmlns="http://www.w3.org/2000/svg">
<path d="M13.7297 8.11257C15.6297 4.7042 16.5797 3 18 3C19.4204 3 20.3703 4.70418 22.2702 8.11256L22.7618 8.99435C23.3018 9.9629 23.5716 10.4472 23.9927 10.7667C24.4136 11.0862 24.9377 11.2049 25.9862 11.4421L26.9408 11.658C30.6302 12.4928 32.475 12.9102 32.9139 14.3216C33.3528 15.7329 32.0952 17.2037 29.5799 20.1448L28.9292 20.9058C28.2144 21.7416 27.857 22.1595 27.6962 22.6765C27.5355 23.1936 27.5895 23.7512 27.6975 24.8664L27.7959 25.8816C28.1762 29.8059 28.3664 31.7681 27.2174 32.6403C26.0682 33.5126 24.341 32.7172 20.8865 31.1268L19.9928 30.7152C19.0112 30.2633 18.5204 30.0372 18 30.0372C17.4797 30.0372 16.9889 30.2633 16.0073 30.7152L15.1136 31.1268C11.659 32.7172 9.93177 33.5126 8.78273 32.6403C7.63368 31.7681 7.82382 29.8059 8.2041 25.8816L8.30247 24.8664C8.41055 23.7512 8.46458 23.1936 8.30379 22.6765C8.14302 22.1595 7.78565 21.7416 7.07088 20.9058L6.42015 20.1448C3.90488 17.2037 2.64723 15.7329 3.08613 14.3216C3.52503 12.9102 5.36979 12.4928 9.05931 11.658L10.0138 11.4421C11.0623 11.2049 11.5865 11.0862 12.0074 10.7667C12.4283 10.4472 12.6983 9.96291 13.2382 8.99435L13.7297 8.11257Z" fill="#080341"/>
</svg>
