<svg width="16" height="17" viewBox="0 0 16 17" fill="none" xmlns="http://www.w3.org/2000/svg">
<g clip-path="url(#clip0_1115_4)">
<path d="M2.96306 1.17802C1.86368 1.89102 1.64771 4.11974 2.06277 5.93621C2.38602 7.35077 3.07327 9.2483 4.23215 11.0351C5.32234 12.7161 6.84331 14.2233 8.00306 15.0954C9.49234 16.2151 11.6154 16.9269 12.7147 16.2139C13.2706 15.8533 14.0966 14.8683 14.1342 14.6916C14.1342 14.6916 13.6499 13.9448 13.5436 13.7809L11.9195 11.2767C11.7988 11.0906 11.042 11.2607 10.6575 11.4785C10.1388 11.7724 9.66115 12.5609 9.66115 12.5609C9.30552 12.7663 9.00765 12.5616 8.38527 12.2752C7.62037 11.9232 6.76037 10.8297 6.0759 9.83933C5.45074 8.81049 4.80302 7.57927 4.79365 6.73733C4.78593 6.05227 4.72049 5.69683 5.05315 5.4559C5.05315 5.4559 5.9679 5.34133 6.44774 4.98765C6.8034 4.7254 7.26737 4.10371 7.14668 3.91758L5.52256 1.4134C5.41627 1.24952 4.93196 0.502771 4.93196 0.502771C4.75518 0.465115 3.51896 0.81749 2.96306 1.17802Z" fill="white"/>
</g>
<defs>
<clipPath id="clip0_1115_4">
<rect width="16" height="16" fill="white" transform="translate(0 0.5)"/>
</clipPath>
</defs>
</svg>
