<svg width="36" height="35" viewBox="0 0 36 35" fill="none" xmlns="http://www.w3.org/2000/svg">
<path d="M10.2629 16.4692L14.8902 2.58752C14.9437 2.46755 15.0205 2.35942 15.1162 2.26939C15.2119 2.17937 15.3245 2.10926 15.4475 2.06313C15.5705 2.01701 15.7015 1.99578 15.8327 2.00069C15.964 2.00561 16.093 2.03656 16.2122 2.09175L17.8648 2.91804C18.5607 3.28006 19.1441 3.82566 19.552 4.49569C19.9598 5.16571 20.1765 5.9346 20.1784 6.71899V13.1641H30.755C31.2543 13.1732 31.7451 13.2953 32.1904 13.5213C32.6358 13.7472 33.0241 14.0712 33.3263 14.4688C33.6285 14.8664 33.8366 15.3273 33.9351 15.8169C34.0336 16.3065 34.0198 16.812 33.8949 17.2955L30.5897 30.5162C30.4092 31.2158 30.0045 31.837 29.4374 32.2847C28.8703 32.7323 28.1722 32.9819 27.4498 32.9951H5.30517C4.42859 32.9951 3.5879 32.6469 2.96806 32.027C2.34822 31.4072 2 30.5665 2 29.6899V19.7744C2 18.8978 2.34822 18.0571 2.96806 17.4373C3.5879 16.8175 4.42859 16.4692 5.30517 16.4692H10.2629ZM10.2629 16.4692V32.9951" stroke="white" stroke-width="3" stroke-linecap="round" stroke-linejoin="round"/>
</svg>
