<svg width="55" height="55" viewBox="0 0 55 55" fill="none" xmlns="http://www.w3.org/2000/svg">
<g id="touch-screen-ecommerce-commerce-and-shopping 1">
<g id="11 tablet wishlist">
<path id="Vector" d="M46.8359 3.01574H8.16406C6.80713 3.00659 5.50201 3.53628 4.53527 4.48852C3.56852 5.44077 3.01917 6.73773 3.00781 8.09465V28.3415C3.01917 29.6984 3.56852 30.9954 4.53527 31.9476C5.50201 32.8999 6.80713 33.4296 8.16406 33.4204H24.6812C24.6255 33.5477 24.5823 33.6801 24.5523 33.8157C24.4633 34.5274 24.5488 35.25 24.8016 35.9212L24.8789 36.1618C25.4031 38.0868 25.9875 39.9603 26.4945 41.5501L26.5289 41.6532C26.8396 43.0069 27.4869 44.2602 28.4109 45.297C28.8492 45.7181 29.2961 46.1478 29.743 46.5689C29.4228 46.6966 29.1479 46.917 28.9535 47.2017C28.7591 47.4864 28.654 47.8226 28.6516 48.1673V50.2642C28.6529 50.7196 28.8344 51.156 29.1565 51.478C29.4785 51.8 29.9149 51.9816 30.3703 51.9829H46.5352C46.9906 51.9816 47.427 51.8 47.749 51.478C48.071 51.156 48.2525 50.7196 48.2539 50.2642V48.1673C48.2525 47.7119 48.071 47.2755 47.749 46.9535C47.427 46.6314 46.9906 46.4499 46.5352 46.4486H46.3203C46.6211 45.4775 46.9391 44.4806 47.3 43.5181C48.2625 40.9228 48.2367 38.2415 48.2195 35.6462C48.2109 34.847 48.2109 34.022 48.2367 33.2142C49.309 32.9237 50.2567 32.2901 50.9349 31.4102C51.6131 30.5303 51.9844 29.4524 51.9922 28.3415V8.09465C51.9808 6.73773 51.4315 5.44077 50.4647 4.48852C49.498 3.53628 48.1929 3.00659 46.8359 3.01574ZM46.5352 48.1673V50.2642H30.3703V48.1673H46.5352ZM46.5352 32.4751C46.4836 33.5407 46.4922 34.6236 46.5008 35.6634C46.518 38.2157 46.5438 40.622 45.6844 42.9165C45.2719 44.0165 44.9281 45.1423 44.5844 46.2251L44.5156 46.4486H32.0977C31.2641 45.6493 30.4305 44.8587 29.5969 44.0509C28.896 43.2062 28.4043 42.2081 28.1617 41.1376L28.1273 41.0259C27.6289 39.4618 27.0531 37.6056 26.5289 35.6978L26.4516 35.4314C26.2894 35.0188 26.2162 34.5766 26.2367 34.1337C26.2791 33.9497 26.3687 33.78 26.4968 33.6413C26.625 33.5026 26.7871 33.3998 26.9672 33.3431H26.9758C27.0264 33.3275 27.0781 33.3161 27.1305 33.3087C27.3279 33.2813 27.5291 33.305 27.7148 33.3775C27.9384 33.4518 28.1277 33.6044 28.2477 33.8071C28.3948 34.0696 28.5157 34.346 28.6086 34.6321C28.6773 34.804 28.7375 34.9845 28.8062 35.1392C28.8922 35.354 28.9609 35.5689 29.0297 35.7837C29.1843 36.2924 29.3886 36.7846 29.6398 37.2532C29.7806 37.5654 30.0259 37.8186 30.3334 37.9692C30.6409 38.1198 30.9913 38.1584 31.3242 38.0782C31.6594 37.9751 32.218 37.64 32.2523 36.5657C32.2781 35.2337 32.3039 33.9103 32.3211 32.5782C32.3469 30.8939 32.3813 29.2066 32.4242 27.5165C32.4844 25.0845 32.5703 23.0821 32.6906 21.2603L32.7078 20.9681C32.718 20.6873 32.8364 20.4214 33.0383 20.226C33.2401 20.0306 33.5097 19.9208 33.7906 19.9196C34.0795 19.9197 34.3582 20.0269 34.5727 20.2204C34.6676 20.3099 34.7432 20.4177 34.7949 20.5374C34.8466 20.6571 34.8734 20.7861 34.8734 20.9165V32.4579C34.8734 32.6858 34.964 32.9044 35.1251 33.0656C35.2863 33.2268 35.5049 33.3173 35.7328 33.3173C35.9607 33.3173 36.1793 33.2268 36.3405 33.0656C36.5016 32.9044 36.5922 32.6858 36.5922 32.4579V27.4564C36.5922 27.0095 37.082 26.6486 37.675 26.6486C37.9697 26.6404 38.2582 26.7345 38.4914 26.915C38.5751 26.9876 38.6422 27.0774 38.6881 27.1782C38.7341 27.279 38.7579 27.3885 38.7578 27.4993V32.4579C38.7578 32.6858 38.8484 32.9044 39.0095 33.0656C39.1707 33.2268 39.3893 33.3173 39.6172 33.3173C39.8451 33.3173 40.0637 33.2268 40.2249 33.0656C40.386 32.9044 40.4766 32.6858 40.4766 32.4579V28.3845C40.4777 28.2211 40.5222 28.061 40.6055 27.9204C40.7005 27.7865 40.8219 27.6735 40.9622 27.5883C41.1025 27.5031 41.2588 27.4475 41.4214 27.425C41.5841 27.4025 41.7496 27.4134 41.9078 27.4573C42.066 27.5011 42.2136 27.5768 42.3414 27.6798C42.4123 27.7535 42.4756 27.8341 42.5305 27.9204C42.6083 28.0628 42.6496 28.2222 42.6508 28.3845V32.4579C42.6508 32.6858 42.7413 32.9044 42.9025 33.0656C43.0637 33.2268 43.2822 33.3173 43.5102 33.3173C43.7381 33.3173 43.9567 33.2268 44.1178 33.0656C44.279 32.9044 44.3695 32.6858 44.3695 32.4579V29.8626C44.3827 29.5882 44.504 29.3301 44.7069 29.1449C44.9098 28.9597 45.1779 28.8624 45.4523 28.8743C45.7456 28.8734 46.0282 28.984 46.243 29.1837C46.3348 29.2714 46.408 29.3768 46.4582 29.4934C46.5084 29.6101 46.5345 29.7356 46.5352 29.8626V32.4751ZM31.075 20.3236H30.5078V17.3931L37.3828 17.3759V20.315H36.5148C36.4004 19.8014 36.1339 19.3342 35.75 18.9743C35.2191 18.4766 34.5184 18.1999 33.7906 18.2009C33.1644 18.1946 32.5546 18.4012 32.0612 18.7868C31.5678 19.1725 31.2201 19.7143 31.075 20.3236ZM46.8359 25.815C46.831 26.0382 46.7377 26.2503 46.5767 26.405C46.4156 26.5596 46.1998 26.6441 45.9766 26.64H43.6906C43.6305 26.5798 43.5961 26.5025 43.5359 26.4509C43.0041 25.9427 42.2949 25.6622 41.5594 25.6689C41.0216 25.6715 40.495 25.8232 40.0383 26.1071C39.9189 25.9244 39.7742 25.7595 39.6086 25.6173C39.4989 25.5238 39.381 25.4404 39.2563 25.3681C39.1798 25.3185 39.0993 25.2754 39.0156 25.2392C38.9727 25.222 38.9383 25.2048 38.8953 25.1876C38.5104 25.0192 38.0951 24.9315 37.675 24.9298C37.6002 24.9309 37.5256 24.9367 37.4516 24.947C37.3914 24.9556 37.3312 24.9556 37.2711 24.9642C37.1903 24.9714 37.11 24.9829 37.0305 24.9986C36.8805 25.0272 36.7338 25.0704 36.5922 25.1275V22.0337H37.3828C37.8372 22.0337 38.273 21.8538 38.5951 21.5333C38.9172 21.2129 39.0993 20.7779 39.1016 20.3236V17.3759C39.097 16.923 38.914 16.4903 38.5921 16.1717C38.2703 15.853 37.8357 15.6743 37.3828 15.6743H30.5078C30.0549 15.6743 29.6203 15.853 29.2985 16.1717C28.9767 16.4903 28.7936 16.923 28.7891 17.3759V20.3236C28.7913 20.7779 28.9734 21.2129 29.2955 21.5333C29.6176 21.8538 30.0535 22.0337 30.5078 22.0337H30.9203C30.9117 22.1798 30.9031 22.3259 30.8945 22.4806C30.8859 22.6353 30.8773 22.79 30.8687 22.9361C30.8516 23.2626 30.8344 23.5892 30.8258 23.9157L30.8 24.4829C30.7914 24.8095 30.7742 25.1361 30.7656 25.4712C30.757 25.6775 30.7484 25.8837 30.7484 26.0986C30.7398 26.279 30.7312 26.4509 30.7312 26.64H9.02344C8.80019 26.6441 8.5844 26.5596 8.42333 26.405C8.26225 26.2503 8.16903 26.0382 8.16406 25.815V8.93683C8.16903 8.71361 8.26225 8.50144 8.42333 8.34681C8.5844 8.19218 8.80019 8.10769 9.02344 8.11184H45.9766C46.1998 8.10769 46.4156 8.19218 46.5767 8.34681C46.7377 8.50144 46.831 8.71361 46.8359 8.93683V25.815ZM50.2734 28.3415C50.2692 28.9901 50.0758 29.6233 49.7171 30.1636C49.3584 30.704 48.8499 31.128 48.2539 31.3837V29.8626C48.2524 29.5008 48.1778 29.143 48.0345 28.8107C47.8913 28.4784 47.6824 28.1785 47.4203 27.929C47.7666 27.695 48.0508 27.3803 48.2484 27.012C48.446 26.6437 48.5511 26.2329 48.5547 25.815V8.93683C48.5483 8.2582 48.2736 7.60967 47.7905 7.13301C47.3074 6.65636 46.6552 6.39033 45.9766 6.39309H9.02344C8.34478 6.39033 7.69262 6.65636 7.20952 7.13301C6.72642 7.60967 6.45167 8.2582 6.44531 8.93683V25.815C6.45167 26.4936 6.72642 27.1421 7.20952 27.6188C7.69262 28.0954 8.34478 28.3615 9.02344 28.3587H30.6883C30.6539 29.7595 30.6195 31.1517 30.6023 32.5525C30.5938 33.3517 30.5766 34.1509 30.568 34.9415C30.5164 34.7954 30.4563 34.6493 30.3961 34.4861C30.3359 34.34 30.2758 34.1853 30.2242 34.0392C30.0943 33.6516 29.9274 33.2775 29.7258 32.922C29.4331 32.4598 29.0153 32.0901 28.5209 31.8558C28.0266 31.6216 27.4759 31.5324 26.9328 31.5986C26.7807 31.6174 26.6309 31.652 26.4859 31.7017H8.16406C7.71771 31.7068 7.27473 31.6239 6.86041 31.4578C6.44609 31.2917 6.06854 31.0456 5.74934 30.7336C5.43013 30.4216 5.17551 30.0497 5.00002 29.6393C4.82453 29.2289 4.73161 28.7879 4.72656 28.3415V8.09465C4.73161 7.6483 4.82453 7.20732 5.00002 6.79688C5.17551 6.38645 5.43013 6.0146 5.74934 5.70257C6.06854 5.39055 6.44609 5.14446 6.86041 4.97835C7.27473 4.81225 7.71771 4.72938 8.16406 4.73449H46.8359C47.2823 4.72938 47.7253 4.81225 48.1396 4.97835C48.5539 5.14446 48.9315 5.39055 49.2507 5.70257C49.5699 6.0146 49.8245 6.38645 50 6.79688C50.1755 7.20732 50.2684 7.6483 50.2734 8.09465V28.3415Z" fill="black"/>
<path id="Vector_2" d="M28.7891 30.0352C28.7891 30.2631 28.6985 30.4817 28.5374 30.6428C28.3762 30.804 28.1576 30.8945 27.9297 30.8945H26.2109C25.983 30.8945 25.7644 30.804 25.6033 30.6428C25.4421 30.4817 25.3516 30.2631 25.3516 30.0352C25.3516 29.8072 25.4421 29.5886 25.6033 29.4275C25.7644 29.2663 25.983 29.1758 26.2109 29.1758H27.9297C28.1576 29.1758 28.3762 29.2663 28.5374 29.4275C28.6985 29.5886 28.7891 29.8072 28.7891 30.0352Z" fill="black"/>
<path id="Vector_3" d="M17.6172 12.3145C17.6172 12.5424 17.5266 12.761 17.3655 12.9221C17.2043 13.0833 16.9857 13.1738 16.7578 13.1738H12.4609C12.233 13.1738 12.0144 13.0833 11.8533 12.9221C11.6921 12.761 11.6016 12.5424 11.6016 12.3145C11.6016 12.0865 11.6921 11.8679 11.8533 11.7068C12.0144 11.5456 12.233 11.4551 12.4609 11.4551H16.7578C16.9857 11.4551 17.2043 11.5456 17.3655 11.7068C17.5266 11.8679 17.6172 12.0865 17.6172 12.3145Z" fill="#FE9D00"/>
<path id="Vector_4" d="M17.6172 17.375C17.6172 17.6029 17.5266 17.8215 17.3655 17.9827C17.2043 18.1438 16.9857 18.2344 16.7578 18.2344H12.4609C12.233 18.2344 12.0144 18.1438 11.8533 17.9827C11.6921 17.8215 11.6016 17.6029 11.6016 17.375C11.6016 17.1471 11.6921 16.9285 11.8533 16.7673C12.0144 16.6062 12.233 16.5156 12.4609 16.5156H16.7578C16.9857 16.5156 17.2043 16.6062 17.3655 16.7673C17.5266 16.9285 17.6172 17.1471 17.6172 17.375Z" fill="#FE9D00"/>
<path id="Vector_5" d="M17.6172 22.4375C17.6172 22.6654 17.5266 22.884 17.3655 23.0452C17.2043 23.2063 16.9857 23.2969 16.7578 23.2969H12.4609C12.233 23.2969 12.0144 23.2063 11.8533 23.0452C11.6921 22.884 11.6016 22.6654 11.6016 22.4375C11.6016 22.2096 11.6921 21.991 11.8533 21.8298C12.0144 21.6687 12.233 21.5781 12.4609 21.5781H16.7578C16.9857 21.5781 17.2043 21.6687 17.3655 21.8298C17.5266 21.991 17.6172 22.2096 17.6172 22.4375Z" fill="#FE9D00"/>
<path id="Vector_6" d="M25.9529 11.2402L23.3748 13.7667C23.2153 13.9263 22.9989 14.0159 22.7733 14.0159C22.5476 14.0159 22.3312 13.9263 22.1717 13.7667L20.4529 12.0824C20.2908 11.9212 20.1989 11.7026 20.1973 11.474C20.1957 11.2454 20.2845 11.0254 20.4444 10.862C20.6042 10.7008 20.8214 10.6094 21.0484 10.6078C21.2755 10.6062 21.4939 10.6945 21.6561 10.8534L22.7733 11.9534L24.7498 10.0113C24.912 9.85234 25.1304 9.76404 25.3575 9.76565C25.5845 9.76726 25.8017 9.85865 25.9615 10.0199C26.1214 10.1832 26.2102 10.4032 26.2086 10.6318C26.207 10.8604 26.1151 11.079 25.9529 11.2402Z" fill="black"/>
<path id="Vector_7" d="M25.9532 16.3007L23.375 18.8273C23.2155 18.9868 22.9991 19.0764 22.7735 19.0764C22.5478 19.0764 22.3315 18.9868 22.1719 18.8273L20.4532 17.1429C20.2902 16.9834 20.1973 16.7656 20.1949 16.5376C20.1925 16.3095 20.2807 16.0898 20.4403 15.9269C20.5998 15.7639 20.8176 15.671 21.0456 15.6686C21.2737 15.6662 21.4933 15.7544 21.6563 15.914L22.7735 17.014L24.75 15.0718C24.9122 14.9129 25.1306 14.8246 25.3577 14.8262C25.5847 14.8278 25.8019 14.9192 25.9618 15.0804C26.1216 15.2438 26.2104 15.4637 26.2088 15.6923C26.2072 15.9209 26.1153 16.1396 25.9532 16.3007Z" fill="black"/>
<path id="Vector_8" d="M25.9532 21.3632L23.375 23.8898C23.2155 24.0493 22.9991 24.1389 22.7735 24.1389C22.5478 24.1389 22.3315 24.0493 22.1719 23.8898L20.4532 22.2054C20.2902 22.0459 20.1973 21.8281 20.1949 21.6001C20.1925 21.372 20.2807 21.1523 20.4403 20.9894C20.5998 20.8264 20.8176 20.7335 21.0456 20.7311C21.2737 20.7287 21.4933 20.8169 21.6563 20.9765L22.7735 22.0765L24.75 20.1343C24.9122 19.9754 25.1306 19.8871 25.3577 19.8887C25.5847 19.8903 25.8019 19.9817 25.9618 20.1429C26.1216 20.3063 26.2104 20.5262 26.2088 20.7548C26.2072 20.9834 26.1153 21.2021 25.9532 21.3632Z" fill="black"/>
</g>
</g>
</svg>
