<svg width="14" height="10" viewBox="0 0 14 10" fill="#fe9d00" xmlns="http://www.w3.org/2000/svg">
<path d="M3.19667 10C2.68276 10 2.24277 9.82305 1.8767 9.46916C1.51064 9.11526 1.32273 8.68136 1.31299 8.16745H0V1.38968C0 1.00502 0.135451 0.677244 0.406352 0.406352C0.677243 0.135451 1.00502 0 1.38968 0H9.94157V2.38862H11.7376L13.6651 4.95984V8.16745H12.3813C12.3716 8.68136 12.1837 9.11526 11.8176 9.46916C11.4515 9.82305 11.0115 10 10.4976 10C9.98374 10 9.54375 9.82305 9.17767 9.46916C8.81161 9.11526 8.62371 8.68136 8.61397 8.16745H5.07669C5.06695 8.67893 4.87965 9.11222 4.5148 9.46734C4.14995 9.82245 3.71057 10 3.19667 10ZM3.19667 8.71987C3.36974 8.71987 3.51482 8.66133 3.6319 8.54425C3.74898 8.42717 3.80751 8.2821 3.80751 8.10902C3.80751 7.93595 3.74898 7.79087 3.6319 7.67379C3.51482 7.55672 3.36974 7.49818 3.19667 7.49818C3.02359 7.49818 2.87851 7.55672 2.76144 7.67379C2.64436 7.79087 2.58582 7.93595 2.58582 8.10902C2.58582 8.2821 2.64436 8.42717 2.76144 8.54425C2.87851 8.66133 3.02359 8.71987 3.19667 8.71987ZM1.38968 6.77777H1.89663C2.0697 6.61156 2.26457 6.47732 2.48124 6.37507C2.69792 6.27282 2.93639 6.2217 3.19667 6.2217C3.45694 6.2217 3.69599 6.27267 3.91383 6.37462C4.13166 6.47657 4.32474 6.61095 4.49306 6.77777H8.55189V1.38968H1.38968V6.77777ZM10.4976 8.71987C10.6707 8.71987 10.8158 8.66133 10.9329 8.54425C11.05 8.42717 11.1085 8.2821 11.1085 8.10902C11.1085 7.93595 11.05 7.79087 10.9329 7.67379C10.8158 7.55672 10.6707 7.49818 10.4976 7.49818C10.3246 7.49818 10.1795 7.55672 10.0624 7.67379C9.94533 7.79087 9.88679 7.93595 9.88679 8.10902C9.88679 8.2821 9.94533 8.42717 10.0624 8.54425C10.1795 8.66133 10.3246 8.71987 10.4976 8.71987ZM9.94157 5.61085H12.4172L11.0428 3.7783H9.94157V5.61085Z" fill="#FE9D00"/>
</svg>
