<svg width="16" height="17" viewBox="0 0 16 17" fill="none" xmlns="http://www.w3.org/2000/svg">
<g clip-path="url(#clip0_1406_37)">
<path d="M13.6316 13.875C13.6316 14.7725 12.9247 15.5 12.0526 15.5C11.1806 15.5 10.4737 14.7725 10.4737 13.875M13.6316 13.875C13.6316 12.9775 12.9247 12.25 12.0526 12.25C11.1806 12.25 10.4737 12.9775 10.4737 13.875M13.6316 13.875H16M10.4737 13.875H9.68421M9.68421 13.875H5.73684M9.68421 13.875V5.1C9.68421 4.18992 9.68421 3.73487 9.51211 3.38727C9.36076 3.0815 9.11918 2.83291 8.82211 2.67712C8.48437 2.5 8.04218 2.5 7.1579 2.5H3.52632C2.64203 2.5 2.19987 2.5 1.86212 2.67712C1.56502 2.83291 1.32347 3.0815 1.1721 3.38727C1 3.73487 1 4.18992 1 5.1V12.25C1 13.1475 1.70692 13.875 2.57895 13.875M9.68421 13.875V5.75H12.8421L15.2105 9M5.73684 13.875C5.73684 14.7725 5.02992 15.5 4.15789 15.5C3.28587 15.5 2.57895 14.7725 2.57895 13.875M5.73684 13.875C5.73684 12.9775 5.02992 12.25 4.15789 12.25C3.28587 12.25 2.57895 12.9775 2.57895 13.875M15.2105 9V13.875M15.2105 9H9.68421" stroke="black" stroke-width="1.3" stroke-linecap="round" stroke-linejoin="round"/>
</g>
<defs>
<clipPath id="clip0_1406_37">
<rect width="16" height="16" fill="white" transform="translate(0 0.5)"/>
</clipPath>
</defs>
</svg>
