<svg width="18" height="13" viewBox="0 0 18 13" fill="none" xmlns="http://www.w3.org/2000/svg">
<path d="M3.79951 12.7202C3.14014 12.7202 2.58031 12.4896 2.12003 12.0284C1.65974 11.5672 1.4296 11.0072 1.4296 10.3484H0V1.52709C0 1.10037 0.147834 0.739171 0.443503 0.443503C0.739171 0.147834 1.10036 0 1.52706 0H13.0289V3.21662H15.2707L18 6.87186V10.3484H16.4729C16.4729 11.0072 16.2422 11.5672 15.7806 12.0284C15.319 12.4896 14.7586 12.7202 14.0992 12.7202C13.4398 12.7202 12.88 12.4896 12.4197 12.0284C11.9594 11.5672 11.7293 11.0072 11.7293 10.3484H6.17326C6.17326 11.009 5.94248 11.5695 5.48091 12.0298C5.01936 12.49 4.45889 12.7202 3.79951 12.7202ZM3.80143 11.4531C4.11118 11.4531 4.37273 11.3464 4.58609 11.133C4.79945 10.9197 4.90613 10.6581 4.90613 10.3484C4.90613 10.0386 4.79945 9.77705 4.58609 9.56369C4.37273 9.35033 4.11118 9.24365 3.80143 9.24365C3.49167 9.24365 3.23011 9.35033 3.01675 9.56369C2.80339 9.77705 2.69671 10.0386 2.69671 10.3484C2.69671 10.6581 2.80339 10.9197 3.01675 11.133C3.23011 11.3464 3.49167 11.4531 3.80143 11.4531ZM1.26713 9.08125H1.87796C2.05773 8.76824 2.31738 8.50587 2.65692 8.29413C2.99646 8.08239 3.37796 7.97652 3.80143 7.97652C4.21407 7.97652 4.59286 8.08104 4.93781 8.29008C5.28276 8.4991 5.54512 8.76282 5.7249 9.08125H11.7618V1.26713H1.52706C1.46209 1.26713 1.40252 1.2942 1.34835 1.34835C1.2942 1.40252 1.26713 1.4621 1.26713 1.52709V9.08125ZM14.1011 11.4531C14.4109 11.4531 14.6724 11.3464 14.8858 11.133C15.0991 10.9197 15.2058 10.6581 15.2058 10.3484C15.2058 10.0386 15.0991 9.77705 14.8858 9.56369C14.6724 9.35033 14.4109 9.24365 14.1011 9.24365C13.7913 9.24365 13.5298 9.35033 13.3164 9.56369C13.1031 9.77705 12.9964 10.0386 12.9964 10.3484C12.9964 10.6581 13.1031 10.9197 13.3164 11.133C13.5298 11.3464 13.7913 11.4531 14.1011 11.4531ZM13.0289 7.39171H16.8141L14.6209 4.48373H13.0289V7.39171Z" fill="black"/>
</svg>
