<svg width="50" height="50" viewBox="0 0 50 50" fill="none" xmlns="http://www.w3.org/2000/svg">
<g clip-path="url(#clip0_1752_253)">
<path d="M36.6674 15C36.6674 13.5833 35.5841 12.5 34.1674 12.5H15.834C14.4173 12.5 13.334 13.5833 13.334 15V25C13.334 26.4167 14.4173 27.5 15.834 27.5H34.1673C35.584 27.5 36.6673 26.4167 36.6673 25V15H36.6674ZM35.0007 25C35.0007 25.5 34.6674 25.8333 34.1674 25.8333H28.6674L31.4174 23.0833C31.7507 22.75 31.7507 22.25 31.4174 21.9166C31.0841 21.5833 30.5841 21.5833 30.2507 21.9166L26.334 25.8333H21.1673L23.9173 23.0833C24.2506 22.75 24.2506 22.25 23.9173 21.9166C23.584 21.5832 23.084 21.5833 22.7506 21.9166L18.8339 25.8333H15.8339C15.3339 25.8333 15.0006 25.5 15.0006 25V15C15.0006 14.5 15.3339 14.1667 15.8339 14.1667H34.1672C34.6672 14.1667 35.0005 14.5 35.0005 15V25H35.0007Z" fill="black"/>
<path d="M48.5 14.25H46.5833C45.75 14.25 45.0833 14.9167 45.0833 15.75V17.5H44.1666V2.5C44.1666 1.0833 43.0833 0 41.6666 0H8.3333C6.9166 0 5.8333 1.0833 5.8333 2.5V17.5H4.9166V15.75C4.9166 14.9167 4.2499 14.25 3.4166 14.25H1.5C0.666699 14.25 0 14.9167 0 15.75V21C0 21.8333 0.666699 22.5 1.5 22.5H3.5C4.3333 22.5 5 21.8333 4.9167 21V19.1667H5.8334V28.3334H5C4.5 28.3334 4.1667 28.6667 4.1667 29.1667V39.1667C4.1667 39.1809 4.16797 39.1944 4.16846 39.2084C4.16797 39.2224 4.1667 39.2358 4.1667 39.2501V42.5001C4.1667 43.9168 5.25 45.0001 6.6667 45.0001H7.5V46.6668C7.5 48.5 9 50 10.8333 50H14.1666C15.9999 50 17.4999 48.5 17.4999 46.6667V45H32.4999V46.6667C32.4999 48.5 33.9999 50 35.8332 50H39.1665C40.9998 50 42.4998 48.5 42.4998 46.6667V45H43.3331C44.7498 45 45.8331 43.9167 45.8331 42.5V39.25C45.8331 39.2358 45.8318 39.2223 45.8313 39.2083C45.8318 39.1943 45.8331 39.1809 45.8331 39.1666V29.1666C45.8331 28.6666 45.4998 28.3333 44.9998 28.3333H44.1665V19.1666H45.0832V20.9999C45.0832 21.8332 45.7499 22.4999 46.5832 22.4999H48.4999C49.3332 22.4999 49.9999 21.8332 49.9999 20.9999V15.7499C50 14.9167 49.3333 14.25 48.5 14.25ZM3.3333 20.8333H1.6667V15.8333H3.3334L3.3333 20.8333ZM15.8333 46.6667C15.8333 47.5834 15.0833 48.3334 14.1666 48.3334H10.8333C9.9166 48.3334 9.1666 47.5834 9.1666 46.6667V45H15.8333V46.6667ZM40.8333 46.6667C40.8333 47.5834 40.0833 48.3334 39.1666 48.3334H35.8333C34.9166 48.3334 34.1666 47.5834 34.1666 46.6667V45H40.8333V46.6667ZM44.1667 42.5C44.1667 43 43.8334 43.3333 43.3334 43.3333H42.5H32.5H17.5H7.5H6.6667C6.1667 43.3333 5.8334 43 5.8334 42.5V40.0833H44.1667V42.5ZM44.1667 38.3333H5.8333V30H10H10.8333V29.1667V11.5C10.8333 10.6667 11.5 10 12.3333 10H37.6666C38.4999 10 39.1666 10.6667 39.1666 11.5V29.1667V30H39.9999H44.1666V38.3333H44.1667ZM40.8333 28.3333V11.5C40.8333 9.75 39.4166 8.3333 37.6666 8.3333H33.3333V5.8333C33.3333 5.3333 33 5 32.5 5C32 5 31.6667 5.3333 31.6667 5.8333V8.3333H29.1667V5.8333C29.1667 5.3333 28.8334 5 28.3334 5C27.8334 5 27.5001 5.3333 27.5001 5.8333V8.3333H25V5.8333C25 5.3333 24.6667 5 24.1667 5C23.6667 5 23.3334 5.3333 23.3334 5.8333V8.3333H20.8334V5.8333C20.8334 5.3333 20.5001 5 20.0001 5C19.5001 5 19.1668 5.3333 19.1668 5.8333V8.3333H16.6668V5.8333C16.6668 5.3333 16.3335 5 15.8335 5C15.3335 5 15.0002 5.3333 15.0002 5.8333V8.3333H12.3335C10.5835 8.3333 9.1668 9.75 9.1668 11.5V28.3333H7.5V2.5C7.5 2 7.8333 1.6667 8.3333 1.6667H41.6666C42.1666 1.6667 42.4999 2 42.4999 2.5V28.3333H40.8333ZM48.3333 20.8333H46.6666V15.8333H48.3333V20.8333Z" fill="black"/>
<path d="M28.334 32.5006C28.834 32.5006 29.1673 32.1673 29.1673 31.6673C29.1673 31.1673 28.834 30.834 28.334 30.834H21.6673C21.1673 30.834 20.834 31.1673 20.834 31.6673C20.834 32.1673 21.1673 32.5006 21.6673 32.5006H28.334Z" fill="black"/>
<path d="M30.8339 34.166H19.1673C18.6673 34.166 18.334 34.4993 18.334 34.9993C18.334 35.4993 18.6673 35.8326 19.1673 35.8326H30.834C31.334 35.8326 31.6673 35.4993 31.6673 34.9993C31.6673 34.4993 31.3339 34.166 30.8339 34.166Z" fill="black"/>
<path d="M10.834 31.666C9.41729 31.666 8.33398 32.7493 8.33398 34.166C8.33398 35.5827 9.41729 36.666 10.834 36.666C12.2507 36.666 13.334 35.5827 13.334 34.166C13.334 32.7493 12.2507 31.666 10.834 31.666ZM10.834 34.9993C10.334 34.9993 10.0007 34.666 10.0007 34.166C10.0007 33.666 10.334 33.3327 10.834 33.3327C11.334 33.3327 11.6673 33.666 11.6673 34.166C11.6673 34.666 11.334 34.9993 10.834 34.9993Z" fill="black"/>
<path d="M36.666 34.166C36.666 35.5827 37.7493 36.666 39.166 36.666C40.5827 36.666 41.666 35.5827 41.666 34.166C41.666 32.7493 40.5827 31.666 39.166 31.666C37.7493 31.666 36.666 32.7493 36.666 34.166ZM39.9993 34.166C39.9993 34.666 39.666 34.9993 39.166 34.9993C38.666 34.9993 38.3327 34.666 38.3327 34.166C38.3327 33.666 38.666 33.3327 39.166 33.3327C39.666 33.3326 39.9993 33.666 39.9993 34.166Z" fill="black"/>
</g>
<defs>
<clipPath id="clip0_1752_253">
<rect width="50" height="50" fill="white"/>
</clipPath>
</defs>
</svg>
