<svg width="32" height="32" viewBox="0 0 32 32" fill="none" xmlns="http://www.w3.org/2000/svg">
<path fill-rule="evenodd" clip-rule="evenodd" d="M12.009 2.7404C11.6559 3.04131 11.4793 3.19179 11.2907 3.31818C10.8585 3.60789 10.373 3.80896 9.86255 3.90975C9.63984 3.95373 9.4086 3.97217 8.94612 4.00907C7.78412 4.10181 7.2031 4.14817 6.71838 4.31939C5.59724 4.71538 4.71538 5.59724 4.31939 6.71838C4.14817 7.2031 4.10181 7.78412 4.00907 8.94612C3.97217 9.4086 3.95373 9.63984 3.90975 9.86255C3.80896 10.373 3.60789 10.8585 3.31818 11.2907C3.19179 11.4793 3.04133 11.6559 2.7404 12.009C1.98431 12.8962 1.60625 13.3398 1.38457 13.8036C0.871809 14.8765 0.871809 16.1235 1.38457 17.1964C1.60626 17.6602 1.98431 18.1038 2.7404 18.991C3.04128 19.3441 3.19179 19.5207 3.31818 19.7092C3.60789 20.1415 3.80896 20.6269 3.90975 21.1375C3.95373 21.3602 3.97217 21.5915 4.00907 22.0539C4.10181 23.2159 4.14817 23.7969 4.31939 24.2816C4.71538 25.4028 5.59724 26.2847 6.71838 26.6807C7.2031 26.8518 7.78412 26.8982 8.94612 26.991C9.4086 27.0278 9.63984 27.0464 9.86255 27.0903C10.373 27.1911 10.8585 27.3922 11.2907 27.6819C11.4793 27.8082 11.6559 27.9587 12.009 28.2596C12.8962 29.0157 13.3398 29.3938 13.8036 29.6155C14.8765 30.1282 16.1235 30.1282 17.1964 29.6155C17.6602 29.3938 18.1038 29.0157 18.991 28.2596C19.3441 27.9587 19.5207 27.8082 19.7092 27.6819C20.1415 27.3922 20.6269 27.1911 21.1375 27.0903C21.3602 27.0464 21.5915 27.0278 22.0539 26.991C23.2159 26.8982 23.7969 26.8518 24.2816 26.6807C25.4028 26.2847 26.2847 25.4028 26.6807 24.2816C26.8518 23.7969 26.8982 23.2159 26.991 22.0539C27.0278 21.5915 27.0464 21.3602 27.0903 21.1375C27.1911 20.6269 27.3922 20.1415 27.6819 19.7092C27.8082 19.5207 27.9587 19.3441 28.2596 18.991C29.0157 18.1038 29.3938 17.6602 29.6155 17.1964C30.1282 16.1235 30.1282 14.8765 29.6155 13.8036C29.3938 13.3398 29.0157 12.8962 28.2596 12.009C27.9587 11.6559 27.8082 11.4793 27.6819 11.2907C27.3922 10.8585 27.1911 10.373 27.0903 9.86255C27.0464 9.63984 27.0278 9.4086 26.991 8.94612C26.8982 7.78412 26.8518 7.2031 26.6807 6.71838C26.2847 5.59724 25.4028 4.71538 24.2816 4.31939C23.7969 4.14817 23.2159 4.10181 22.0539 4.00907C21.5915 3.97217 21.3602 3.95373 21.1375 3.90975C20.6269 3.80896 20.1415 3.60789 19.7092 3.31818C19.5207 3.19179 19.3441 3.04133 18.991 2.7404C18.1038 1.98431 17.6602 1.60626 17.1964 1.38457C16.1235 0.871809 14.8765 0.871809 13.8036 1.38457C13.3398 1.60625 12.8962 1.98431 12.009 2.7404ZM21.8416 12.4016C22.3024 11.9407 22.3024 11.1935 21.8416 10.7326C21.3808 10.2718 20.6334 10.2718 20.1726 10.7326L13.1398 17.7655L10.8273 15.453C10.3665 14.9922 9.61927 14.9922 9.15841 15.453C8.69756 15.9138 8.69756 16.661 9.15841 17.122L12.3053 20.2689C12.7662 20.7297 13.5134 20.7297 13.9743 20.2689L21.8416 12.4016Z" fill="#FE9D00"/>
</svg>
