<svg width="21" height="16" viewBox="0 0 21 16" fill="none" xmlns="http://www.w3.org/2000/svg">
<path d="M20.3653 2.186C20.1261 1.326 19.421 0.648 18.5266 0.418C16.9042 2.08616e-07 10.4 0 10.4 0C10.4 0 3.89584 2.08616e-07 2.27344 0.418C1.37904 0.648 0.67392 1.326 0.43472 2.186C-3.09944e-08 3.746 0 8 0 8C0 8 -3.09944e-08 12.254 0.43472 13.814C0.67392 14.674 1.37904 15.352 2.27344 15.582C3.89584 16 10.4 16 10.4 16C10.4 16 16.9042 16 18.5266 15.582C19.422 15.352 20.1261 14.674 20.3653 13.814C20.8 12.254 20.8 8 20.8 8C20.8 8 20.8 3.746 20.3653 2.186ZM8.32 10.598V5.402C8.32 5.017 8.75368 4.777 9.1 4.969L13.78 7.567C14.1263 7.759 14.1263 8.241 13.78 8.433L9.1 11.031C8.75368 11.224 8.32 10.983 8.32 10.598Z" fill="white"/>
</svg>
