<svg width="51" height="51" viewBox="0 0 51 51" fill="none" xmlns="http://www.w3.org/2000/svg">
<g id="truck-delivery-truck 1">
<g id="Group">
<g id="Group_2">
<path id="Vector" d="M25.6529 6.11523H3.18302C2.25566 6.11523 1.50391 6.86708 1.50391 7.79435V18.6345C1.50391 19.562 2.25556 20.3137 3.18302 20.3137H25.653C26.5803 20.3137 27.3321 19.5619 27.3321 18.6346V7.79435C27.3321 6.86708 26.5802 6.11523 25.6529 6.11523ZM23.9737 16.9554H4.86213V9.47356H23.9737V16.9554Z" fill="black"/>
</g>
</g>
<g id="Group_3">
<g id="Group_4">
<path id="Vector_2" d="M12.2083 39.8912C13.0091 39.8912 13.6583 39.242 13.6583 38.4412C13.6583 37.6404 13.0091 36.9912 12.2083 36.9912C11.4075 36.9912 10.7583 37.6404 10.7583 38.4412C10.7583 39.242 11.4075 39.8912 12.2083 39.8912Z" fill="black"/>
</g>
</g>
<g id="Group_5">
<g id="Group_6">
<path id="Vector_3" d="M49.3208 20.7432H45.4531L41.8526 13.034C41.5766 12.443 40.9834 12.0654 40.3312 12.0654H31.0581C30.1308 12.0654 29.379 12.8173 29.379 13.7445V22.1932H1.67911C0.75185 22.1932 0 22.9449 0 23.8723V37.1291C0 38.0565 0.75185 38.8082 1.67911 38.8082H5.77644C5.96749 42.1907 8.77906 44.8843 12.2087 44.8843C15.6382 44.8843 18.4497 42.1908 18.6408 38.8082C19.102 38.8082 31.986 38.8082 32.7045 38.8082C32.8955 42.1907 35.707 44.8843 39.1365 44.8843C42.5661 44.8843 45.3777 42.1908 45.5688 38.8082H49.3209C50.2483 38.8082 51 38.0564 51 37.1291V22.4223C50.9999 21.495 50.2481 20.7432 49.3208 20.7432ZM12.2087 41.5261C10.5076 41.5261 9.1236 40.1422 9.1236 38.4411C9.1236 36.7227 10.5321 35.3561 12.2087 35.3561C13.8854 35.3561 15.2937 36.7222 15.2937 38.4411C15.2936 40.1422 13.9097 41.5261 12.2087 41.5261ZM29.3537 35.45H17.9141C16.8152 33.3639 14.6348 31.9976 12.2085 31.9976C9.74915 31.9976 7.58833 33.3919 6.50279 35.45H3.35832V25.5514H29.3537V35.45ZM32.7373 15.4237H39.2621L41.7465 20.7432H32.7373V15.4237ZM39.1364 41.5261C37.4353 41.5261 36.0514 40.1422 36.0514 38.4411C36.0514 36.7242 37.4587 35.3561 39.1364 35.3561C40.8295 35.3561 42.2215 36.7383 42.2215 38.4411C42.2215 40.1422 40.8377 41.5261 39.1364 41.5261ZM47.6416 35.45H44.8422C43.7244 33.3306 41.5251 31.9976 39.1364 31.9976C36.7188 31.9976 34.5328 33.3583 33.4308 35.45H32.7373V24.1015C32.974 24.1015 47.3023 24.1015 47.6416 24.1015V35.45Z" fill="black"/>
</g>
</g>
<g id="Group_7">
<g id="Group_8">
<path id="Vector_4" d="M39.136 39.8912C39.9369 39.8912 40.5861 39.242 40.5861 38.4412C40.5861 37.6404 39.9369 36.9912 39.136 36.9912C38.3352 36.9912 37.686 37.6404 37.686 38.4412C37.686 39.242 38.3352 39.8912 39.136 39.8912Z" fill="black"/>
</g>
</g>
</g>
</svg>
