<svg width="50" height="50" viewBox="0 0 50 50" fill="none" xmlns="http://www.w3.org/2000/svg">
<g id="icons_374058 1">
<g id="Group">
<g id="Group_2">
<path id="Vector" d="M25 18.418C21.3672 18.418 18.418 21.3672 18.418 25C18.418 28.6328 21.3672 31.582 25 31.582C28.6328 31.582 31.582 28.6328 31.582 25C31.582 21.3672 28.6328 18.418 25 18.418ZM25 28.3008C23.1836 28.3008 21.6992 26.8164 21.6992 25C21.6992 23.1836 23.1836 21.6992 25 21.6992C26.8164 21.6992 28.3008 23.1836 28.3008 25C28.3008 26.8164 26.8164 28.3008 25 28.3008ZM44.668 23.3594C43.8867 13.7695 36.2305 6.13281 26.6406 5.33203V1.95312H23.3398V5.33203C13.75 6.11328 6.11328 13.7695 5.3125 23.3594H1.95312V26.6602H5.33203C6.13281 36.25 13.7695 43.8867 23.3594 44.6875V48.0469H26.6602V44.668C36.25 43.8867 43.8867 36.2305 44.6875 26.6406H48.0469V23.3398H44.668V23.3594ZM41.3867 26.6406C40.6055 34.4141 34.4141 40.6055 26.6602 41.3672V38.1641H23.3594V41.3672C15.5859 40.6055 9.41406 34.3945 8.63281 26.6406H11.8359V23.3398H8.61328C9.39453 15.5664 15.5859 9.375 23.3398 8.61328V11.8164H26.6406V8.61328C34.4141 9.375 40.5859 15.5859 41.3672 23.3398H38.1641V26.6406H41.3867Z" fill="black"/>
</g>
</g>
</g>
</svg>
