<svg width="13" height="10" viewBox="0 0 13 10" fill="none" xmlns="http://www.w3.org/2000/svg">
<path d="M10.5942 10L9.68771 9.08994L10.3413 8.4363H6.0365C5.90581 8.80941 5.67924 9.11023 5.3568 9.33877C5.03437 9.5673 4.67552 9.68157 4.28027 9.68157C3.88501 9.68157 3.52806 9.56672 3.20942 9.337C2.89078 9.10728 2.66236 8.80704 2.52414 8.4363H1.89278C1.36701 8.4363 0.920099 8.25262 0.55206 7.88528C0.18402 7.51792 0 7.07185 0 6.54707V3.00307H3.57597V1.29501H0V0H7.69288C8.06706 0 8.38592 0.131759 8.64944 0.395275C8.91297 0.658802 9.04473 0.977659 9.04473 1.35185V7.14128H10.3152L9.68771 6.51025L10.5942 5.57758L12.8054 7.78879L10.5942 10ZM4.87453 3.00307H7.74617V1.29501H4.87453V3.00307ZM4.28031 8.38301C4.44867 8.38301 4.5898 8.32606 4.70369 8.21217C4.81758 8.09828 4.87453 7.95715 4.87453 7.78879C4.87453 7.62043 4.81758 7.4793 4.70369 7.36541C4.5898 7.25152 4.44867 7.19457 4.28031 7.19457C4.11195 7.19457 3.97082 7.25152 3.85693 7.36541C3.74304 7.4793 3.68609 7.62043 3.68609 7.78879C3.68609 7.95715 3.74304 8.09828 3.85693 8.21217C3.97082 8.32606 4.11195 8.38301 4.28031 8.38301ZM2.51704 7.14128C2.65525 6.76581 2.88415 6.46439 3.20372 6.23703C3.52329 6.00968 3.88215 5.89601 4.28031 5.89601C4.68034 5.89601 5.04156 6.00909 5.36396 6.23526C5.68636 6.46143 5.91173 6.76344 6.04005 7.14128H7.74617V4.29808H1.29856V6.54707C1.29856 6.71543 1.35551 6.85655 1.4694 6.97045C1.58329 7.08434 1.72442 7.14128 1.89278 7.14128H2.51704ZM2.51704 4.29808H1.29856H7.74617H2.51704Z" fill="#FE9D00"/>
</svg>
