<svg width="36" height="36" viewBox="0 0 36 36" fill="none" xmlns="http://www.w3.org/2000/svg">
<path d="M9.045 28.836C8.625 28.836 8.2125 28.6258 7.8075 28.2053C7.4025 27.7847 7.2 27.3642 7.2 26.9437V22.5282H29.7V7.20901H34.2C34.62 7.20901 35.025 7.41927 35.415 7.8398C35.805 8.26033 36 8.69587 36 9.14643V36L28.845 28.836H9.045ZM0 27.0338V1.89237C0 1.47184 0.195 1.05131 0.585 0.630789C0.975 0.210263 1.38 0 1.8 0H25.155C25.605 0 26.025 0.202753 26.415 0.60826C26.805 1.01377 27 1.4418 27 1.89237V17.9324C27 18.3529 26.805 18.7735 26.415 19.194C26.025 19.6145 25.605 19.8248 25.155 19.8248H7.2L0 27.0338ZM24.3 17.1214V2.70338H2.7V20.7259L6.03 17.1214H24.3Z" fill="#080341"/>
</svg>
