<svg width="32" height="32" viewBox="0 0 32 32" fill="none" xmlns="http://www.w3.org/2000/svg">
<path d="M12.7527 11.6407L13.4387 14.1235C14.0854 16.4641 14.4087 17.6345 15.3594 18.1669C16.3099 18.6992 17.5167 18.3856 19.93 17.7584L22.4899 17.0932C24.9034 16.466 26.11 16.1524 26.659 15.2303C27.2078 14.3083 26.8844 13.1379 26.2378 10.7972L25.5519 8.3144C24.9052 5.97364 24.5819 4.80326 23.6312 4.27092C22.6806 3.73859 21.4738 4.0522 19.0604 4.6794L16.5006 5.34466C14.0871 5.97186 12.8804 6.28546 12.3316 7.2075C11.7827 8.12952 12.1061 9.29991 12.7527 11.6407Z" fill="#FE9D00"/>
<path d="M3.03665 6.99608C3.18431 6.4639 3.73543 6.15218 4.2676 6.29984L6.5392 6.93008C7.76172 7.26926 8.7292 8.2117 9.06671 9.43334L11.9347 19.8147L12.1458 20.5435C12.99 20.8586 13.7151 21.449 14.1752 22.2331L14.5885 22.1055L26.4153 19.032C26.9499 18.8931 27.4959 19.2138 27.6348 19.7483C27.7737 20.2828 27.4529 20.8287 26.9184 20.9676L15.1353 24.0299L14.6971 24.1652C14.6881 25.8598 13.5189 27.4075 11.7498 27.8672C9.62919 28.4183 7.44945 27.1978 6.88123 25.141C6.31301 23.0842 7.57148 20.97 9.69211 20.419C9.7972 20.3916 9.90243 20.3687 10.0076 20.3499L7.13892 9.96593C6.99456 9.44338 6.57196 9.01472 6.00451 8.85728L3.73291 8.22704C3.20072 8.07938 2.889 7.52826 3.03665 6.99608Z" fill="#FE9D00"/>
</svg>
