<svg width="25" height="18" viewBox="0 0 25 18" fill="none" xmlns="http://www.w3.org/2000/svg">
<path opacity="0.3" d="M14.625 6.6375V4.725C15.2437 4.4625 15.8766 4.26562 16.5234 4.13438C17.1703 4.00312 17.85 3.9375 18.5625 3.9375C19.05 3.9375 19.5281 3.975 19.9969 4.05C20.4656 4.125 20.925 4.21875 21.375 4.33125V6.13125C20.925 5.9625 20.4703 5.83594 20.0109 5.75156C19.5516 5.66719 19.0688 5.625 18.5625 5.625C17.85 5.625 17.1656 5.71406 16.5094 5.89219C15.8531 6.07031 15.225 6.31875 14.625 6.6375ZM14.625 12.825V10.9125C15.2437 10.65 15.8766 10.4531 16.5234 10.3219C17.1703 10.1906 17.85 10.125 18.5625 10.125C19.05 10.125 19.5281 10.1625 19.9969 10.2375C20.4656 10.3125 20.925 10.4062 21.375 10.5188V12.3187C20.925 12.15 20.4703 12.0234 20.0109 11.9391C19.5516 11.8547 19.0688 11.8125 18.5625 11.8125C17.85 11.8125 17.1656 11.8969 16.5094 12.0656C15.8531 12.2344 15.225 12.4875 14.625 12.825ZM14.625 9.73125V7.81875C15.2437 7.55625 15.8766 7.35938 16.5234 7.22812C17.1703 7.09687 17.85 7.03125 18.5625 7.03125C19.05 7.03125 19.5281 7.06875 19.9969 7.14375C20.4656 7.21875 20.925 7.3125 21.375 7.425V9.225C20.925 9.05625 20.4703 8.92969 20.0109 8.84531C19.5516 8.76094 19.0688 8.71875 18.5625 8.71875C17.85 8.71875 17.1656 8.80781 16.5094 8.98594C15.8531 9.16406 15.225 9.4125 14.625 9.73125ZM6.1875 13.5C7.06875 13.5 7.92656 13.5984 8.76094 13.7953C9.59531 13.9922 10.425 14.2875 11.25 14.6812V3.6C10.4812 3.15 9.66562 2.8125 8.80312 2.5875C7.94062 2.3625 7.06875 2.25 6.1875 2.25C5.5125 2.25 4.84219 2.31562 4.17656 2.44687C3.51094 2.57812 2.86875 2.775 2.25 3.0375V14.175C2.90625 13.95 3.55781 13.7812 4.20469 13.6687C4.85156 13.5562 5.5125 13.5 6.1875 13.5ZM13.5 14.6812C14.325 14.2875 15.1547 13.9922 15.9891 13.7953C16.8234 13.5984 17.6812 13.5 18.5625 13.5C19.2375 13.5 19.8984 13.5562 20.5453 13.6687C21.1922 13.7812 21.8438 13.95 22.5 14.175V3.0375C21.8812 2.775 21.2391 2.57812 20.5734 2.44687C19.9078 2.31562 19.2375 2.25 18.5625 2.25C17.6812 2.25 16.8094 2.3625 15.9469 2.5875C15.0844 2.8125 14.2687 3.15 13.5 3.6V14.6812ZM12.375 18C11.475 17.2875 10.5 16.7344 9.45 16.3406C8.4 15.9469 7.3125 15.75 6.1875 15.75C5.4 15.75 4.62656 15.8531 3.86719 16.0594C3.10781 16.2656 2.38125 16.5562 1.6875 16.9312C1.29375 17.1375 0.914062 17.1281 0.548437 16.9031C0.182812 16.6781 0 16.35 0 15.9187V2.3625C0 2.15625 0.0515625 1.95937 0.154687 1.77187C0.257812 1.58437 0.4125 1.44375 0.61875 1.35C1.48125 0.9 2.38125 0.5625 3.31875 0.3375C4.25625 0.1125 5.2125 0 6.1875 0C7.275 0 8.33906 0.140625 9.37969 0.421875C10.4203 0.703125 11.4187 1.125 12.375 1.6875C13.3312 1.125 14.3297 0.703125 15.3703 0.421875C16.4109 0.140625 17.475 0 18.5625 0C19.5375 0 20.4937 0.1125 21.4312 0.3375C22.3687 0.5625 23.2687 0.9 24.1312 1.35C24.3375 1.44375 24.4922 1.58437 24.5953 1.77187C24.6984 1.95937 24.75 2.15625 24.75 2.3625V15.9187C24.75 16.35 24.5672 16.6781 24.2016 16.9031C23.8359 17.1281 23.4562 17.1375 23.0625 16.9312C22.3687 16.5562 21.6422 16.2656 20.8828 16.0594C20.1234 15.8531 19.35 15.75 18.5625 15.75C17.4375 15.75 16.35 15.9469 15.3 16.3406C14.25 16.7344 13.275 17.2875 12.375 18Z" fill="white"/>
</svg>
