<svg width="16" height="16" viewBox="0 0 16 16" fill="none" xmlns="http://www.w3.org/2000/svg">
<g clip-path="url(#clip0_1010_750)">
<path d="M15.1164 16.0001C15.6041 16.0001 15.9995 15.6047 15.9995 15.117V0.883062C15.9995 0.395312 15.6041 0 15.1164 0H0.882574C0.394762 0 -0.000488281 0.395312 -0.000488281 0.883062V15.117C-0.000488281 15.6047 0.394762 16.0001 0.882574 16.0001H15.1164Z" fill="white"/>
<path d="M11.0391 16.0005V9.80443H13.1189L13.4303 7.38974H11.0391V5.84799C11.0391 5.14887 11.2333 4.67243 12.2359 4.67243L13.5146 4.67187V2.51218C13.2933 2.48274 12.5343 2.41699 11.6513 2.41699C9.8077 2.41699 8.54557 3.5423 8.54557 5.60893V7.38974H6.46045V9.80443H8.54557V16.0005H11.0391Z" fill="#211E1F"/>
</g>
<defs>
<clipPath id="clip0_1010_750">
<rect x="-0.000488281" width="16" height="16" rx="3" fill="white"/>
</clipPath>
</defs>
</svg>
