<svg width="127" height="70" viewBox="0 0 127 70" fill="none" xmlns="http://www.w3.org/2000/svg">
<path d="M42.9732 45.3406C42.8375 45.2528 40.5707 43.2135 40.008 42.4872C39.4572 41.7609 38.3957 41.5693 37.8409 41.278C37.2822 40.9866 33.5947 39.7734 32.7087 40.404C31.8347 41.0305 30.6295 41.4177 30.1626 40.404C29.7036 39.3823 29.4722 39.2387 28.8256 39.095C28.1791 38.9513 28.5024 38.1771 28.4585 37.4986C28.4066 36.8162 28.0394 36.0939 27.5765 36.5808C27.1136 37.0676 25.5412 38.3248 25.3137 37.6862C25.0822 37.0637 23.9688 34.4457 25.637 33.9588C27.2972 33.4759 28.686 33.7632 29.105 34.1982C29.5201 34.6332 29.8393 35.8464 30.3541 35.6988C30.865 35.5511 30.5856 34.6292 30.7692 33.859C30.9528 33.0928 32.162 32.0711 32.7087 31.0056C33.2635 29.936 33.3552 29.3095 34.0457 29.0141C34.748 28.7268 35.1152 28.3397 35.7617 27.8528C36.4122 27.3659 37.4219 26.9389 37.801 26.6875C38.1722 26.44 39.8324 25.6219 40.3831 25.7696C40.9378 25.9172 41.305 25.7177 40.846 24.8956C40.3831 24.0735 39.7845 21.6032 38.9065 20.4897C38.0285 19.3763 37.9327 19.077 37.5177 18.0194C37.1026 16.9498 36.6357 16.0319 36.3125 16.7583C35.9892 17.4886 35.2988 18.4584 34.9276 17.5325C34.5605 16.6146 34.6044 16.6585 34.1414 16.2235C33.6825 15.7925 33.3074 15.6887 32.6648 15.4972C32.0183 15.3016 31.3718 15.5451 31.4157 16.1756C31.4596 16.8102 30.8091 17.9276 31.2321 18.7497C31.6472 19.5758 32.0183 20.4498 31.4596 20.7371C30.9089 21.0245 31.4596 22.7765 30.9089 22.7206C30.3541 22.6767 30.0788 22.7765 30.0788 22.1379C30.0788 21.5114 30.3541 20.5416 29.3325 20.5416C28.3188 20.5416 27.7162 20.0108 26.9779 19.476C26.2356 18.9453 25.637 19.2286 25.8205 18.0234C26.0041 16.8102 25.7327 16.3752 26.5588 15.6967C27.3929 15.0223 27.5805 14.6312 28.1791 14.9225C28.7817 15.2138 29.1928 15.2138 29.5719 14.8746C29.9391 14.5354 30.6295 14.679 30.6295 14.244C30.6295 13.813 29.8433 13.813 29.9391 13.0867C30.0269 12.3524 30.402 12.7435 30.5377 11.5303C30.6734 10.3211 29.6597 8.48129 28.6421 8.72074C27.6204 8.96817 26.056 10.3689 25.7327 9.7384C25.4055 9.10784 24.759 9.39917 23.5098 9.83418C22.2607 10.2692 17.0846 9.39918 16.7174 8.96018C16.7174 8.96018 15.8355 8.33362 15.3725 8.67284C14.9136 9.01206 13.0618 8.8644 12.5071 8.76862C11.9484 8.67284 11.4416 9.39518 10.7551 9.15972C10.0528 8.91229 7.60637 8.4294 7.05563 8.04229C6.49293 7.65518 5.65884 7.65518 5.29967 7.46362C4.92852 7.26408 3.58361 7.17229 3.31223 7.55541C3.03686 7.94252 2.0192 8.62495 1.50837 9.10385C1.00154 9.59073 0.406901 9.49894 0.909746 10.5166C1.41658 11.5303 -0.383285 12.1648 0.0756616 13.2743C0.534608 14.3797 -0.0161276 17.3848 1.83163 17.9715C3.68338 18.5542 5.20788 18.8894 6.26944 18.0234C7.33898 17.1494 8.95527 17.1494 9.46211 18.1192C9.96894 19.0849 10.2483 20.5376 11.9085 21.3597C13.5687 22.1898 15.0054 24.5644 14.9136 25.6299C14.8258 26.6955 14.9655 30.2274 16.6656 32.2667C18.3816 34.302 20.1376 37.9855 20.2693 37.1115C20.409 36.2375 20.409 35.3636 20.7841 35.9941C21.1473 36.6287 22.121 38.5682 23.6934 38.9034C25.2698 39.2426 26.056 39.3344 26.6506 39.9251C27.2493 40.5037 27.7641 40.839 28.4066 41.1343C29.0531 41.4256 30.6255 42.2996 30.9488 42.8823C31.276 43.465 31.1363 44.2392 30.8091 45.1132C30.4898 45.9872 30.1187 46.8572 30.5776 47.6833C31.0445 48.5054 32.0143 50.8839 32.8045 51.4147C33.5907 51.9495 34.3689 52.8195 34.1853 54.0327C34.0018 55.2339 33.1238 60.418 33.2156 61.5833C33.3113 62.7407 32.158 66.5679 33.0799 68.1203C34.0018 69.6728 35.5821 70.1597 36.2725 69.9561C36.963 69.7686 36.4122 69.7167 36.085 68.9903C35.7617 68.26 35.8056 67.3421 36.1768 66.6677C36.5519 65.9852 36.5519 65.5981 36.3643 64.8239C36.1768 64.0537 36.2725 63.6107 36.7315 63.036C37.1984 62.4533 39.138 60.9049 39.7406 60.2265C40.3352 59.548 44.1345 54.8947 44.6413 54.5036C45.1482 54.1165 46.3015 53.1986 46.6767 51.7499C47.0478 50.2973 48.3847 47.4398 47.4628 46.7055C46.533 45.9752 43.1128 45.4404 42.9732 45.3406Z" fill="#787878"/>
<path d="M52.2157 4.45839C52.4791 3.94757 53.1176 2.65853 53.4608 1.95215H38.8145C38.99 2.73036 39.6246 5.61574 39.5049 6.78505C39.3652 8.14593 39.7842 7.66304 40.1514 8.19781C40.5225 8.72859 40.4307 9.55469 40.1993 10.1813C39.9638 10.8118 39.8281 12.2166 40.5744 13.8648C41.3087 15.513 42.1867 17.5922 42.925 17.692C43.6713 17.7878 43.4837 18.8533 43.9946 18.4662C44.5014 18.0711 44.5892 17.2091 45.0122 15.948C45.4273 14.6909 45.4273 13.765 46.4928 13.1385C47.5584 12.5079 50.5116 10.4766 51.1581 9.74226C51.8086 9.01593 52.5469 8.7246 52.3155 7.47148C52.076 6.20638 51.8485 5.18872 52.2157 4.45839Z" fill="#787878"/>
<path d="M124.327 10.1777C123.772 9.79055 120.448 7.12865 119.011 7.46788C117.586 7.8071 115.036 6.68966 114.621 6.44622C114.206 6.20278 110.79 5.15718 108.986 5.08934C108.088 5.05741 104.317 4.21934 102.74 3.54488C101.168 2.86644 99.8309 -0.473886 96.8298 0.0568951C96.4427 0.12873 92.811 0.639556 91.8851 1.46566C90.9673 2.29176 90.5442 3.25355 90.0374 3.4491C89.5306 3.64465 88.0499 3.54489 88.0499 4.27521C88.0499 5.00154 88.5608 7.23242 87.9622 6.79343C87.3595 6.35842 86.7569 5.34076 86.4855 6.11498C86.2102 6.8932 85.7353 7.3282 85.4639 7.03288C85.1925 6.74554 83.7917 7.03288 83.6121 7.51976C83.4286 8.00664 81.6247 9.1121 80.8465 9.26774C80.0603 9.41141 79.733 9.80252 79.318 9.99807C78.903 10.1896 75.7542 11.6463 75.1596 11.1075C74.5569 10.5767 74.3734 10.916 74.0022 11.0157C74.0022 11.0157 72.8928 10.8202 72.2023 9.94619C71.5039 9.07618 71.3683 9.36353 70.5821 8.54141C69.7999 7.7193 69.6123 6.89719 68.8261 7.23641C68.0479 7.57164 64.7195 11.0117 63.4225 12.5602C62.1335 14.1166 59.8188 15.709 60.9721 16.8224C62.1335 17.9358 62.7281 17.7922 62.8718 18.4147C63.0154 19.0413 63.1511 19.7237 63.3347 19.9712C63.5183 20.2146 64.6277 21.0806 65.1825 19.9193C65.7452 18.754 65.829 17.9358 66.4795 18.1314C67.126 18.323 67.2617 18.7619 66.9344 19.6319C66.6112 20.5059 66.3837 21.8588 65.2743 21.8109C64.1648 21.7631 62.9675 21.0806 62.5884 21.2283C62.2213 21.3719 61.9978 21.7112 61.5747 22.0504C61.1597 22.3896 59.8627 23.9859 58.9847 24.2294C58.1107 24.4768 57.0491 24.2773 57.6478 24.9996C58.2464 25.722 59.1244 27.3263 58.2943 27.2784C57.4642 27.2265 56.0754 27.0868 55.9836 27.9089C55.8918 28.7271 55.5246 29.2139 55.7082 29.7966C55.8918 30.3793 56.4944 31.4927 57.2287 31.1056C57.979 30.7105 59.4077 30.3314 59.7749 29.4574C60.146 28.5834 60.5651 27.6216 61.4869 27.6655C62.4088 27.7134 64.6317 28.9266 64.492 29.3616C64.3524 29.7966 63.8934 30.8143 64.4481 30.475C64.9989 30.1358 65.4618 29.7487 65.7851 29.605C66.1083 29.4574 66.5314 30.0919 66.6631 30.3314C66.8027 30.5788 67.7286 31.0577 67.9122 30.2795C68.0998 29.5053 68.2833 30.0919 68.8301 30.3314C69.3928 30.5788 71.053 30.7664 71.2765 30.9619C71.5159 31.1535 72.0228 31.7361 71.3722 32.5104C70.7257 33.2846 69.9794 33.5839 68.9219 32.9973C67.8563 32.4146 66.699 33.4841 65.5057 32.9015C64.3005 32.3188 64.8552 31.4967 63.4225 30.918C61.9978 30.3354 58.7572 31.0577 57.7356 31.349C56.7179 31.6364 56.674 31.7401 56.259 32.219C55.8439 32.7059 53.1182 35.8507 53.1182 37.6426C53.1182 39.4345 54.1318 44.2833 57.4123 43.7965C60.6968 43.3096 62.6842 43.6009 62.317 44.5667C61.9419 45.5405 62.1335 45.7799 62.7321 46.8933C63.3307 48.0028 64.7235 55.4178 64.951 56.623C65.1864 57.8402 64.7714 59.3847 66.2959 59.1412C67.8244 58.9018 69.4407 58.5187 70.0832 57.1099C70.7337 55.7051 70.8295 54.1088 71.6596 53.2867C72.4937 52.4606 73.5113 52.4606 73.5991 51.2992C73.6869 50.1339 73.3677 47.3802 73.9224 46.7417C74.4771 46.1151 77.0632 43.2058 77.3385 42.0445C77.6179 40.8831 77.9851 40.5918 76.9235 40.5918C75.8619 40.5918 74.0581 40.4481 73.5433 39.4784C73.0404 38.5086 71.8352 36.6688 71.8352 36.2378C71.8352 35.8028 72.5775 35.8467 72.9406 36.7686C73.3118 37.6825 74.6008 40.4521 76.0814 39.8615C77.562 39.2788 79.6453 38.6084 79.6892 37.6825C79.733 36.7686 79.0426 35.699 78.2963 35.7549C77.5541 35.8028 76.7718 35.268 76.7718 34.7373C76.7718 34.2025 76.9075 34.402 77.7855 34.7373C78.6715 35.0765 78.9429 35.6512 80.2838 35.7549C81.6247 35.8467 83.1532 37.1557 83.8875 37.7424C84.6298 38.325 85.9188 42.2959 86.2461 42.679C86.5654 43.0741 86.9445 43.0741 87.2638 42.2919C87.591 41.5137 88.9758 39.0514 89.762 38.3649C90.5482 37.6865 90.5921 36.7726 91.0511 37.3513C91.514 37.9339 93.5014 39.3866 93.6411 40.2606C93.7808 41.1306 93.5493 43.0182 93.9644 42.4396C94.3794 41.8569 94.7067 40.6477 95.0658 41.1825C95.441 41.7212 95.441 42.5433 96.315 41.9128C97.1969 41.2862 98.7214 41.0388 97.8913 39.6819C97.0613 38.325 97.616 37.5029 98.1308 37.455C98.6376 37.4031 102.106 36.7766 102.197 34.8809C102.289 32.9933 100.992 31.9756 101.607 31.0058C102.197 30.0361 103.075 29.1661 103.267 29.7487C103.451 30.3314 102.804 32.215 103.634 31.9277C104.468 31.6364 105.438 31.6364 105.438 31.0497C105.438 30.4671 105.25 29.0104 105.626 28.6313C105.997 28.2442 108.715 25.6781 109.042 24.6604C109.365 23.6427 109.968 22.7727 109.457 21.9985C108.946 21.2243 108.072 21.4637 108.762 20.498C109.457 19.5282 110.614 18.6342 111.492 18.5584C114.298 18.315 113.507 21.787 113.551 22.5572C113.607 23.3314 113.607 25.275 114.018 24.3052C114.433 23.3354 114.916 22.1462 115.75 21.3241C116.584 20.5019 117.039 19.9672 117.095 19.2408C117.143 18.5145 117.179 18.2751 117.973 17.884C118.759 17.4968 122.223 16.14 122.547 15.2221C122.866 14.3082 122.132 13.4741 122.962 13.53C123.792 13.5739 124.578 14.4957 124.997 14.0128C125.416 13.53 126.338 12.66 126.29 12.1731C126.234 11.6822 124.889 10.5648 124.327 10.1777Z" fill="#787878"/>
<path d="M109.405 26.4518C109.125 27.0864 108.99 27.1822 108.575 28.4912C108.152 29.7962 108.291 29.4569 107.872 30.279C107.457 31.1052 106.771 31.1929 106.072 31.7357C105.374 32.2705 105.19 33.328 105.19 33.328C104.592 34.1502 107.641 32.1627 108.702 31.5362C109.768 30.9096 109.493 30.1793 109.584 29.1616C109.676 28.144 109.963 27.9963 110.414 27.5613C110.873 27.1303 110.506 26.2563 110.287 25.6297C110.043 24.9952 109.676 25.8253 109.405 26.4518Z" fill="#787878"/>
<path d="M99.9266 48.4412C100.246 48.1978 100.014 47.667 100.521 47.7628C101.032 47.8546 101.491 48.1539 102.102 47.8147C102.696 47.4715 103.207 47.6151 103.115 47.0404C103.027 46.4578 103.115 45.6836 102.98 45.2047C102.84 44.7178 102.01 44.5701 101.403 45.1089C100.809 45.6437 99.9785 46.4658 99.9785 46.1704C99.9785 45.8871 100.342 45.1089 100.158 44.622C99.9785 44.1391 100.246 43.7041 99.328 44.0912C98.4021 44.4783 97.8953 44.3826 97.572 44.9173C97.2488 45.4521 96.8776 46.37 96.3269 45.7873C95.7682 45.2087 94.1519 43.9994 94.1519 43.9994C94.0202 43.8518 92.1724 42.3472 92.8189 43.3689C93.4615 44.3905 94.4312 46.1305 94.8982 46.7611C95.3531 47.3916 95.8639 48.118 96.4187 47.7787C96.9774 47.4395 97.0692 47.3437 97.8115 47.7787C98.5338 48.2018 99.6033 48.6847 99.9266 48.4412Z" fill="#787878"/>
<path d="M111.257 47.0882C110.371 46.7011 110.742 46.3579 109.676 46.1703C108.611 45.9828 107.737 46.1703 107.453 45.9788C107.174 45.7832 105.793 45.3003 105.977 45.9788C106.164 46.6612 107.409 46.8488 107.729 47.0443C108.052 47.2399 107.27 47.6749 107.864 48.0101C108.463 48.3453 108.882 48.9799 109.668 48.7843C110.454 48.5888 110.734 49.0278 111.372 49.1235C112.023 49.2193 112.669 49.0278 112.402 48.7324C112.123 48.4451 111.943 48.054 111.987 47.7188C112.031 47.3796 112.127 47.4713 111.257 47.0882Z" fill="#787878"/>
<path d="M110.79 51.3991C110.466 50.4294 109.68 48.6415 109.501 49.5075C109.313 50.3815 108.064 51.004 107.597 50.9561C107.174 50.9122 107.413 50.4733 107.413 50.0822C107.413 49.695 107.17 49.3079 106.116 49.5993C105.047 49.8906 104.827 50.9083 104.54 50.8125C104.269 50.7207 103.522 50.5211 103.063 51.0599C102.604 51.5947 102.181 52.6084 101.635 52.8039C101.072 52.9995 99.2241 53.2389 99.2241 54.0211C99.2241 54.7913 99.691 55.9527 99.6432 56.5872C99.5953 57.2218 98.7492 58.6664 99.8746 59.1054C100.521 59.3609 100.98 59.3968 101.73 59.0136C102.469 58.6225 105.653 57.6049 106.072 57.9401C106.487 58.2793 107.162 59.0775 107.461 59.2491C108.048 59.5963 108.207 60.4104 108.994 60.602C109.768 60.7976 110.379 60.8933 110.698 60.8933C111.025 60.8933 112.174 60.5062 112.454 59.8238C112.729 59.1414 113.24 57.549 113.471 56.7708C113.711 55.9966 113.93 55.1266 113.24 54.4441C112.546 53.7737 111.113 52.3689 110.79 51.3991Z" fill="#787878"/>
</svg>
