<svg width="16" height="16" viewBox="0 0 16 16" fill="none" xmlns="http://www.w3.org/2000/svg">
<path d="M15 16C13.2815 16 11.5296 15.5852 9.74444 14.7556C7.95926 13.9259 6.3037 12.7481 4.77778 11.2222C3.25185 9.6963 2.07407 8.04074 1.24444 6.25556C0.414815 4.47037 0 2.71852 0 1C0 0.714281 0.0952369 0.476185 0.285711 0.285711C0.476185 0.0952369 0.714281 0 1 0H4.11111C4.31852 0 4.4963 0.0740741 4.64444 0.222222C4.79259 0.37037 4.8963 0.555556 4.95556 0.777778L5.55398 3.5698C5.58466 3.78253 5.58148 3.97407 5.54444 4.14444C5.50741 4.31482 5.42793 4.46093 5.30602 4.5828L3.08889 6.82222C3.47407 7.47407 3.88148 8.08148 4.31111 8.64444C4.74074 9.20741 5.21482 9.74074 5.73333 10.2444C6.28148 10.8074 6.85926 11.3222 7.46667 11.7889C8.07407 12.2556 8.71111 12.6667 9.37778 13.0222L11.4889 10.8444C11.637 10.6815 11.8085 10.5704 12.0034 10.5111C12.1982 10.4519 12.3897 10.437 12.5778 10.4667L15.2222 11.0444C15.4444 11.1037 15.6296 11.2225 15.7778 11.401C15.9259 11.5794 16 11.7791 16 12V15C16 15.2857 15.9048 15.5238 15.7143 15.7143C15.5238 15.9048 15.2857 16 15 16ZM2.42222 5.6L4.22222 3.77778L3.71111 1.33333H1.33333C1.36296 1.95556 1.46296 2.61111 1.63333 3.3C1.8037 3.98889 2.06667 4.75556 2.42222 5.6ZM10.6222 13.6667C11.2296 13.9481 11.8889 14.1778 12.6 14.3556C13.3111 14.5333 14 14.637 14.6667 14.6667V12.2889L12.3778 11.8222L10.6222 13.6667Z" fill="white"/>
</svg>
