<svg width="70" height="70" viewBox="0 0 70 70" fill="none" xmlns="http://www.w3.org/2000/svg">
<path d="M12.9794 32.047H16.858C19.4314 39.6033 26.5978 45.0536 35.0137 45.0536C41.0479 45.0536 46.439 42.2508 49.956 37.8797H54.9419C55.8672 37.8797 56.6171 37.1298 56.6171 36.2045V32.047H57.3723C59.1893 32.047 60.6674 30.5688 60.6674 28.7517V20.3266C60.6674 18.7211 59.5129 17.3806 57.9906 17.0903C56.8913 12.1108 54.184 7.87894 50.1204 4.8094C45.9548 1.6631 40.7309 0 35.0136 0C23.4089 0 14.2555 6.87324 12.019 17.1744C10.6689 17.5866 9.68408 18.8436 9.68408 20.3266V28.7517C9.68408 30.5688 11.1623 32.047 12.9794 32.047ZM13.0345 28.6966V20.3817H16.6455C16.1228 22.1243 15.8406 23.97 15.8406 25.8804C15.8406 26.837 15.912 27.7772 16.0479 28.6966H13.0345ZM35.0136 41.7032C26.2889 41.7032 19.1909 34.6051 19.1909 25.8804C19.1909 17.1557 26.2889 10.0579 35.0136 10.0579C43.7384 10.0579 50.8364 17.1559 50.8364 25.8804C50.8364 29.0703 49.8866 32.0418 48.2568 34.5293H34.0415C33.1164 34.5293 32.3663 35.2794 32.3663 36.2045C32.3663 37.1298 33.1164 37.8797 34.0415 37.8797H45.316C42.5457 40.2616 38.945 41.7032 35.0136 41.7032ZM53.2666 34.5293H52.1221C52.5266 33.732 52.8778 32.9032 53.1693 32.047H53.2665L53.2666 34.5293ZM57.3169 28.6966H53.9796C54.1156 27.7773 54.1869 26.837 54.1869 25.8804C54.1869 23.97 53.9046 22.1243 53.3821 20.3817H57.3171L57.3169 28.6966ZM35.0136 3.35038C44.6699 3.35038 52.3126 8.78427 54.5265 17.0313H52.0185C48.8155 10.9016 42.3956 6.70747 35.0136 6.70747C27.6316 6.70747 21.2117 10.9016 18.0088 17.0313H15.5003C17.712 8.78937 25.3703 3.35038 35.0136 3.35038Z" fill="#787878"/>
<path d="M52.2187 45.791H17.7809C12.4631 45.791 8.13672 50.1172 8.13672 55.435V68.3244C8.13672 69.2497 8.88677 69.9996 9.81191 69.9996C10.7371 69.9996 11.4871 69.2497 11.4871 68.3244V55.435C11.4871 51.9648 14.3105 49.1414 17.7809 49.1414H52.2187C55.6891 49.1414 58.5126 51.9648 58.5126 55.4352V68.3245C58.5126 69.2498 59.2625 69.9997 60.1878 69.9997C61.1131 69.9997 61.863 69.2498 61.863 68.3245V55.4352C61.863 50.1174 57.5367 45.791 52.2187 45.791Z" fill="#787878"/>
</svg>
