<svg width="16" height="14" viewBox="0 0 16 14" fill="none" xmlns="http://www.w3.org/2000/svg">
<path d="M1.2 13.6C0.88 13.6 0.6 13.4725 0.36 13.2175C0.12 12.9625 0 12.665 0 12.325V1.275C0 0.935 0.12 0.6375 0.36 0.3825C0.6 0.1275 0.88 0 1.2 0H14.8C15.12 0 15.4 0.1275 15.64 0.3825C15.88 0.6375 16 0.935 16 1.275V12.325C16 12.665 15.88 12.9625 15.64 13.2175C15.4 13.4725 15.12 13.6 14.8 13.6H1.2ZM8 7.1825L1.2 2.44375V12.325H14.8V2.44375L8 7.1825ZM8 5.9075L14.72 1.275H1.3L8 5.9075ZM1.2 2.44375V1.275V12.325V2.44375Z" fill="white"/>
</svg>
