<svg width="16" height="16" viewBox="0 0 16 16" fill="none" xmlns="http://www.w3.org/2000/svg">
<path id="Vector" d="M2.94729 16C2.35891 16 1.86093 15.7962 1.45337 15.3887C1.04582 14.9811 0.842041 14.4831 0.842041 13.8948V11.4656H3.36836V0H15.1578V13.8948C15.1578 14.4831 14.954 14.9811 14.5465 15.3887C14.1389 15.7962 13.641 16 13.0526 16H2.94729ZM13.0526 14.7369C13.2912 14.7369 13.4912 14.6562 13.6526 14.4948C13.814 14.3334 13.8947 14.1333 13.8947 13.8948V1.26314H4.6315V11.4656H12.2105V13.8948C12.2105 14.1333 12.2912 14.3334 12.4526 14.4948C12.614 14.6562 12.814 14.7369 13.0526 14.7369ZM5.63557 5.21454V3.95142H12.8906V5.21454H5.63557ZM5.63557 7.6437V6.38057H12.8906V7.6437H5.63557ZM2.94729 14.7369H10.9473V12.7287H2.10518V13.8948C2.10518 14.1333 2.18588 14.3334 2.34729 14.4948C2.50869 14.6562 2.70869 14.7369 2.94729 14.7369ZM2.94729 14.7369H2.10518H10.9473H2.94729Z" fill="black"/>
</svg>
