<svg width="16" height="17" viewBox="0 0 16 17" fill="none" xmlns="http://www.w3.org/2000/svg">
<path d="M5.96924 16.5L5.64858 13.9348C5.42294 13.8592 5.19163 13.7534 4.95464 13.6174C4.71766 13.4814 4.50578 13.3356 4.319 13.1801L1.94329 14.1842L0 10.8158L2.05506 9.26276C2.03562 9.13752 2.02185 9.01175 2.01375 8.88543C2.00565 8.75912 2.00161 8.63334 2.00161 8.50811C2.00161 8.38826 2.00565 8.26653 2.01375 8.1429C2.02185 8.01928 2.03562 7.88406 2.05506 7.73724L0 6.1842L1.94329 2.83201L4.31089 3.82797C4.51387 3.6671 4.73061 3.51999 4.96111 3.38666C5.19162 3.25331 5.41808 3.14615 5.64048 3.06519L5.96924 0.5H9.85581L10.1765 3.07329C10.4291 3.16505 10.6577 3.2722 10.8623 3.39474C11.0669 3.51729 11.2734 3.66169 11.4818 3.82797L13.8818 2.83201L15.8251 6.1842L13.7376 7.76151C13.7678 7.89756 13.7843 8.02469 13.787 8.1429C13.7897 8.26112 13.791 8.38015 13.791 8.5C13.791 8.61444 13.7884 8.73077 13.783 8.84899C13.7776 8.96721 13.7581 9.10244 13.7246 9.25468L15.7959 10.8158L13.8526 14.1842L11.4818 13.172C11.2734 13.3383 11.0607 13.4854 10.8437 13.6133C10.6267 13.7413 10.4043 13.8457 10.1765 13.9267L9.85581 16.5H5.96924ZM7.92223 11.0263C8.62291 11.0263 9.21912 10.7804 9.71089 10.2887C10.2027 9.79688 10.4485 9.20066 10.4485 8.5C10.4485 7.79934 10.2027 7.20312 9.71089 6.71134C9.21912 6.21958 8.62291 5.9737 7.92223 5.9737C7.21294 5.9737 6.61456 6.21958 6.12711 6.71134C5.63967 7.20312 5.39595 7.79934 5.39595 8.5C5.39595 9.20066 5.63967 9.79688 6.12711 10.2887C6.61456 10.7804 7.21294 11.0263 7.92223 11.0263ZM7.92223 9.76316C7.57135 9.76316 7.27311 9.64035 7.02749 9.39474C6.78188 9.14913 6.65907 8.85088 6.65907 8.5C6.65907 8.14912 6.78188 7.85088 7.02749 7.60526C7.27311 7.35965 7.57135 7.23684 7.92223 7.23684C8.27311 7.23684 8.57135 7.35965 8.81697 7.60526C9.06258 7.85088 9.18539 8.14912 9.18539 8.5C9.18539 8.85088 9.06258 9.14913 8.81697 9.39474C8.57135 9.64035 8.27311 9.76316 7.92223 9.76316ZM7.07042 15.2369H8.72547L9.02832 12.981C9.458 12.8687 9.85071 12.7092 10.2064 12.5024C10.5622 12.2957 10.9052 12.0298 11.2356 11.7049L13.3279 12.5842L14.1571 11.1526L12.3303 9.77611C12.4005 9.55803 12.4483 9.34427 12.4737 9.13482C12.499 8.92538 12.5117 8.71377 12.5117 8.5C12.5117 8.28084 12.499 8.06923 12.4737 7.86518C12.4483 7.66114 12.4005 7.45277 12.3303 7.24008L14.1733 5.84736L13.3441 4.41578L11.2275 5.3081C10.9457 5.00688 10.6081 4.74075 10.2146 4.50972C9.82102 4.27867 9.42291 4.1151 9.02021 4.01902L8.75463 1.76314H7.08336L6.80484 4.01091C6.37514 4.1124 5.97837 4.26787 5.61454 4.47732C5.25071 4.68676 4.90361 4.95667 4.57325 5.28705L2.48093 4.41578L1.65177 5.84736L3.47041 7.20284C3.40023 7.40256 3.35111 7.61038 3.32304 7.82631C3.29497 8.04224 3.28093 8.26951 3.28093 8.50811C3.28093 8.72726 3.29497 8.94211 3.32304 9.15263C3.35111 9.36316 3.39753 9.57099 3.4623 9.77611L1.65177 11.1526L2.48093 12.5842L4.56515 11.7C4.88471 12.0282 5.22641 12.297 5.59025 12.5065C5.95408 12.7159 6.35624 12.8768 6.79673 12.9891L7.07042 15.2369Z" fill="white"/>
</svg>
