<svg width="32" height="32" viewBox="0 0 32 32" fill="none" xmlns="http://www.w3.org/2000/svg">
<g clip-path="url(#clip0_1055_814)">
<path d="M32 7.30187V16.9886C32 16.9886 29.9268 17.397 29.4997 17.4508C29.074 17.5044 27.736 17.9364 26.7664 17.0044C25.2711 15.5712 19.9582 10.2876 19.9582 10.2876C19.9582 10.2876 19.0421 9.38875 17.5713 10.1656C16.2211 10.8772 14.2196 11.9202 13.3836 12.3263C11.8033 13.1674 10.4934 11.8329 10.4934 10.8163C10.4934 10.0277 10.9855 9.49257 11.6888 9.09898C13.5951 7.94339 17.6128 5.68818 19.2862 4.79906C20.3034 4.25806 21.0363 4.2117 22.4328 5.38815C24.1527 6.83461 25.6832 8.1531 25.6832 8.1531C25.6832 8.1531 26.1825 8.56974 26.9786 8.40193C28.9337 7.98858 32 7.30187 32 7.30187ZM10.8533 23.7151C11.1106 23.0541 11.0246 22.3147 10.5313 21.8075C10.0881 21.3538 9.44094 21.2342 8.82389 21.3756C8.99647 20.7636 8.90117 20.1122 8.45554 19.6525C8.01094 19.2 7.36503 19.078 6.74805 19.2207C6.91934 18.6096 6.8243 17.9582 6.37841 17.4999C5.6802 16.7837 4.47251 16.8145 3.67913 17.5707C2.88994 18.328 2.3844 19.7 3.08874 20.5076C3.79192 21.3111 4.59989 20.8222 5.21585 20.6819C5.04449 21.293 4.53107 21.8614 5.16335 22.6613C5.79506 23.4616 6.67444 22.9761 7.29104 22.837C7.1191 23.4458 6.62808 24.0713 7.23609 24.813C7.84959 25.5569 8.85442 25.1605 9.51809 24.9543C9.26196 25.6129 8.71374 26.3227 9.41808 27.1181C10.1213 27.9193 11.7465 27.5486 12.5403 26.7912C13.332 26.0339 13.408 24.8337 12.7117 24.1153C12.2309 23.6224 11.5143 23.5078 10.8533 23.7151ZM25.3381 18.6755C19.5996 12.9369 22.2987 15.6372 19.2105 12.5423C19.2105 12.5423 18.2824 11.6183 17.0591 12.155C16.2004 12.5313 15.0949 13.0442 14.263 13.4357C13.3489 13.915 12.691 14.0634 12.3821 14.0613C10.615 14.0498 9.18125 12.6294 9.18125 10.864C9.18125 9.71874 9.78927 8.72166 10.6961 8.15568C11.9713 7.27326 14.9064 5.71207 14.9064 5.71207C14.9064 5.71207 14.0122 4.57902 12.0534 4.57902C10.0952 4.57902 6.00399 7.25925 6.00399 7.25925C6.00399 7.25925 4.84337 8.00266 3.18888 7.33305L0 6.22259V17.307C0 17.307 0.910565 17.5705 1.72874 17.9047C1.91352 17.3777 2.21169 16.8911 2.62529 16.4892C3.98265 15.1963 6.23249 15.1829 7.46743 16.4545C7.83946 16.8411 8.09908 17.3022 8.23156 17.8119C8.72917 17.9655 9.1799 18.2376 9.54211 18.6108C9.91523 18.9948 10.1739 19.4585 10.3075 19.9656C10.8045 20.1194 11.2546 20.3925 11.618 20.7659C12.0273 21.188 12.3 21.6978 12.4273 22.2502C12.9468 22.4015 13.4164 22.6831 13.7945 23.0697C14.5367 23.832 14.8001 24.8663 14.6405 25.8639C14.6418 25.8639 14.6443 25.8639 14.6454 25.8662C14.6576 25.8821 15.1053 26.3812 15.3844 26.6627C15.9316 27.2103 16.825 27.2103 17.3738 26.6627C17.9189 26.1152 17.9213 25.2236 17.3738 24.6734C17.3541 24.6538 15.3999 22.6097 15.5571 22.4512C15.7133 22.2937 18.2031 24.8845 18.2495 24.9319C18.7959 25.4784 19.6887 25.4784 20.2376 24.9319C20.7851 24.3844 20.784 23.4928 20.2376 22.9439C20.2107 22.9183 20.0986 22.8109 20.057 22.7682C20.057 22.7682 17.5884 20.5691 17.7763 20.3812C17.9665 20.1921 21.0329 23.0537 21.0378 23.0537C21.589 23.5501 22.4381 23.5464 22.9683 23.0158C23.4843 22.5 23.4953 21.6839 23.0379 21.134C23.0283 21.1048 20.7011 18.6727 20.8827 18.4897C21.067 18.3044 23.3697 20.6755 23.3745 20.6804C23.9197 21.2268 24.8137 21.2268 25.3626 20.6804C25.909 20.1339 25.909 19.2412 25.3626 18.6898C25.3552 18.6852 25.3454 18.6803 25.3381 18.6755Z" fill="#FE9D00"/>
</g>
<defs>
<clipPath id="clip0_1055_814">
<rect width="32" height="32" fill="white"/>
</clipPath>
</defs>
</svg>
