<svg width="15" height="14" viewBox="0 0 15 14" fill="none" xmlns="http://www.w3.org/2000/svg">
<path d="M7.90689 11.2C8.15189 11.2 8.35898 11.1154 8.52814 10.9462C8.69731 10.7771 8.78189 10.57 8.78189 10.325C8.78189 10.08 8.69731 9.87292 8.52814 9.70375C8.35898 9.53458 8.15189 9.45 7.90689 9.45C7.66189 9.45 7.45481 9.53458 7.28564 9.70375C7.11648 9.87292 7.03189 10.08 7.03189 10.325C7.03189 10.57 7.11648 10.7771 7.28564 10.9462C7.45481 11.1154 7.66189 11.2 7.90689 11.2ZM7.27689 8.505H8.57189C8.57189 8.12 8.61564 7.81667 8.70314 7.595C8.79064 7.37333 9.03856 7.07 9.44689 6.685C9.75023 6.38167 9.98939 6.09292 10.1644 5.81875C10.3394 5.54458 10.4269 5.215 10.4269 4.83C10.4269 4.17667 10.1877 3.675 9.70939 3.325C9.23106 2.975 8.66523 2.8 8.01189 2.8C7.34689 2.8 6.80731 2.975 6.39314 3.325C5.97898 3.675 5.69023 4.095 5.52689 4.585L6.68189 5.04C6.74023 4.83 6.87148 4.6025 7.07564 4.3575C7.27981 4.1125 7.59189 3.99 8.01189 3.99C8.38523 3.99 8.66523 4.09208 8.85189 4.29625C9.03856 4.50042 9.13189 4.725 9.13189 4.97C9.13189 5.20333 9.06189 5.42208 8.92189 5.62625C8.78189 5.83042 8.60689 6.02 8.39689 6.195C7.88356 6.65 7.56856 6.99417 7.45189 7.2275C7.33523 7.46083 7.27689 7.88667 7.27689 8.505ZM7.94189 14C6.97356 14 6.06356 13.8162 5.21189 13.4488C4.36023 13.0813 3.61939 12.5825 2.98939 11.9525C2.35939 11.3225 1.86064 10.5817 1.49314 9.73C1.12564 8.87833 0.941895 7.96833 0.941895 7C0.941895 6.03167 1.12564 5.12167 1.49314 4.27C1.86064 3.41833 2.35939 2.6775 2.98939 2.0475C3.61939 1.4175 4.36023 0.91875 5.21189 0.55125C6.06356 0.18375 6.97356 0 7.94189 0C8.91023 0 9.82023 0.18375 10.6719 0.55125C11.5236 0.91875 12.2644 1.4175 12.8944 2.0475C13.5244 2.6775 14.0231 3.41833 14.3906 4.27C14.7581 5.12167 14.9419 6.03167 14.9419 7C14.9419 7.96833 14.7581 8.87833 14.3906 9.73C14.0231 10.5817 13.5244 11.3225 12.8944 11.9525C12.2644 12.5825 11.5236 13.0813 10.6719 13.4488C9.82023 13.8162 8.91023 14 7.94189 14ZM7.94189 12.6C9.50523 12.6 10.8294 12.0575 11.9144 10.9725C12.9994 9.8875 13.5419 8.56333 13.5419 7C13.5419 5.43667 12.9994 4.1125 11.9144 3.0275C10.8294 1.9425 9.50523 1.4 7.94189 1.4C6.37856 1.4 5.05439 1.9425 3.96939 3.0275C2.88439 4.1125 2.34189 5.43667 2.34189 7C2.34189 8.56333 2.88439 9.8875 3.96939 10.9725C5.05439 12.0575 6.37856 12.6 7.94189 12.6Z" fill="white"/>
</svg>
