<svg width="16" height="16" viewBox="0 0 16 16" fill="none" xmlns="http://www.w3.org/2000/svg">
<g clip-path="url(#clip0_1010_747)">
<path d="M7.9995 1.44147C10.1356 1.44147 10.3886 1.4496 11.2322 1.48809C12.0122 1.52369 12.4358 1.65401 12.7177 1.76354C13.0911 1.90867 13.3576 2.08205 13.6375 2.36198C13.9175 2.64191 14.0908 2.90844 14.2359 3.28183C14.3455 3.56376 14.4758 3.98735 14.5114 4.76731C14.5499 5.61091 14.558 5.86391 14.558 8.00002C14.558 10.1361 14.5499 10.3891 14.5114 11.2327C14.4758 12.0127 14.3455 12.4363 14.2359 12.7182C14.0908 13.0916 13.9175 13.3581 13.6375 13.638C13.3576 13.918 13.0911 14.0914 12.7177 14.2365C12.4358 14.346 12.0122 14.4763 11.2322 14.5119C10.3887 14.5504 10.1357 14.5586 7.9995 14.5586C5.86327 14.5586 5.61027 14.5504 4.76683 14.5119C3.98683 14.4763 3.56324 14.346 3.28134 14.2365C2.90792 14.0914 2.64139 13.918 2.36146 13.638C2.08153 13.3581 1.90815 13.0916 1.76305 12.7182C1.65349 12.4363 1.52317 12.0127 1.48757 11.2327C1.44908 10.3891 1.44095 10.1361 1.44095 8.00002C1.44095 5.86391 1.44908 5.61091 1.48757 4.76735C1.52317 3.98735 1.65349 3.56376 1.76305 3.28183C1.90815 2.90844 2.08153 2.64191 2.36146 2.36198C2.64139 2.08205 2.90792 1.90867 3.28134 1.76354C3.56324 1.65401 3.98683 1.52369 4.76679 1.48809C5.61039 1.4496 5.86339 1.44147 7.9995 1.44147ZM7.9995 0C5.82681 0 5.55441 0.00920926 4.70112 0.0481422C3.84958 0.0870116 3.26807 0.222229 2.75918 0.420006C2.23311 0.624451 1.78696 0.897997 1.34222 1.34274C0.897478 1.78748 0.623931 2.23363 0.419485 2.7597C0.221709 3.26859 0.0864915 3.8501 0.0476221 4.70164C0.00868922 5.5549 -0.000488281 5.82733 -0.000488281 8.00002C-0.000488281 10.1727 0.00868922 10.4451 0.0476221 11.2984C0.0864915 12.1499 0.221709 12.7314 0.419485 13.2403C0.623931 13.7664 0.897478 14.2125 1.34222 14.6573C1.78696 15.102 2.23311 15.3756 2.75918 15.58C3.26807 15.7778 3.84958 15.913 4.70112 15.9519C5.55441 15.9908 5.82681 16 7.9995 16C10.1722 16 10.4446 15.9908 11.2979 15.9519C12.1494 15.913 12.7309 15.7778 13.2398 15.58C13.7659 15.3756 14.212 15.102 14.6568 14.6573C15.1015 14.2125 15.3751 13.7664 15.5795 13.2403C15.7773 12.7314 15.9125 12.1499 15.9514 11.2984C15.9903 10.4451 15.9995 10.1727 15.9995 8.00002C15.9995 5.82733 15.9903 5.5549 15.9514 4.70164C15.9125 3.8501 15.7773 3.26859 15.5795 2.7597C15.3751 2.23363 15.1015 1.78748 14.6568 1.34274C14.212 0.897997 13.7659 0.624451 13.2398 0.420006C12.7309 0.222229 12.1494 0.0870116 11.2979 0.0481422C10.4446 0.00920926 10.1722 0 7.9995 0ZM7.9995 3.89189C5.73065 3.89189 3.89137 5.73117 3.89137 8.00002C3.89137 10.2689 5.73065 12.1081 7.9995 12.1081C10.2683 12.1081 12.1076 10.2689 12.1076 8.00002C12.1076 5.73117 10.2683 3.89189 7.9995 3.89189ZM7.9995 10.6667C6.52675 10.6667 5.33281 9.47277 5.33281 8.00002C5.33281 6.52727 6.52675 5.33333 7.9995 5.33333C9.47225 5.33333 10.6662 6.52727 10.6662 8.00002C10.6662 9.47277 9.47225 10.6667 7.9995 10.6667ZM13.2299 3.72959C13.2299 4.25979 12.8001 4.68961 12.2699 4.68961C11.7397 4.68961 11.3099 4.25979 11.3099 3.72959C11.3099 3.19939 11.7397 2.7696 12.2699 2.7696C12.8001 2.7696 13.2299 3.19939 13.2299 3.72959Z" fill="white"/>
</g>
<defs>
<clipPath id="clip0_1010_747">
<rect width="16" height="16" fill="white" transform="translate(-0.000488281)"/>
</clipPath>
</defs>
</svg>
