<svg width="16" height="16" viewBox="0 0 16 16" fill="none" xmlns="http://www.w3.org/2000/svg">
<path d="M3.58123 16H0.264083V5.31771H3.58123V16ZM1.92065 3.86057C0.860083 3.86057 -0.000488281 2.98171 -0.000488281 1.92114C-0.000488281 1.41162 0.201917 0.922974 0.562201 0.56269C0.922486 0.202406 1.41114 0 1.92065 0C2.43017 0 2.91882 0.202406 3.27911 0.56269C3.63939 0.922974 3.8418 1.41162 3.8418 1.92114C3.8418 2.98171 2.98123 3.86057 1.92065 3.86057ZM15.9961 16H12.6864V10.8C12.6864 9.56057 12.6612 7.97143 10.9618 7.97143C9.23723 7.97143 8.97265 9.31771 8.97265 10.7109V16H5.65894V5.31771H8.84008V6.77486H8.88637C9.32923 5.93543 10.4109 5.04971 12.0247 5.04971C15.3818 5.04971 15.9989 7.26057 15.9989 10.132V16H15.9961Z" fill="white"/>
</svg>
