<svg width="36" height="36" viewBox="0 0 36 36" fill="none" xmlns="http://www.w3.org/2000/svg">
<g clip-path="url(#clip0_980_516)">
<path d="M29.3409 11.9657H27.0319V9.03256C27.0324 6.54314 26.019 4.27521 24.3864 2.64544C22.7566 1.01341 20.4887 -0.00112407 17.9993 9.34647e-07C15.5103 -0.00112407 13.2425 1.01341 11.6126 2.64544C9.98061 4.27528 8.96663 6.54314 8.96769 9.03256V11.9657H6.6582C5.16772 11.9657 3.95996 13.1741 3.95996 14.664V23.2251C3.95996 30.2804 10.246 36 17.9998 36C25.7535 36 32.0396 30.2804 32.0396 23.2251V14.664C32.0397 13.1741 30.8314 11.9657 29.3409 11.9657ZM19.0227 24.0353L19.8457 27.5527H16.1534L16.9764 24.0348C15.9646 23.6289 15.2499 22.6404 15.2499 21.4837C15.2499 19.965 16.481 18.7339 17.9993 18.7339C19.5186 18.7339 20.7497 19.965 20.7497 21.4837C20.7497 22.6404 20.0339 23.6289 19.0227 24.0353ZM23.8588 11.9657H12.1408V9.03256C12.1413 7.40883 12.7938 5.95449 13.8567 4.88883C14.9217 3.82599 16.3767 3.17405 17.9993 3.17292C19.6224 3.17405 21.0778 3.82655 22.143 4.88883C23.2053 5.95449 23.8578 7.40883 23.8588 9.03256V11.9657Z" fill="#FE9D00"/>
</g>
<defs>
<clipPath id="clip0_980_516">
<rect width="36" height="36" fill="white"/>
</clipPath>
</defs>
</svg>
