<svg width="18" height="18" viewBox="0 0 18 18" fill="none" xmlns="http://www.w3.org/2000/svg">
<path d="M16.8906 15.8793L16.8906 15.8793L13.1073 12.0968C14.2002 10.7488 14.7431 9.03596 14.6248 7.30238C14.5043 5.53839 13.7084 3.88874 12.4027 2.6966C11.097 1.50445 9.38189 0.861603 7.61425 0.901775C5.84662 0.941948 4.16251 1.66205 2.91228 2.91228C1.66205 4.16251 0.941948 5.84662 0.901775 7.61425C0.861603 9.38189 1.50445 11.097 2.6966 12.4027C3.88874 13.7084 5.53839 14.5043 7.30238 14.6248C9.03596 14.7431 10.7488 14.2002 12.0968 13.1073L15.8793 16.8906L15.8793 16.8906C15.9457 16.957 16.0245 17.0096 16.1113 17.0456C16.1981 17.0815 16.291 17.1 16.3849 17.1C16.4788 17.1 16.5718 17.0815 16.6586 17.0456C16.7453 17.0096 16.8242 16.957 16.8906 16.8906C16.957 16.8242 17.0096 16.7453 17.0456 16.6586C17.0815 16.5718 17.1 16.4788 17.1 16.3849C17.1 16.291 17.0815 16.1981 17.0456 16.1113C17.0096 16.0245 16.957 15.9457 16.8906 15.8793ZM2.34642 7.77888C2.34642 6.70444 2.66503 5.65413 3.26196 4.76077C3.85888 3.8674 4.70732 3.17111 5.69997 2.75994C6.69262 2.34877 7.78491 2.24119 8.83871 2.4508C9.8925 2.66042 10.8605 3.17781 11.6202 3.93755C12.38 4.6973 12.8974 5.66527 13.107 6.71906C13.3166 7.77286 13.209 8.86515 12.7978 9.8578C12.3867 10.8505 11.6904 11.6989 10.797 12.2958C9.90367 12.8927 8.8534 13.2113 7.779 13.2113C6.33868 13.2098 4.95781 12.6369 3.93935 11.6184C2.92092 10.6 2.34805 9.21916 2.34642 7.77888Z" fill="black" stroke="black" stroke-width="0.2"/>
</svg>
