<svg width="12" height="14" viewBox="0 0 12 14" fill="none" xmlns="http://www.w3.org/2000/svg">
<path d="M5.62789 7.04101C6.0189 7.04101 6.35217 6.90324 6.62771 6.62771C6.90324 6.35217 7.04101 6.0189 7.04101 5.62789C7.04101 5.23689 6.90324 4.90361 6.62771 4.62807C6.35217 4.35254 6.0189 4.21477 5.62789 4.21477C5.23689 4.21477 4.90361 4.35254 4.62807 4.62807C4.35254 4.90361 4.21477 5.23689 4.21477 5.62789C4.21477 6.0189 4.35254 6.35217 4.62807 6.62771C4.90361 6.90324 5.23689 7.04101 5.62789 7.04101ZM5.62789 11.9318C7.00373 10.673 8.02554 9.53759 8.69332 8.52554C9.3611 7.51349 9.69499 6.58787 9.69499 5.74869C9.69499 4.52159 9.30239 3.51683 8.51719 2.73441C7.73198 1.952 6.76883 1.56079 5.62775 1.56079C4.48666 1.56079 3.52356 1.952 2.73845 2.73441C1.95334 3.51683 1.56079 4.52159 1.56079 5.74869C1.56079 6.58787 1.89468 7.5128 2.56246 8.52349C3.23025 9.53417 4.25206 10.6703 5.62789 11.9318ZM5.62789 14C3.74323 12.4062 2.33409 10.9341 1.40046 9.58368C0.46682 8.23333 0 6.95499 0 5.74867C0 3.99603 0.56572 2.59976 1.69716 1.55985C2.8286 0.519937 4.13884 -1.1434e-05 5.62789 1.88583e-10C7.11694 1.88583e-10 8.42718 0.519954 9.55862 1.55986C10.6901 2.59977 11.2558 3.99605 11.2558 5.74869C11.2558 6.95501 10.789 8.23335 9.85532 9.5837C8.92169 10.9341 7.51255 12.4062 5.62789 14Z" fill="white"/>
</svg>
