<svg width="33" height="45" viewBox="0 0 33 45" fill="none" xmlns="http://www.w3.org/2000/svg">
<path d="M23.947 33.6257V40.5689L27.3309 41.9535V31.8062C26.268 32.5229 25.1342 33.1325 23.947 33.6257ZM5.66905 31.8062V41.8842L9.05303 40.4997V33.6257C7.86575 33.1325 6.73203 32.5229 5.66905 31.8062ZM16.5 35.1028C14.902 35.1037 13.3102 34.9082 11.7616 34.5209V45L16.5 43.0614L21.2383 44.9999V34.5209C19.6897 34.9082 18.0979 35.1037 16.5 35.1028ZM16.5 0C7.40186 0 0 7.27627 0 16.2201C0 25.1639 7.40186 32.4401 16.5 32.4401C25.5981 32.4401 33 25.1638 33 16.22C33 7.27619 25.5981 0 16.5 0ZM16.5 29.0126C9.28719 29.0126 3.41912 23.2441 3.41912 16.1537C3.41912 9.06326 9.28719 3.29475 16.5 3.29475C23.7127 3.29475 29.5808 9.06326 29.5808 16.1537C29.5808 23.2442 23.7128 29.0126 16.5 29.0126ZM16.5 5.95739C10.7807 5.95739 6.12771 10.5314 6.12771 16.1537C6.12771 21.7761 10.7807 26.3499 16.5 26.3499C22.2192 26.3499 26.8722 21.7759 26.8722 16.1537C26.8722 10.5314 22.2193 5.95739 16.5 5.95739ZM20.763 22.1045L16.5 19.9013L12.237 22.1045L13.0512 17.4382L9.60236 14.1335L14.3686 13.4526L16.5 9.20696L18.6314 13.4526L23.3976 14.1335L19.9488 17.4382L20.763 22.1045Z" fill="#FE9D00"/>
</svg>
