<svg width="18" height="14" viewBox="0 0 18 14" fill="none" xmlns="http://www.w3.org/2000/svg">
<path d="M10.5511 7.17614C9.93182 7.17614 9.40768 6.96165 8.9787 6.53268C8.54973 6.10371 8.33525 5.57956 8.33525 4.96024C8.33525 4.34093 8.54973 3.81679 8.9787 3.38782C9.40768 2.95884 9.93182 2.74436 10.5511 2.74436C11.1704 2.74436 11.6946 2.95884 12.1236 3.38782C12.5525 3.81679 12.767 4.34093 12.767 4.96024C12.767 5.57956 12.5525 6.10371 12.1236 6.53268C11.6946 6.96165 11.1704 7.17614 10.5511 7.17614ZM4.70452 9.92047C4.2639 9.92047 3.8867 9.76359 3.57291 9.44981C3.25914 9.13603 3.10225 8.75883 3.10225 8.3182V1.60227C3.10225 1.16165 3.25914 0.784452 3.57291 0.470662C3.8867 0.156887 4.2639 0 4.70452 0H16.3977C16.8384 0 17.2156 0.156887 17.5293 0.470662C17.8431 0.784452 18 1.16165 18 1.60227V8.3182C18 8.75883 17.8431 9.13603 17.5293 9.44981C17.2156 9.76359 16.8384 9.92047 16.3977 9.92047H4.70452ZM6.03405 8.59096H15.0682C15.0682 8.14891 15.2251 7.77136 15.5389 7.45829C15.8527 7.14521 16.2299 6.98867 16.6705 6.98867V2.9318C16.2284 2.9318 15.8509 2.77491 15.5378 2.46114C15.2248 2.14735 15.0682 1.77015 15.0682 1.32953H6.03405C6.03405 1.77158 5.87716 2.14914 5.56339 2.4622C5.2496 2.77527 4.8724 2.9318 4.43178 2.9318V6.98867C4.87383 6.98867 5.25139 7.14557 5.56445 7.45936C5.87752 7.77313 6.03405 8.15033 6.03405 8.59096ZM15.358 13.0227H1.60227C1.16164 13.0227 0.784437 12.8658 0.470662 12.5521C0.156887 12.2383 0 11.8611 0 11.4205V2.64207H1.32951V11.4205C1.32951 11.4887 1.35793 11.5512 1.41476 11.608C1.47157 11.6648 1.53408 11.6932 1.60227 11.6932H15.358V13.0227ZM4.70452 8.59096H4.43178V1.32953H4.70452C4.63065 1.32953 4.56673 1.35652 4.51275 1.4105C4.45877 1.46448 4.43178 1.5284 4.43178 1.60227V8.3182C4.43178 8.39207 4.45877 8.45599 4.51275 8.50997C4.56673 8.56396 4.63065 8.59096 4.70452 8.59096Z" fill="black"/>
</svg>
