<svg width="40" height="40" viewBox="0 0 40 40" fill="none" xmlns="http://www.w3.org/2000/svg">
<path d="M25.5 37.85L17 29.35L19.8 26.55L25.5 32.25L36.8 20.95L39.6 23.75L25.5 37.85ZM36.5 18H32.5V8H28.5V14H8.5V8H4.5V36H16.5V40H4.5C3.4 40 2.45833 39.6083 1.675 38.825C0.891667 38.0417 0.5 37.1 0.5 36V8C0.5 6.9 0.891667 5.95833 1.675 5.175C2.45833 4.39167 3.4 4 4.5 4H12.85C13.2167 2.83333 13.9333 1.875 15 1.125C16.0667 0.375 17.2333 0 18.5 0C19.8333 0 21.025 0.375 22.075 1.125C23.125 1.875 23.8333 2.83333 24.2 4H32.5C33.6 4 34.5417 4.39167 35.325 5.175C36.1083 5.95833 36.5 6.9 36.5 8V18ZM18.5 8C19.0667 8 19.5417 7.80833 19.925 7.425C20.3083 7.04167 20.5 6.56667 20.5 6C20.5 5.43333 20.3083 4.95833 19.925 4.575C19.5417 4.19167 19.0667 4 18.5 4C17.9333 4 17.4583 4.19167 17.075 4.575C16.6917 4.95833 16.5 5.43333 16.5 6C16.5 6.56667 16.6917 7.04167 17.075 7.425C17.4583 7.80833 17.9333 8 18.5 8Z" fill="white"/>
</svg>
