<svg width="49" height="48" viewBox="0 0 49 48" fill="none" xmlns="http://www.w3.org/2000/svg">
<path d="M31.1 33.4L33.9 30.6L26.5 23.2V14H22.5V24.8L31.1 33.4ZM24.5 44C21.7333 44 19.1333 43.475 16.7 42.425C14.2667 41.375 12.15 39.95 10.35 38.15C8.55 36.35 7.125 34.2333 6.075 31.8C5.025 29.3667 4.5 26.7667 4.5 24C4.5 21.2333 5.025 18.6333 6.075 16.2C7.125 13.7667 8.55 11.65 10.35 9.85C12.15 8.05 14.2667 6.625 16.7 5.575C19.1333 4.525 21.7333 4 24.5 4C27.2667 4 29.8667 4.525 32.3 5.575C34.7333 6.625 36.85 8.05 38.65 9.85C40.45 11.65 41.875 13.7667 42.925 16.2C43.975 18.6333 44.5 21.2333 44.5 24C44.5 26.7667 43.975 29.3667 42.925 31.8C41.875 34.2333 40.45 36.35 38.65 38.15C36.85 39.95 34.7333 41.375 32.3 42.425C29.8667 43.475 27.2667 44 24.5 44ZM24.5 40C28.9333 40 32.7083 38.4417 35.825 35.325C38.9417 32.2083 40.5 28.4333 40.5 24C40.5 19.5667 38.9417 15.7917 35.825 12.675C32.7083 9.55833 28.9333 8 24.5 8C20.0667 8 16.2917 9.55833 13.175 12.675C10.0583 15.7917 8.5 19.5667 8.5 24C8.5 28.4333 10.0583 32.2083 13.175 35.325C16.2917 38.4417 20.0667 40 24.5 40Z" fill="white"/>
</svg>
