<svg width="18" height="18" viewBox="0 0 18 18" fill="none" xmlns="http://www.w3.org/2000/svg">
<path d="M0 17.8853V14.9045H18V17.8853H15.6306V16.3949H10.1847V17.8853H7.81531V16.3949H2.3694V17.8853H0ZM3.44904 12.9172C3.19457 12.9172 2.98127 12.8312 2.80914 12.659C2.63701 12.4869 2.55094 12.2736 2.55094 12.0191V0.898074C2.55094 0.64362 2.63701 0.430328 2.80914 0.258196C2.98127 0.0860652 3.19457 0 3.44904 0H14.551C14.8054 0 15.0187 0.0860652 15.1909 0.258196C15.363 0.430328 15.4491 0.64362 15.4491 0.898074V11.9427C15.4491 12.2188 15.3575 12.4503 15.1744 12.637C14.9913 12.8238 14.7643 12.9172 14.4936 12.9172H3.44904ZM4.04137 11.4268H13.9586V1.49041H4.04137V11.4268ZM6.01909 5.25476H11.9809V3.76435H6.01909V5.25476Z" fill="black"/>
</svg>
