<svg width="28" height="28" viewBox="0 0 28 28" fill="none" xmlns="http://www.w3.org/2000/svg">
<path d="M14.0047 18.3751C15.383 18.3751 16.5534 17.8927 17.5159 16.9279C18.4784 15.9631 18.9596 14.7916 18.9596 13.4133C18.9596 12.035 18.4772 10.8647 17.5124 9.90216C16.5477 8.93966 15.3761 8.45841 13.9979 8.45841C12.6196 8.45841 11.4492 8.94081 10.4867 9.90561C9.52422 10.8704 9.04297 12.0419 9.04297 13.4202C9.04297 14.7985 9.52537 15.9688 10.4902 16.9313C11.4549 17.8938 12.6265 18.3751 14.0047 18.3751ZM13.9945 16.6834C13.0851 16.6834 12.3145 16.3652 11.6826 15.7286C11.0506 15.0921 10.7346 14.3192 10.7346 13.4099C10.7346 12.5006 11.0529 11.7299 11.6894 11.098C12.3259 10.4661 13.0989 10.1501 14.0082 10.1501C14.9175 10.1501 15.6881 10.4683 16.3201 11.1049C16.952 11.7414 17.268 12.5143 17.268 13.4236C17.268 14.3329 16.9497 15.1036 16.3132 15.7355C15.6767 16.3674 14.9038 16.6834 13.9945 16.6834ZM14.0013 22.1667C11.1624 22.1667 8.59575 21.3598 6.3013 19.7459C4.00686 18.132 2.29575 16.0223 1.16797 13.4167C2.29575 10.8112 4.00686 8.70147 6.3013 7.08758C8.59575 5.47369 11.1624 4.66675 14.0013 4.66675C16.8402 4.66675 19.4069 5.47369 21.7013 7.08758C23.9958 8.70147 25.7069 10.8112 26.8346 13.4167C25.7069 16.0223 23.9958 18.132 21.7013 19.7459C19.4069 21.3598 16.8402 22.1667 14.0013 22.1667ZM13.9964 20.4167C16.3524 20.4167 18.5173 19.7799 20.4909 18.5063C22.4645 17.2327 23.9666 15.5362 24.9971 13.4167C23.9666 11.2973 22.4661 9.60078 20.4958 8.32716C18.5255 7.05355 16.3623 6.41675 14.0062 6.41675C11.6502 6.41675 9.48533 7.05355 7.51172 8.32716C5.53811 9.60078 4.0263 11.2973 2.9763 13.4167C4.0263 15.5362 5.53647 17.2327 7.50679 18.5063C9.47714 19.7799 11.6403 20.4167 13.9964 20.4167Z" fill="#FE9D00"/>
</svg>
