<svg width="28" height="24" viewBox="0 0 28 24" fill="none" xmlns="http://www.w3.org/2000/svg">
<path d="M13.5584 22.9091C15.5065 22.9091 17.1623 22.2273 18.526 20.8636C19.8896 19.5 20.5714 17.8442 20.5714 15.8961C20.5714 13.9481 19.8896 12.2922 18.526 10.9286C17.1623 9.56493 15.5065 8.88312 13.5584 8.88312C11.6104 8.88312 9.95455 9.56493 8.59091 10.9286C7.22727 12.2922 6.54545 13.9481 6.54545 15.8961C6.54545 17.8442 7.22727 19.5 8.59091 20.8636C9.95455 22.2273 11.6104 22.9091 13.5584 22.9091ZM9.07792 9.15584C9.57143 8.81818 10.0974 8.54545 10.6558 8.33766C11.2143 8.12987 11.7922 7.97403 12.3896 7.87013L8.96104 1.09091H5.06493L9.07792 9.15584ZM18.039 9.15584L22.0909 1.09091H18.1558L14.7273 7.87013C15.3247 7.97403 15.9026 8.12987 16.461 8.33766C17.0195 8.54545 17.5455 8.81818 18.039 9.15584ZM6.50649 21.3117C6.66234 21.3117 6.81818 21.3052 6.97403 21.2922C7.12987 21.2792 7.28571 21.2597 7.44156 21.2338C6.81818 20.5065 6.33117 19.6883 5.98052 18.7792C5.62987 17.8701 5.45455 16.9091 5.45455 15.8961C5.45455 14.8831 5.62987 13.9221 5.98052 13.013C6.33117 12.1039 6.81818 11.2857 7.44156 10.5584C7.28571 10.5325 7.12987 10.513 6.97403 10.5C6.81818 10.487 6.66234 10.4805 6.50649 10.4805C5 10.4805 3.72078 11.0065 2.66883 12.0584C1.61688 13.1104 1.09091 14.3896 1.09091 15.8961C1.09091 17.4026 1.61688 18.6818 2.66883 19.7338C3.72078 20.7857 5 21.3117 6.50649 21.3117ZM20.6104 21.3117C22.1169 21.3117 23.3961 20.7857 24.4481 19.7338C25.5 18.6818 26.026 17.4026 26.026 15.8961C26.026 14.3896 25.5 13.1104 24.4481 12.0584C23.3961 11.0065 22.1169 10.4805 20.6104 10.4805C20.4545 10.4805 20.2987 10.487 20.1429 10.5C19.987 10.513 19.8312 10.5325 19.6753 10.5584C20.2987 11.2857 20.7857 12.1039 21.1364 13.013C21.487 13.9221 21.6623 14.8831 21.6623 15.8961C21.6623 16.9091 21.487 17.8701 21.1364 18.7792C20.7857 19.6883 20.2987 20.5065 19.6753 21.2338C19.8312 21.2597 19.987 21.2792 20.1429 21.2922C20.2987 21.3052 20.4545 21.3117 20.6104 21.3117ZM13.5584 24C12.5714 24 11.6429 23.8442 10.7727 23.5325C9.9026 23.2208 9.11688 22.7662 8.41558 22.1688C8.12987 22.2727 7.82468 22.3442 7.5 22.3831C7.17532 22.4221 6.84416 22.4416 6.50649 22.4416C4.71429 22.4416 3.18182 21.8052 1.90909 20.5325C0.636364 19.2597 0 17.7273 0 15.9351C0 14.1429 0.636364 12.6104 1.90909 11.3377C3.18182 10.0649 4.71429 9.42857 6.50649 9.42857C6.79221 9.42857 7.06493 9.44805 7.32468 9.48701C7.58442 9.52597 7.84416 9.57143 8.1039 9.62338L3.27273 0H9.66234L13.5584 7.79221L17.4545 0H23.8442L19.0909 9.50649C19.3247 9.45455 19.5649 9.41558 19.8117 9.38961C20.0584 9.36364 20.3117 9.35065 20.5714 9.35065C22.3896 9.35065 23.9351 9.98701 25.2078 11.2597C26.4805 12.5325 27.1169 14.0779 27.1169 15.8961C27.1169 17.7143 26.4805 19.2597 25.2078 20.5325C23.9351 21.8052 22.3896 22.4416 20.5714 22.4416C20.2338 22.4416 19.9091 22.4221 19.5974 22.3831C19.2857 22.3442 18.987 22.2727 18.7013 22.1688C18 22.7403 17.2143 23.1883 16.3442 23.513C15.474 23.8377 14.5455 24 13.5584 24ZM11.2597 19.2468L12.1169 16.4026L9.81818 14.7662H12.6623L13.5584 11.7662L14.4545 14.7662H17.2987L15 16.4026L15.8571 19.2468L13.5584 17.4935L11.2597 19.2468Z" fill="#45FFF4"/>
</svg>
