<svg width="55" height="55" viewBox="0 0 55 55" fill="none" xmlns="http://www.w3.org/2000/svg">
<g id="profit-increase-chart 1">
<g id="25 profit">
<path id="Vector" d="M50.2818 50.2742H46.3631V24.2266H48.7607C48.9226 24.2274 49.0814 24.1826 49.2188 24.0972C49.3563 24.0118 49.4669 23.8893 49.5378 23.7439C49.6087 23.5984 49.6372 23.4359 49.6198 23.275C49.6024 23.1141 49.54 22.9613 49.4396 22.8344L44.017 15.8906C43.9325 15.7935 43.8282 15.7157 43.7111 15.6623C43.594 15.6089 43.4668 15.5813 43.3381 15.5813C43.2094 15.5813 43.0822 15.6089 42.9651 15.6623C42.8479 15.7157 42.7436 15.7935 42.6592 15.8906L37.2365 22.8344C37.1362 22.9613 37.0737 23.1141 37.0564 23.275C37.039 23.4359 37.0674 23.5984 37.1384 23.7439C37.2093 23.8893 37.3199 24.0118 37.4573 24.0972C37.5948 24.1826 37.7536 24.2274 37.9154 24.2266H40.3045V50.2742H31.6162V32.0383H34.0053C34.1674 32.0385 34.3263 31.9926 34.4632 31.9059C34.6002 31.8191 34.7096 31.6951 34.7787 31.5484C34.8508 31.4047 34.8803 31.2434 34.8635 31.0834C34.8467 30.9235 34.7845 30.7717 34.6842 30.6461L29.2615 23.7023C29.1771 23.6052 29.0728 23.5274 28.9556 23.474C28.8385 23.4207 28.7113 23.3931 28.5826 23.3931C28.4539 23.3931 28.3267 23.4207 28.2096 23.474C28.0925 23.5274 27.9882 23.6052 27.9037 23.7023L22.4811 30.6461C22.3828 30.7736 22.3221 30.9261 22.3058 31.0863C22.2895 31.2464 22.3182 31.408 22.3888 31.5527C22.4594 31.6974 22.569 31.8196 22.7052 31.9053C22.8415 31.9911 22.999 32.0372 23.16 32.0383H25.5576V50.2742H17.7287V39.8414H20.1264C20.2876 39.8423 20.4457 39.7976 20.5826 39.7125C20.7195 39.6273 20.8294 39.5052 20.8998 39.3602C20.9678 39.2154 20.9949 39.0548 20.9782 38.8958C20.9616 38.7368 20.9018 38.5853 20.8053 38.4578L15.374 31.5141C15.2916 31.4152 15.1884 31.3356 15.0719 31.2811C14.9553 31.2265 14.8281 31.1982 14.6994 31.1982C14.5707 31.1982 14.4435 31.2265 14.327 31.2811C14.2104 31.3356 14.1072 31.4152 14.0248 31.5141L8.60215 38.4578C8.50181 38.5835 8.43958 38.7352 8.42283 38.8952C8.40607 39.0551 8.4355 39.2164 8.50762 39.3602C8.57526 39.5055 8.68341 39.6282 8.81908 39.7136C8.95475 39.7989 9.11218 39.8433 9.27246 39.8414H11.6701V50.2742H5.57715V6.00781C5.57715 5.77989 5.48661 5.56131 5.32544 5.40014C5.16428 5.23898 4.94569 5.14844 4.71777 5.14844C4.48985 5.14844 4.27127 5.23898 4.1101 5.40014C3.94894 5.56131 3.8584 5.77989 3.8584 6.00781V51.1336C3.8584 51.3615 3.94894 51.5801 4.1101 51.7413C4.27127 51.9024 4.48985 51.993 4.71777 51.993H50.2818C50.5098 51.993 50.7283 51.9024 50.8895 51.7413C51.0507 51.5801 51.1412 51.3615 51.1412 51.1336C51.1412 50.9057 51.0507 50.6871 50.8895 50.5259C50.7283 50.3648 50.5098 50.2742 50.2818 50.2742ZM16.01 38.982V50.2742H13.3889V38.982C13.3889 38.7541 13.2983 38.5355 13.1372 38.3744C12.976 38.2132 12.7574 38.1227 12.5295 38.1227H11.0428L14.7037 33.4391L18.3646 38.1227H16.8693C16.6414 38.1227 16.4228 38.2132 16.2617 38.3744C16.1005 38.5355 16.01 38.7541 16.01 38.982ZM29.8975 31.1789V50.2742H27.2764V31.1789C27.2764 30.951 27.1858 30.7324 27.0247 30.5712C26.8635 30.4101 26.6449 30.3195 26.417 30.3195H24.9217L28.5826 25.6273L32.2436 30.3195H30.7568C30.6437 30.3184 30.5314 30.3398 30.4266 30.3826C30.3218 30.4254 30.2266 30.4886 30.1466 30.5687C30.0666 30.6487 30.0033 30.7439 29.9605 30.8487C29.9178 30.9535 29.8963 31.0657 29.8975 31.1789ZM44.6443 23.3672V50.2742H42.0232V23.3672C42.0244 23.254 42.0029 23.1417 41.9602 23.037C41.9174 22.9322 41.8541 22.837 41.7741 22.757C41.6941 22.6769 41.5989 22.6137 41.4941 22.5709C41.3893 22.5281 41.277 22.5067 41.1639 22.5078H39.6771L43.3381 17.8156L46.999 22.5078H45.5037C45.2758 22.5078 45.0572 22.5984 44.896 22.7595C44.7349 22.9207 44.6443 23.1393 44.6443 23.3672Z" fill="black"/>
<path id="Vector_2" d="M19.0779 21.4078C18.9508 21.8452 18.7068 22.2396 18.3721 22.5485C18.0375 22.8575 17.6248 23.0692 17.1787 23.1609V23.7109C17.1787 23.9389 17.0881 24.1574 16.927 24.3186C16.7658 24.4798 16.5472 24.5703 16.3193 24.5703C16.0914 24.5703 15.8728 24.4798 15.7116 24.3186C15.5505 24.1574 15.4599 23.9389 15.4599 23.7109V23.0148C15.0307 22.843 14.6192 22.6301 14.231 22.3789C14.0849 22.2844 13.9388 22.1984 13.8013 22.1211C13.6019 22.0106 13.4546 21.8253 13.3917 21.6061C13.3289 21.3869 13.3556 21.1518 13.4662 20.9523C13.5767 20.7529 13.762 20.6056 13.9811 20.5427C14.2003 20.4799 14.4355 20.5066 14.6349 20.6172C14.8068 20.7117 14.9701 20.8148 15.142 20.918C15.5639 21.2497 16.0697 21.458 16.6029 21.5195C16.78 21.5219 16.9534 21.4695 17.0995 21.3695C17.2457 21.2695 17.3574 21.1268 17.4193 20.9609C17.4537 20.8492 17.4623 20.6688 17.2045 20.4969L14.9443 18.9844C14.6832 18.8192 14.4601 18.6005 14.2897 18.3427C14.1194 18.085 14.0056 17.794 13.956 17.4891C13.9106 17.2021 13.9269 16.9088 14.004 16.6287C14.0811 16.3486 14.2171 16.0881 14.4029 15.8648C14.6808 15.5223 15.046 15.261 15.4599 15.1086V14.3438C15.4599 14.1158 15.5505 13.8972 15.7116 13.7361C15.8728 13.5749 16.0914 13.4844 16.3193 13.4844C16.5472 13.4844 16.7658 13.5749 16.927 13.7361C17.0881 13.8972 17.1787 14.1158 17.1787 14.3438V15.0141C17.4673 15.0809 17.7412 15.2003 17.9865 15.3664L18.8974 15.968C19.0877 16.0945 19.22 16.2914 19.2651 16.5154C19.3103 16.7394 19.2646 16.9722 19.1381 17.1625C19.0116 17.3528 18.8146 17.4851 18.5906 17.5302C18.3666 17.5753 18.1338 17.5296 17.9435 17.4031L17.0326 16.793C16.8344 16.665 16.5983 16.6088 16.3638 16.6338C16.1292 16.6589 15.9103 16.7636 15.7435 16.9305C15.7087 16.9702 15.6823 17.0166 15.6661 17.0668C15.6498 17.117 15.644 17.1701 15.649 17.2227C15.6867 17.3619 15.7757 17.4817 15.8982 17.5578L18.167 19.0703C18.5514 19.3088 18.8481 19.6656 19.0124 20.0871C19.1766 20.5086 19.1996 20.9721 19.0779 21.4078Z" fill="#FE9D00"/>
<path id="Vector_3" d="M16.3193 10.8203C14.6961 10.8203 13.1094 11.3016 11.7598 12.2034C10.4101 13.1052 9.3582 14.387 8.73703 15.8866C8.11586 17.3863 7.95333 19.0364 8.27 20.6285C8.58667 22.2205 9.36832 23.6828 10.5161 24.8306C11.6639 25.9784 13.1262 26.76 14.7182 27.0767C16.3102 27.3934 17.9604 27.2308 19.46 26.6097C20.9597 25.9885 22.2414 24.9366 23.1432 23.5869C24.045 22.2373 24.5264 20.6505 24.5264 19.0273C24.525 16.8511 23.6599 14.7644 22.1211 13.2256C20.5823 11.6868 18.4956 10.8217 16.3193 10.8203ZM16.3193 25.5156C15.0361 25.5156 13.7816 25.1351 12.7146 24.4222C11.6477 23.7092 10.816 22.6959 10.3249 21.5103C9.83387 20.3247 9.70538 19.0201 9.95573 17.7615C10.2061 16.5029 10.824 15.3468 11.7314 14.4394C12.6388 13.532 13.7949 12.9141 15.0535 12.6637C16.3121 12.4134 17.6167 12.5419 18.8023 13.033C19.9879 13.524 21.0012 14.3557 21.7141 15.4226C22.4271 16.4896 22.8076 17.7441 22.8076 19.0273C22.8047 20.7472 22.1201 22.3958 20.904 23.612C19.6878 24.8281 18.0392 25.5127 16.3193 25.5156Z" fill="black"/>
<path id="Vector_4" d="M31.1556 14.3069C31.2974 14.3859 31.4418 14.4787 31.5905 14.5647C31.977 14.8167 32.3872 15.0306 32.8151 15.2032V15.8907C32.8151 16.1186 32.9056 16.3372 33.0668 16.4984C33.228 16.6595 33.4466 16.7501 33.6745 16.7501C33.9024 16.7501 34.121 16.6595 34.2821 16.4984C34.4433 16.3372 34.5339 16.1186 34.5339 15.8907V15.3459C34.9794 15.2539 35.3917 15.0428 35.7269 14.7352C36.0621 14.4275 36.3076 14.0348 36.4374 13.5988C36.557 13.1617 36.5323 12.6976 36.3667 12.2758C36.2011 11.8539 35.9037 11.4968 35.5187 11.2578L33.2525 9.74102C33.1911 9.70537 33.1378 9.65743 33.0958 9.6002C33.0538 9.54297 33.0241 9.47769 33.0085 9.40844C33.0022 9.35633 33.0071 9.30349 33.0228 9.25341C33.0385 9.20334 33.0647 9.15717 33.0996 9.11797C33.2662 8.95093 33.485 8.84607 33.7196 8.82089C33.9542 8.79571 34.1903 8.85173 34.3886 8.97961L35.2935 9.58547C35.3873 9.65057 35.493 9.69635 35.6046 9.72014C35.7162 9.74393 35.8314 9.74525 35.9436 9.72404C36.0557 9.70282 36.1625 9.65948 36.2577 9.59656C36.3529 9.53363 36.4346 9.45237 36.498 9.35753C36.5615 9.26269 36.6054 9.15616 36.6273 9.04415C36.6491 8.93215 36.6484 8.81692 36.6253 8.70518C36.6021 8.59344 36.5569 8.48744 36.4923 8.39335C36.4278 8.29927 36.3451 8.21898 36.2492 8.15719L35.3442 7.55562C35.0953 7.39343 34.8207 7.27459 34.5321 7.20414V6.53125C34.5321 6.30333 34.4416 6.08474 34.2804 5.92358C34.1193 5.76242 33.9007 5.67188 33.6728 5.67188C33.4448 5.67188 33.2263 5.76242 33.0651 5.92358C32.9039 6.08474 32.8134 6.30333 32.8134 6.53125V7.30469C32.3991 7.45447 32.0328 7.71302 31.7529 8.0532C31.5695 8.27802 31.4351 8.53878 31.3586 8.81867C31.2821 9.09857 31.2651 9.3914 31.3086 9.67828C31.3599 9.98247 31.4743 10.2725 31.6445 10.5298C31.8147 10.787 32.037 11.0058 32.2969 11.1719L34.5613 12.6878C34.8192 12.8597 34.808 13.0316 34.7771 13.151C34.7142 13.317 34.6018 13.4597 34.4552 13.5598C34.3086 13.6599 34.1347 13.7125 33.9572 13.7105C33.4243 13.6476 32.9189 13.4395 32.4963 13.1089C32.3244 13.0015 32.1525 12.8966 31.991 12.8047C31.7923 12.6975 31.5594 12.6728 31.3427 12.736C31.1259 12.7991 30.9428 12.945 30.8327 13.1421C30.7226 13.3392 30.6945 13.5716 30.7545 13.7893C30.8144 14.0069 30.9576 14.1922 31.1531 14.3052L31.1556 14.3069Z" fill="#FE9D00"/>
<path id="Vector_5" d="M33.6701 3.00781C32.0473 3.00951 30.4614 3.49229 29.1129 4.39512C27.7644 5.29795 26.7138 6.58031 26.0939 8.0801C25.4741 9.57989 25.3128 11.2298 25.6304 12.8212C25.9481 14.4127 26.7304 15.8742 27.8785 17.0211C29.0266 18.168 30.489 18.9488 32.0808 19.2648C33.6725 19.5808 35.3223 19.4177 36.8214 18.7963C38.3205 18.1749 39.6018 17.123 40.5032 15.7735C41.4046 14.4241 41.8857 12.8377 41.8857 11.2148C41.883 9.03755 41.0163 6.95035 39.4759 5.41158C37.9355 3.8728 35.8474 3.00827 33.6701 3.00781ZM33.6701 17.7031C32.3872 17.7014 31.1336 17.3195 30.0678 16.6055C29.0019 15.8915 28.1716 14.8776 27.6819 13.6919C27.1921 12.5061 27.0648 11.2018 27.3162 9.94378C27.5675 8.68575 28.1861 7.53045 29.0938 6.62391C30.0016 5.71736 31.1577 5.10027 32.4161 4.85061C33.6744 4.60096 34.9786 4.72995 36.1637 5.22128C37.3487 5.71261 38.3616 6.54424 39.0741 7.61104C39.7867 8.67785 40.167 9.93195 40.167 11.2148C40.164 12.9362 39.4783 14.5861 38.2603 15.8025C37.0423 17.0189 35.3915 17.7024 33.6701 17.7031Z" fill="black"/>
</g>
</g>
</svg>
