<svg width="16" height="17" viewBox="0 0 16 17" fill="none" xmlns="http://www.w3.org/2000/svg">
<path d="M3.78851 9.55261C4.08064 9.55261 4.32927 9.45037 4.53439 9.24588C4.73951 9.04138 4.84208 8.79307 4.84208 8.50095C4.84208 8.20882 4.73983 7.9602 4.53534 7.75507C4.33085 7.54995 4.08254 7.44739 3.79041 7.44739C3.49828 7.44739 3.24966 7.54963 3.04453 7.75412C2.83941 7.95862 2.73685 8.20693 2.73685 8.49905C2.73685 8.79118 2.8391 9.03981 3.04359 9.24493C3.24808 9.45005 3.49639 9.55261 3.78851 9.55261ZM7.99905 9.55261C8.29118 9.55261 8.5398 9.45037 8.74493 9.24588C8.95005 9.04138 9.05261 8.79307 9.05261 8.50095C9.05261 8.20882 8.95037 7.9602 8.74588 7.75507C8.54138 7.54995 8.29307 7.44739 8.00095 7.44739C7.70882 7.44739 7.46019 7.54963 7.25507 7.75412C7.04995 7.95862 6.94739 8.20693 6.94739 8.49905C6.94739 8.79118 7.04963 9.03981 7.25412 9.24493C7.45862 9.45005 7.70692 9.55261 7.99905 9.55261ZM12.2096 9.55261C12.5017 9.55261 12.7503 9.45037 12.9555 9.24588C13.1606 9.04138 13.2632 8.79307 13.2632 8.50095C13.2632 8.20882 13.1609 7.9602 12.9564 7.75507C12.7519 7.54995 12.5036 7.44739 12.2115 7.44739C11.9194 7.44739 11.6707 7.54963 11.4656 7.75412C11.2605 7.95862 11.1579 8.20693 11.1579 8.49905C11.1579 8.79118 11.2602 9.03981 11.4647 9.24493C11.6692 9.45005 11.9175 9.55261 12.2096 9.55261ZM8.00141 16.5C6.89494 16.5 5.85491 16.29 4.88132 15.8701C3.90772 15.4502 3.06082 14.8803 2.34064 14.1604C1.62044 13.4405 1.05028 12.594 0.63017 11.6209C0.210057 10.6477 0 9.60788 0 8.50141C0 7.39494 0.209966 6.35491 0.629897 5.38132C1.04983 4.40772 1.61972 3.56082 2.33959 2.84064C3.05946 2.12044 3.90598 1.55028 4.87915 1.13017C5.8523 0.710058 6.89212 0.5 7.99859 0.5C9.10506 0.5 10.1451 0.709966 11.1187 1.1299C12.0923 1.54983 12.9392 2.11972 13.6594 2.83959C14.3796 3.55946 14.9497 4.40598 15.3698 5.37915C15.7899 6.3523 16 7.39212 16 8.49859C16 9.60506 15.79 10.6451 15.3701 11.6187C14.9502 12.5923 14.3803 13.4392 13.6604 14.1594C12.9405 14.8796 12.094 15.4497 11.1209 15.8698C10.1477 16.2899 9.10788 16.5 8.00141 16.5ZM8 15.2369C9.88071 15.2369 11.4737 14.5842 12.779 13.279C14.0842 11.9737 14.7369 10.3807 14.7369 8.5C14.7369 6.61929 14.0842 5.02631 12.779 3.72104C11.4737 2.41577 9.88071 1.76314 8 1.76314C6.11929 1.76314 4.52631 2.41577 3.22104 3.72104C1.91577 5.02631 1.26314 6.61929 1.26314 8.5C1.26314 10.3807 1.91577 11.9737 3.22104 13.279C4.52631 14.5842 6.11929 15.2369 8 15.2369Z" fill="white"/>
</svg>
