<svg width="15" height="11" viewBox="0 0 15 11" fill="none" xmlns="http://www.w3.org/2000/svg">
<path d="M3.50894 10.9769C2.94483 10.9769 2.46186 10.7826 2.06003 10.3942C1.6582 10.0057 1.45195 9.52942 1.44125 8.96531H0V1.52544C0 1.1032 0.148682 0.743402 0.446048 0.446048C0.743401 0.148683 1.1032 0 1.52544 0H10.9127V2.62196H12.8842L15 5.44435V8.96531H13.5908C13.5801 9.52942 13.3739 10.0057 12.972 10.3942C12.5702 10.7826 12.0872 10.9769 11.5231 10.9769C10.959 10.9769 10.476 10.7826 10.0742 10.3942C9.67239 10.0057 9.46614 9.52942 9.45544 8.96531H5.57262C5.56192 9.52675 5.35633 10.0024 4.95584 10.3922C4.55535 10.782 4.07305 10.9769 3.50894 10.9769ZM3.50894 9.57169C3.69892 9.57169 3.85817 9.50743 3.98669 9.37892C4.1152 9.2504 4.17946 9.09115 4.17946 8.90117C4.17946 8.71119 4.1152 8.55194 3.98669 8.42342C3.85817 8.29491 3.69892 8.23065 3.50894 8.23065C3.31896 8.23065 3.15971 8.29491 3.03119 8.42342C2.90268 8.55194 2.83842 8.71119 2.83842 8.90117C2.83842 9.09115 2.90268 9.2504 3.03119 9.37892C3.15971 9.50743 3.31896 9.57169 3.50894 9.57169ZM1.52544 7.43987H2.0819C2.27188 7.25742 2.48579 7.11007 2.72362 6.99783C2.96147 6.8856 3.22324 6.82948 3.50894 6.82948C3.79464 6.82948 4.05705 6.88543 4.29616 6.99734C4.53527 7.10924 4.74721 7.25675 4.93197 7.43987H9.3873V1.52544H1.52544V7.43987ZM11.5231 9.57169C11.7131 9.57169 11.8724 9.50743 12.0009 9.37892C12.1294 9.2504 12.1937 9.09115 12.1937 8.90117C12.1937 8.71119 12.1294 8.55194 12.0009 8.42342C11.8724 8.29491 11.7131 8.23065 11.5231 8.23065C11.3331 8.23065 11.1739 8.29491 11.0454 8.42342C10.9169 8.55194 10.8526 8.71119 10.8526 8.90117C10.8526 9.09115 10.9169 9.2504 11.0454 9.37892C11.1739 9.50743 11.3331 9.57169 11.5231 9.57169ZM10.9127 6.15896H13.6302L12.1215 4.14739H10.9127V6.15896Z" fill="white"/>
</svg>
