<svg width="32" height="32" viewBox="0 0 32 32" fill="none" xmlns="http://www.w3.org/2000/svg">
<path d="M18.6665 3.89317V14.9732C18.6665 16.3332 17.5598 17.4398 16.1998 17.4398H3.99984C3.2665 17.4398 2.6665 16.8398 2.6665 16.1065V7.5865C2.6665 4.8665 4.8665 2.6665 7.5865 2.6665H17.4265C18.1198 2.6665 18.6665 3.21317 18.6665 3.89317Z" fill="#FE9D00"/>
<path d="M28.6665 20.6665C29.0398 20.6665 29.3332 20.9598 29.3332 21.3332V22.6665C29.3332 24.8798 27.5465 26.6665 25.3332 26.6665C25.3332 24.4665 23.5332 22.6665 21.3332 22.6665C19.1332 22.6665 17.3332 24.4665 17.3332 26.6665H14.6665C14.6665 24.4665 12.8665 22.6665 10.6665 22.6665C8.4665 22.6665 6.6665 24.4665 6.6665 26.6665C4.45317 26.6665 2.6665 24.8798 2.6665 22.6665V19.9998C2.6665 19.2665 3.2665 18.6665 3.99984 18.6665H16.6665C18.5065 18.6665 19.9998 17.1732 19.9998 15.3332V7.99984C19.9998 7.2665 20.5998 6.6665 21.3332 6.6665H22.4532C23.4132 6.6665 24.2932 7.1865 24.7732 8.01317L25.6265 9.5065C25.7465 9.71984 25.5865 9.99984 25.3332 9.99984C23.4932 9.99984 21.9998 11.4932 21.9998 13.3332V17.3332C21.9998 19.1732 23.4932 20.6665 25.3332 20.6665H28.6665Z" fill="#FE9D00"/>
<path d="M10.6667 29.3333C12.1394 29.3333 13.3333 28.1395 13.3333 26.6667C13.3333 25.1939 12.1394 24 10.6667 24C9.19391 24 8 25.1939 8 26.6667C8 28.1395 9.19391 29.3333 10.6667 29.3333Z" fill="#FE9D00"/>
<path d="M21.3332 29.3333C22.806 29.3333 23.9998 28.1395 23.9998 26.6667C23.9998 25.1939 22.806 24 21.3332 24C19.8604 24 18.6665 25.1939 18.6665 26.6667C18.6665 28.1395 19.8604 29.3333 21.3332 29.3333Z" fill="#FE9D00"/>
<path d="M29.3333 16.7067V18.6667H25.3333C24.6 18.6667 24 18.0667 24 17.3333V13.3333C24 12.6 24.6 12 25.3333 12H27.0533L28.9867 15.3867C29.2133 15.7867 29.3333 16.24 29.3333 16.7067Z" fill="#FE9D00"/>
</svg>
