<svg width="15" height="17" viewBox="0 0 15 17" fill="none" xmlns="http://www.w3.org/2000/svg">
<path d="M6.55087 14.9715V8.83747L1.19107 5.74069V11.8747L6.55087 14.9715ZM7.74194 14.9715L13.1017 11.8747V5.72084L7.74194 8.83747V14.9715ZM6.55087 16.3412L0.595533 12.9069C0.410256 12.8011 0.264682 12.6555 0.158809 12.4702C0.0529363 12.2849 0 12.0864 0 11.8747V5.12531C0 4.91356 0.0529363 4.71505 0.158809 4.52978C0.264682 4.3445 0.410256 4.19892 0.595533 4.09305L6.55087 0.658809C6.73615 0.552936 6.93466 0.5 7.1464 0.5C7.35815 0.5 7.55666 0.552936 7.74194 0.658809L13.6973 4.09305C13.8825 4.19892 14.0281 4.3445 14.134 4.52978C14.2399 4.71505 14.2928 4.91356 14.2928 5.12531V11.8747C14.2928 12.0864 14.2399 12.2849 14.134 12.4702C14.0281 12.6555 13.8825 12.8011 13.6973 12.9069L7.74194 16.3412C7.55666 16.4471 7.35815 16.5 7.1464 16.5C6.93466 16.5 6.73615 16.4471 6.55087 16.3412ZM10.402 5.91935L12.4268 4.74814L7.1464 1.69107L5.12159 2.86228L10.402 5.91935ZM7.1464 7.82506L9.21092 6.61414L3.91067 3.55707L1.84615 4.74814L7.1464 7.82506Z" fill="white"/>
</svg>
