<svg width="15" height="10" viewBox="0 0 15 10" fill="none" xmlns="http://www.w3.org/2000/svg">
<path d="M1.13642 9.06389L0 7.93191L3.97704 3.95044C4.42467 3.5028 4.96653 3.27899 5.60261 3.27899C6.2387 3.27899 6.78057 3.5028 7.2282 3.95044L8.08152 4.80375C8.21809 4.94032 8.37805 5.00861 8.5614 5.00861C8.74475 5.00861 8.90472 4.94032 9.0413 4.80375L12.2279 1.61711H10.4148V0H15V4.58518H13.3829V2.77208L10.1777 5.9587C9.73008 6.40634 9.18822 6.63015 8.55212 6.63015C7.91604 6.63015 7.37419 6.40634 6.92655 5.9587L6.05468 5.08683C5.93047 4.96263 5.77434 4.90053 5.58629 4.90053C5.39822 4.90053 5.24209 4.96263 5.11789 5.08683L1.13642 9.06389Z" fill="white"/>
</svg>
